<?xml version="1.0" encoding="UTF-8" standalone="no"?>
<svg width="220px" height="444px" viewBox="0 0 220 444" version="1.1" xmlns="http://www.w3.org/2000/svg" xmlns:xlink="http://www.w3.org/1999/xlink" xmlns:sketch="http://www.bohemiancoding.com/sketch/ns">
    <!-- Generator: Sketch 3.2.2 (9983) - http://www.bohemiancoding.com/sketch -->
    <title>enniu</title>
    <desc>Created with Sketch.</desc>
    <defs>
        <path d="M93,75.429483 C93,68.5648688 89.0300782,62.9999983 81,63 C72.9699218,63.0000017 69,68.5648688 69,75.429483 C69,82.2940973 81,98 81,98 C81,98 93,82.2940973 93,75.429483 Z M91.4,75.51318 C91.4,69.4286355 87.6058594,64.4961396 81,64.4961381 C74.3941406,64.4961366 70.6,69.4286355 70.6,75.51318 C70.6,81.5977244 81,95.5188654 81,95.5188654 C81,95.5188654 91.4,81.5977244 91.4,75.51318 Z M81,79.7045455 C84.5346226,79.7045455 87.4,76.8554486 87.4,73.3409091 C87.4,69.8263696 84.5346226,66.9772727 81,66.9772727 C77.4653774,66.9772727 74.6,69.8263696 74.6,73.3409091 C74.6,76.8554486 77.4653774,79.7045455 81,79.7045455 L81,79.7045455 Z" id="path-1"></path>
        <path d="M193.230769,123 C193.230769,123 190,123 190,126.186721 L190,154.867208 C190,158.053929 193.230769,158.053929 193.230769,158.053929 L207.769231,158.053929 C207.769231,158.053929 211,158.053929 211,154.867208 L211,126.186721 C211,123 207.769231,123 207.769231,123 L193.230769,123 L193.230769,123 Z M191.615385,126.977273 L191.615385,152.431818 L209.384615,152.431818 L209.384615,126.977273 L191.615385,126.977273 L191.615385,126.977273 Z M200.5,156.727268 C201.392152,156.727268 202.115385,156.014994 202.115385,155.136359 C202.115385,154.257724 201.392152,153.54545 200.5,153.54545 C199.607848,153.54545 198.884615,154.257724 198.884615,155.136359 C198.884615,156.014994 199.607848,156.727268 200.5,156.727268 L200.5,156.727268 Z M196.819015,124.590909 C196.621586,124.590909 196.461538,124.744517 196.461538,124.942664 L196.461538,125.035835 C196.461538,125.230103 196.622878,125.387589 196.819015,125.387589 L204.180985,125.387589 C204.378414,125.387589 204.538462,125.233981 204.538462,125.035835 L204.538462,124.942664 C204.538462,124.748395 204.377122,124.590909 204.180985,124.590909 L196.819015,124.590909 L196.819015,124.590909 Z" id="path-2"></path>
        <path d="M73.2307692,182.5 C73.2307692,182.5 70,182.5 70,185.686721 L70,214.367208 C70,217.553929 73.2307692,217.553929 73.2307692,217.553929 L87.7692308,217.553929 C87.7692308,217.553929 91,217.553929 91,214.367208 L91,185.686721 C91,182.5 87.7692308,182.5 87.7692308,182.5 L73.2307692,182.5 L73.2307692,182.5 Z M71.6153846,186.477273 L71.6153846,211.931818 L89.3846154,211.931818 L89.3846154,186.477273 L71.6153846,186.477273 L71.6153846,186.477273 Z M80.5,216.227268 C81.3921523,216.227268 82.1153846,215.514994 82.1153846,214.636359 C82.1153846,213.757724 81.3921523,213.04545 80.5,213.04545 C79.6078477,213.04545 78.8846154,213.757724 78.8846154,214.636359 C78.8846154,215.514994 79.6078477,216.227268 80.5,216.227268 L80.5,216.227268 Z M76.8190155,184.090909 C76.6215863,184.090909 76.4615385,184.244517 76.4615385,184.442664 L76.4615385,184.535835 C76.4615385,184.730103 76.6228781,184.887589 76.8190155,184.887589 L84.1809845,184.887589 C84.3784137,184.887589 84.5384615,184.733981 84.5384615,184.535835 L84.5384615,184.442664 C84.5384615,184.248395 84.3771219,184.090909 84.1809845,184.090909 L76.8190155,184.090909 L76.8190155,184.090909 Z" id="path-3"></path>
    </defs>
    <g id="Page-1" stroke="none" stroke-width="1" fill="none" fill-rule="evenodd" sketch:type="MSPage">
        <g id="enniu" sketch:type="MSArtboardGroup">
            <rect id="Rectangle-53" stroke="#42C2B3" stroke-width="1.5" sketch:type="MSShapeGroup" x="0" y="6" width="40" height="30" rx="8"></rect>
            <path d="M78.0101813,22.3452007 L91.2666096,22.3452007 L95.6697265,12.1715082 L73.6079875,12.1715082 L78.0101813,22.3452007 L78.0101813,22.3452007 Z M91.8721535,24.1991766 L77.4055604,24.1991766 C77.0372494,24.1991766 76.7049387,23.9804074 76.5581681,23.6411298 L71.3538131,11.6134614 C71.2301197,11.3270221 71.2578122,10.9970144 71.428583,10.7356038 C71.5993538,10.4741932 71.8892026,10.3175323 72.2002823,10.3175323 L97.0765086,10.3175323 C97.3875883,10.3175323 97.6783602,10.4741932 97.849131,10.7356038 C98.0189787,10.9970144 98.0475943,11.3270221 97.9239009,11.6134614 L92.7186228,23.6411298 C92.5718522,23.9804074 92.2395415,24.1991766 91.8721535,24.1991766 Z M92.9752405,27.6364478 L92.9743174,27.6364478 L74.6141505,27.620689 C74.2375316,27.620689 73.8987593,27.389869 73.7584504,27.0385406 L67.0743896,10.2804528 L63.8020521,9.84476844 C63.2962014,9.77802531 62.9408135,9.31175038 63.0081988,8.80468798 C63.075584,8.29669859 63.5426652,7.94351619 64.0439005,8.00747836 L67.8516274,8.51361377 C68.182092,8.55810919 68.463633,8.77687834 68.5873264,9.0874193 L75.2400023,25.7667132 L92.9761636,25.782472 C93.4857067,25.782472 93.8983258,26.1977626 93.8983258,26.7103869 C93.8974027,27.2211572 93.4838605,27.6364478 92.9752405,27.6364478 Z M76.7741701,31.1321193 C76.4077052,31.1321193 76.1104717,30.8336292 76.1104717,30.465615 C76.1104717,30.0976008 76.4077052,29.7991107 76.7741701,29.7991107 C77.140635,29.7991107 77.4378684,30.0976008 77.4378684,30.465615 C77.4378684,30.8336292 77.140635,31.1321193 76.7741701,31.1321193 Z M76.7741701,27.930303 C75.3803113,27.930303 74.2504548,29.0658632 74.2504548,30.465615 C74.2504548,31.8653668 75.3803113,33 76.7741701,33 C78.1680289,33 79.2978854,31.8653668 79.2978854,30.465615 C79.2978854,29.0658632 78.1680289,27.930303 76.7741701,27.930303 Z M89.6752105,31.1321193 C89.3096687,31.1321193 89.0124352,30.8336292 89.0124352,30.465615 C89.0124352,30.0976008 89.3096687,29.7991107 89.6752105,29.7991107 C90.0416754,29.7991107 90.3389088,30.0976008 90.3389088,30.465615 C90.3389088,30.8336292 90.0416754,31.1321193 89.6752105,31.1321193 Z M89.6752105,27.930303 C88.2813517,27.930303 87.1514952,29.0658632 87.1514952,30.465615 C87.1514952,31.8653668 88.2813517,33 89.6752105,33 C91.0699924,33 92.1998488,31.8653668 92.1998488,30.465615 C92.1998488,29.0658632 91.0699924,27.930303 89.6752105,27.930303 L89.6752105,27.930303 Z" id="Fill-6" fill="#42C2B3" sketch:type="MSShapeGroup"></path>
            <path d="M145.031718,11.2530002 C144.536309,8.35390264 142.29936,6.15946079 139.621586,6.15946079 C136.944958,6.15946079 134.706128,8.35390264 134.210255,11.2530002 L145.031718,11.2530002 L145.031718,11.2530002 Z M132.079268,11.2530002 C132.610318,7.15870281 135.789463,4 139.621586,4 C143.452525,4 146.632645,7.15870281 147.163877,11.2530002 L154,11.2530002 L152.573472,33.8129213 L127.427828,33.8129213 L126,11.2530002 L132.079268,11.2530002 L132.079268,11.2530002 Z M137.93238,22.8275522 C138.049415,22.9393391 138.456437,23.4640802 138.756827,23.4640802 C139.06762,23.4640802 140.676203,21.703107 141.373212,20.9153378 L144.659298,17.0185764 C144.768531,16.9015289 144.851756,16.8252507 145.024707,16.8199901 C145.195059,16.8147296 145.420026,16.8791715 145.53446,16.9909584 L146.594278,18.062798 C146.711313,18.1745849 146.785436,18.3310866 146.789337,18.5060003 C146.795839,18.680914 146.73212,18.8426763 146.621586,18.9597238 L140.642393,25.4341608 L140.650195,25.4433668 L139.377113,26.8282098 C139.269181,26.9478876 139.115735,27.0241657 138.946684,27.0294263 C138.775033,27.0346868 138.617685,26.9689298 138.501951,26.8571429 L134.892068,23.3825415 C134.777633,23.2707546 134.702211,23.1142528 134.697009,22.9393391 C134.691808,22.7644254 134.755527,22.6026632 134.864759,22.4856157 L135.713914,21.5610718 C135.821847,21.4440243 135.973992,21.3677462 136.145644,21.3624856 C136.314694,21.3559099 136.473342,21.4216669 136.587776,21.5334539 L137.93238,22.8275522 Z M153.788036,36 L126.217165,36 L127.405722,34.3508137 L152.539662,34.3508137 L153.788036,36 Z" id="Fill-16" fill="#42C2B3" sketch:type="MSShapeGroup"></path>
            <g id="map_location_pin_map-marker_outline_stroke">
                <use fill="#42C2B3" fill-rule="evenodd" sketch:type="MSShapeGroup" xlink:href="#path-1"></use>
                <use fill="none" xlink:href="#path-1"></use>
            </g>
            <path d="M157.51102,73.332905 L152.308461,75.1664058 L152.782359,76.6511601 L156.444154,75.3610365 L156.444948,92.4281642 L146.145405,95.119629 L135.298935,92.2033459 L125.555052,94.5365312 L125.555052,77.889647 L129.336711,75.3403818 L128.307947,74.1725975 L124,77.0150004 L124.000794,77.0157948 L124,77.0157948 L124,96.3311059 L125.555052,96.3311059 L125.555052,96.329517 L135.279884,93.9256291 L146.131911,97 L157.996031,93.5760882 L158,93.5760882 L158,74.6158789 L157.51102,73.332905 L157.51102,73.332905 Z M140.999206,69.7850651 C139.694201,69.7850651 138.632891,70.7907895 138.632891,72.0268932 C138.632891,73.2622024 139.694201,74.2687212 140.999206,74.2687212 C142.304212,74.2687212 143.366315,73.2622024 143.366315,72.0268932 C143.366315,70.7907895 142.304212,69.7850651 140.999206,69.7850651 L140.999206,69.7850651 Z M140.999206,75.8225893 C138.838485,75.8225893 137.08022,74.1193719 137.08022,72.0268932 C137.08022,69.9336199 138.838485,68.231197 140.999206,68.231197 C143.159927,68.231197 144.918192,69.9336199 144.918192,72.0268932 C144.918192,74.1193719 143.159927,75.8225893 140.999206,75.8225893 L140.999206,75.8225893 Z M141,64.5538681 C138.899608,64.5538681 136.929399,65.3403351 135.452139,66.7678918 C133.997105,68.1739994 133.145359,70.0694642 133.052484,72.1063343 C132.971517,73.8731045 133.769285,76.0871282 135.421974,78.6848524 C137.019892,81.1951915 138.871825,83.1994906 139.401289,83.7539896 C139.947422,84.3259656 140.392744,84.7605084 140.757097,85.103694 L141.252428,84.6318138 C141.26751,84.6175144 141.56201,84.340265 142.016857,83.8850674 L142.05099,83.8540854 C142.8178,83.1740695 143.728287,82.1929718 144.615755,81.0911236 L144.630837,81.0728522 C145.68262,79.8462815 146.516903,78.7309283 147.111459,77.7553915 C148.195788,75.9743218 148.640316,74.3394238 148.822096,73.2812683 L148.824477,73.2677633 C148.878455,72.9841585 148.914176,72.7045258 148.93164,72.4360149 L148.93164,72.4256875 C148.945928,72.2397953 148.946722,72.1325498 148.946722,72.1285778 C148.962598,70.1910091 148.198963,68.347181 146.797114,66.9339237 C145.297628,65.421365 143.184535,64.5538681 141,64.5538681 L141,64.5538681 Z M140.769004,87.235099 L140.169686,86.6806 C139.726746,86.2698895 139.118696,85.7074464 138.278063,84.827239 C137.723991,84.2473189 135.785534,82.1484848 134.113,79.5189841 C132.28488,76.6463936 131.406145,74.1289049 131.501401,72.0364261 C131.612533,69.5999673 132.632564,67.3327181 134.37416,65.6501554 C136.14195,63.9413771 138.49477,63 141,63 C143.595723,63 146.111272,64.0351176 147.900495,65.8400196 C149.594462,67.5487979 150.51765,69.7858595 150.499393,72.1389051 C150.499393,72.175448 150.497012,72.3168532 150.480342,72.5392883 C150.459703,72.8681745 150.416044,73.2089768 150.351746,73.551368 C150.145359,74.7429846 149.646853,76.5772798 148.437103,78.564102 C147.80127,79.6079581 146.920153,80.7900418 145.817566,82.0761934 C144.885646,83.2312671 143.92118,84.268768 143.098011,85.001215 C142.643958,85.4548237 142.35184,85.7304844 142.319294,85.760672 L140.769004,87.235099 L140.769004,87.235099 Z" id="Fill-332" fill="#42C2B3" sketch:type="MSShapeGroup"></path>
            <path d="M193.324148,86.1180732 L193.324148,73.8819268 L203.802529,80 L193.324148,86.1180732 L193.324148,86.1180732 Z M217.662574,71.3142839 C217.455135,71.1753452 217.20055,71.1814748 216.996479,71.3313108 L210.870283,75.8652096 L210.870283,71.4246177 C210.870283,70.0876726 209.965093,69 208.853811,69 L185.015798,69 C183.903169,69 183,70.0876726 183,71.4246177 L183,88.5760634 C183,89.9130085 183.903169,91 185.015798,91 L208.853811,91 C209.965093,91 210.870283,89.9130085 210.870283,88.5760634 L210.870283,84.12185 L216.996479,88.6564299 C217.201224,88.8062659 217.455135,88.8130766 217.662574,88.6720946 C217.871361,88.5324748 218,88.2682187 218,87.9814872 L218,72.0055724 C218,71.7202031 217.871361,71.4552659 217.662574,71.3142839 L217.662574,71.3142839 Z" id="Fill-49" fill="#42C2B3" sketch:type="MSShapeGroup"></path>
            <g id="weibo" sketch:type="MSLayerGroup" transform="translate(182.500000, 5.500000)" fill="#42C2B3">
                <path d="M25.2350414,13.0873346 C25.8156236,11.314877 25.7394479,9.78633953 24.8673608,8.85114061 C23.4627668,7.34489801 20.378737,7.79091003 17.1121562,9.71104074 L17.1121562,9.71104074 C17.8470511,7.76215844 17.8316514,6.06504457 16.8917541,5.05712814 C14.9523393,2.97736041 9.81105794,4.61959189 5.40838073,8.72515481 C1.75978402,12.1275263 -0.236550053,16.1539329 0.290449006,18.6170889 L0.290449006,18.6170889 C0.196646413,18.9982209 0.146834477,19.3971465 0.146834477,19.8079314 C0.146834477,21.30189 0.805676734,22.6389884 1.84334033,23.533784 C3.67592022,27.1337459 9.74248809,29.2581294 16.5901684,28.41734 C24.4597202,27.4510805 30.380869,22.9345402 29.8154246,18.3293648 C29.5436539,16.1159697 27.8228971,14.2849496 25.2350414,13.0873346 L25.2350414,13.0873346 Z M14.1779675,26.2954492 C19.8902664,25.8960064 24.3094086,22.5463021 24.0483979,18.8136753 C23.7873872,15.0810485 18.945063,12.3789691 13.2327642,12.7784119 C7.5204653,13.1778547 3.10132309,16.527559 3.36233378,20.2601858 C3.62334447,23.9928126 8.46566862,26.6948921 14.1779675,26.2954492 Z M14.5182222,25.0389832 C17.482142,24.1890928 19.2828922,21.4007614 18.5403104,18.8110706 C17.7977285,16.2213798 14.7930151,14.8109929 11.8290953,15.6608833 C8.86517542,16.5107736 7.06442519,19.299105 7.80700708,21.8887958 C8.54958896,24.4784866 11.5543023,25.8888735 14.5182222,25.0389832 Z M12.5342793,22.7494027 C13.3657773,22.1452841 13.6119394,21.066595 13.0840977,20.3400832 C12.556256,19.6135714 11.4542934,19.5143522 10.6227954,20.1184708 C9.79129742,20.7225895 9.54513536,21.8012786 10.0729771,22.5277904 C10.6008188,23.2543022 11.7027813,23.3535214 12.5342793,22.7494027 Z M14.5556536,19.7044183 C14.9120099,19.4455103 15.0582603,19.0393059 14.8823131,18.7971353 C14.7063658,18.5549647 14.2748486,18.568533 13.9184923,18.827441 C13.562136,19.086349 13.4158856,19.4925535 13.5918328,19.7347241 C13.76778,19.9768947 14.1992973,19.9633263 14.5556536,19.7044183 Z" id="Oval-1" sketch:type="MSShapeGroup"></path>
                <path d="M25.3137297,4.64677131 C25.4307979,4.6369102 25.5492108,4.63188157 25.6687758,4.63188157 C28.0180057,4.63188157 29.9224327,6.57318127 29.9224327,8.96789582 C29.9224327,9.21528073 29.902109,9.45782687 29.8630707,9.69389393 L29.8630707,9.69389393 C29.9015262,9.8059697 29.9224327,9.92644577 29.9224327,10.0518994 C29.9224327,10.650578 29.446326,11.1359029 28.8590185,11.1359029 C28.2717111,11.1359029 27.7956043,10.650578 27.7956043,10.0518994 C27.7956043,9.8709495 27.8390987,9.70035497 27.9160118,9.55038656 L27.730359,9.50288174 C27.772964,9.33176173 27.7956043,9.15252393 27.7956043,8.96789582 C27.7956043,7.77053854 26.8433908,6.79988869 25.6687758,6.79988869 C25.5755124,6.79988869 25.483651,6.80600789 25.393557,6.81787391 L25.3880248,6.76952891 C25.3075579,6.78937333 25.223518,6.79988869 25.1370687,6.79988869 C24.5497613,6.79988869 24.0736545,6.31456377 24.0736545,5.71588513 C24.0736545,5.11720649 24.5497613,4.63188157 25.1370687,4.63188157 C25.1972544,4.63188157 25.2562723,4.63697825 25.3137297,4.64677131 Z M21.4823409,8.19588629 C21.4381744,8.44641239 21.415119,8.70440953 21.415119,8.96789582 C21.415119,9.2313821 21.4381744,9.48937924 21.4823409,9.73990535 L21.4823409,8.19588629 L21.4823409,8.19588629 Z M24.822877,3.06777357 C25.0990648,3.02698836 25.3815016,3.00587622 25.6687758,3.00587622 C28.8989669,3.00587622 31.5175541,5.67516332 31.5175541,8.96789582 C31.5175541,9.50039982 31.4490684,10.0165984 31.3205857,10.5078386 L31.3205857,10.5078386 C31.1123221,10.7470473 30.985847,11.0619197 30.985847,11.4069038 C30.985847,12.1552521 31.5809804,12.7619083 32.3151147,12.7619083 C32.9819459,12.7619083 33.5340943,12.2613861 33.6297283,11.6087916 L33.7688872,11.6263752 L33.7688872,11.6263752 C34.0332917,10.7886146 34.1760896,9.89525423 34.1760896,8.96789582 C34.1760896,4.17846673 30.3672355,0.295867316 25.6687758,0.295867316 C24.7813187,0.295867316 23.9255997,0.434385359 23.1212907,0.691368648 L23.1977437,0.988680449 C22.7705212,1.21403468 22.4785332,1.66869518 22.4785332,2.19287355 C22.4785332,2.94122185 23.0736666,3.547878 23.807801,3.547878 C24.2147819,3.547878 24.5790445,3.36143773 24.822877,3.06777357 L24.822877,3.06777357 Z" id="Oval-9" sketch:type="MSShapeGroup"></path>
            </g>
            <path d="M84.1733307,138.873361 C81.8118561,138.873361 79.905218,136.939483 79.905218,134.551451 C79.905218,132.169003 81.8118561,130.232333 84.1733307,130.232333 C86.5283733,130.232333 88.4359303,132.169003 88.4359303,134.551451 C88.4359303,136.941345 86.5283733,138.873361 84.1733307,138.873361 L84.1733307,138.873361 Z M84.1733307,150.211395 C81.8118561,150.211395 79.905218,148.274725 79.905218,145.887624 C79.905218,143.502384 81.8118561,141.565714 84.1733307,141.565714 C86.5283733,141.565714 88.4359303,143.502384 88.4359303,145.887624 C88.4359303,148.274725 86.5283733,150.211395 84.1733307,150.211395 L84.1733307,150.211395 Z M72.9770006,138.873361 C70.621958,138.873361 68.7134822,136.939483 68.7134822,134.551451 C68.7134822,132.169003 70.621958,130.232333 72.9770006,130.232333 C75.3329621,130.235125 77.2460322,132.170864 77.2460322,134.553312 C77.2460322,136.941345 75.3347998,138.873361 72.9770006,138.873361 L72.9770006,138.873361 Z M72.9770006,150.211395 C70.621958,150.211395 68.7134822,148.274725 68.7134822,145.887624 C68.7134822,143.502384 70.621958,141.565714 72.9770006,141.565714 C75.3329621,141.568506 77.2460322,143.502384 77.2460322,145.887624 C77.2460322,148.274725 75.3347998,150.211395 72.9770006,150.211395 L72.9770006,150.211395 Z M83.9224815,125.419043 C93.7763546,126.102136 96,132.335588 96,132.335588 L95.6352119,128.200737 C92.1334299,123.240406 85.2686139,123.631276 80.6467394,124.601007 C79.9704572,124.507943 79.2822298,124.44652 78.5737874,124.44652 C69.970485,124.44652 63,131.506384 63,140.220933 C63,148.934552 69.970485,156 78.5737874,156 C87.1761709,156 94.1558445,148.934552 94.1558445,140.220933 C94.1512502,133.420719 89.8840564,127.632114 83.9224815,125.419043 L83.9224815,125.419043 Z" id="Fill-50" fill="#42C2B3" sketch:type="MSShapeGroup"></path>
            <path d="M135.791934,136.405535 L130,136.405535 L140.219644,148.042391 L150.441139,136.405535 L144.651056,136.405535 L144.651056,125.17501 C144.651056,123.698299 143.471938,122.5 142.018864,122.5 L138.422275,122.5 C136.969201,122.5 135.791934,123.698299 135.791934,125.17501 L135.791934,136.405535 L135.791934,136.405535 Z M126.5,152.427536 L153.5,152.427536 L153.5,157.5 L126.5,157.5 L126.5,152.427536 Z" id="Fill-129" fill="#42C2B3" sketch:type="MSShapeGroup"></path>
            <path d="M20,154.5 C28.0081289,154.5 34.5,148.008129 34.5,140 C34.5,131.991871 28.0081289,125.5 20,125.5 C11.9918711,125.5 5.5,131.991871 5.5,140 C5.5,148.008129 11.9918711,154.5 20,154.5 Z M16.3424352,149.612525 L16.3424352,130.474556 L28.1350579,140.04354 L16.3424352,149.612525 Z" id="Oval-1" fill="#42C2B3" sketch:type="MSShapeGroup"></path>
            <g id="device_smart-phone_vertical_glyph">
                <use fill="#42C2B3" fill-rule="evenodd" sketch:type="MSShapeGroup" xlink:href="#path-2"></use>
                <use fill="none" xlink:href="#path-2"></use>
            </g>
            <path d="M200.493394,218 C190.832946,218 183,209.943521 183,199.992493 C183,190.056479 190.833641,182 200.493394,182 C210.167749,182 218,190.056479 218,199.992493 C218,209.943521 210.167749,218 200.493394,218 Z M201.349427,199.426273 C201.073354,199.097408 200.681846,198.917962 200.289643,198.903664 L200.18881,200.470063 L201.726332,200.573727 C201.755538,200.171939 201.624108,199.753709 201.349427,199.426273 Z M193.618704,199.469884 C194.06793,198.574799 195.677078,197.814835 195.779301,197.380876 C196.272337,195.083825 193.821065,191.234674 192.168107,191.682216 C186.104945,193.33798 188.483201,199.948168 190.659097,203.572833 C193.225805,207.88454 197.359937,211.136729 202.059427,212.389276 C204.235322,212.972654 206.845841,212.495085 208.457074,210.122252 C209.007133,209.317248 209.399336,207.467024 208.964018,207.138874 C208.035664,206.451832 206.077427,205.004826 203.916135,204.646649 C203.49542,204.58731 202.233276,206.437534 201.377938,207.332618 C200.246528,208.511528 192.834992,201.066309 193.618704,199.469884 Z M208.861795,192.637355 C206.758916,190.175156 203.887624,188.818231 200.943315,188.623056 L200.826489,190.340304 C203.350778,190.519035 205.816654,191.667203 207.614254,193.770509 C209.413244,195.889544 210.210864,198.544772 210.037015,201.126363 L211.719874,201.24647 C211.907631,198.216622 210.965369,195.098123 208.861795,192.637355 Z M206.324293,194.949419 C204.830582,193.203575 202.800024,192.248436 200.725656,192.11546 L200.624128,193.756211 C202.291689,193.875603 203.916135,194.635567 205.105959,196.038248 C206.295087,197.425916 206.831237,199.186774 206.715106,200.91689 L208.325644,201.021984 C208.457074,198.873637 207.803401,196.68025 206.324293,194.949419 Z M203.843814,197.172118 C202.958574,196.128329 201.755538,195.561394 200.507997,195.487042 L200.405774,197.172118 C201.217997,197.231457 202.016312,197.605362 202.610876,198.291689 C203.190837,198.978016 203.45161,199.843074 203.393892,200.693119 L205.047545,200.797498 C205.13447,199.514924 204.742962,198.216622 203.843814,197.172118 Z" id="Fill-62" fill="#42C2B3" sketch:type="MSShapeGroup"></path>
            <path d="M13.6086906,193.056897 C13.6086906,189.055166 16.9236969,185.811379 21.0130276,185.811379 C25.1012361,185.811379 28.4162424,189.055166 28.4162424,193.056897 C28.4162424,197.059727 25.1012361,200.304611 21.0130276,200.304611 C16.9236969,200.304611 13.6086906,197.059727 13.6086906,193.056897 L13.6086906,193.056897 Z M27.8147382,204.281078 C27.9662365,204.390925 28.151401,204.456833 28.3556431,204.456833 C28.8628817,204.456833 29.2736103,204.054793 29.2736103,203.557185 C29.2736103,203.245219 29.1120122,202.970602 28.8651261,202.808028 L28.8662484,202.806929 C27.7687277,202.079741 26.5601082,201.499748 25.2718119,201.097708 C28.2378111,199.589506 30.2645212,196.555528 30.2645212,193.056897 C30.2645212,188.055557 26.1224466,184 21.0130276,184 C15.9013642,184 11.7592897,188.055557 11.7592897,193.056897 C11.7592897,196.555528 13.7871219,199.58731 16.7519989,201.097708 C11.1218748,202.854164 7.03478849,208.001601 7,214.090428 C7,214.097019 7.00336663,214.168419 7.00336663,214.168419 C7.0359107,214.637467 7.42980616,215.009848 7.916845,215.009848 C8.40612826,215.009848 8.8090014,214.636368 8.83930105,214.167321 C8.83930105,207.587477 14.2898717,202.2533 21.0107832,202.2533 C23.5290209,202.2533 25.8699495,203.002457 27.8124938,204.284373 L27.8147382,204.281078 Z M26.5657193,212.615181 C24.8094617,213.997058 26.1583573,214.918675 26.9293151,215.675522 C27.8203493,216.54661 31.143211,215.720559 34.4301621,212.506432 C37.715991,209.291206 38.5587701,206.037534 37.667736,205.165347 C36.8945337,204.408501 35.9530001,203.088138 34.5412608,204.807246 C33.1295215,206.52855 33.8219247,207.009681 34.6198155,207.790694 C35.1786757,208.336634 34.0138224,209.717413 32.7984698,210.908156 C31.5819949,212.097801 30.1713778,213.235817 29.6158842,212.693172 C28.8179934,211.912159 28.3253435,211.233304 26.5657193,212.615181 Z" id="Fill-69" fill="#42C2B3" sketch:type="MSShapeGroup"></path>
            <path d="M132.814257,194.581523 L132.814257,193.702016 L134.985082,193.702016 L135.032897,193.837176 C135.11514,194.060191 135.222247,194.272585 135.345611,194.477257 C136.019809,195.575916 137.219979,196.235305 138.49474,196.243028 L138.506216,196.243028 C138.632449,196.243028 138.765376,196.237236 138.902128,196.222754 C139.165114,196.191861 139.416623,196.1349 139.670046,196.048977 L139.851745,195.98912 C140.037269,195.919609 140.208448,195.83079 140.378672,195.72942 C141.110249,195.301734 141.68021,194.63076 141.97571,193.833315 L142.021613,193.69912 L144.190524,193.69912 L144.190524,194.577661 L144.19435,194.577661 L144.19435,194.778471 C144.19435,195.387657 144.277549,195.981397 144.464985,196.560655 C144.647641,197.143775 144.918276,197.680554 145.26733,198.178716 L148.487226,202.78768 C148.957731,203.457688 149.340255,204.184657 149.591765,204.970517 C149.838493,205.75155 149.943687,206.55865 149.943687,207.377335 L149.943687,210.431956 L127.063963,210.431956 L127.063963,207.380231 C127.063963,206.562512 127.17107,205.755412 127.414929,204.974379 C127.662614,204.188519 128.049919,203.460584 128.519468,202.791541 L131.739364,198.182578 C132.087461,197.680554 132.357141,197.143775 132.542665,196.564517 C132.728189,195.981397 132.809476,195.390554 132.809476,194.782333 L132.809476,194.581523 L132.814257,194.581523 L132.814257,194.581523 Z M150.636166,201.432216 C151.221228,202.291625 151.680919,203.210173 151.995929,204.203966 C152.322987,205.237941 152.465477,206.296053 152.465477,207.380231 L152.465477,213 L152.465477,212.998069 L124.536435,212.998069 L124.536435,207.3783 C124.536435,206.295087 124.679882,205.236011 125.007896,204.202035 C125.318529,203.21052 125.78191,202.293024 126.364684,201.436077 L121,201.436077 L121,197.913223 L121.006694,197.913223 L121.006694,197.765512 C121.006694,194.864394 122.196344,192.145743 124.258149,190.144406 C126.344818,188.117003 129.134375,187.006758 132.026258,187.005793 L132.229952,187.005793 L132.229952,187 L144.83699,187 L144.83699,187.005793 L144.973742,187.005793 C147.865625,187.005793 150.654226,188.115072 152.742807,190.146337 C154.804612,192.145743 155.99235,194.864394 155.996175,197.764546 L155.996175,197.966321 L156,197.966321 L156,201.432216 L150.636166,201.432216 Z M148.992158,199.076603 L147.339654,196.710297 C147.14361,196.428391 146.977212,196.123315 146.870106,195.794103 C146.766824,195.467788 146.72379,195.127957 146.72379,194.782333 L146.72379,194.581523 L146.731441,194.581523 L146.731441,191.772121 L139.655701,191.772121 L139.655701,192.596599 C139.655701,192.982771 139.439575,193.32936 139.11156,193.521481 C139.080002,193.537893 139.050357,193.555271 139.018798,193.565891 L139.018798,193.582303 L138.878221,193.625747 C138.796934,193.653745 138.70991,193.669192 138.624798,193.67595 C138.58559,193.681742 138.541599,193.687535 138.498566,193.687535 C138.096915,193.679811 137.714391,193.479967 137.499221,193.133378 C137.460969,193.067729 137.427498,192.998218 137.401678,192.92581 C137.37777,192.854369 137.362469,192.779065 137.355775,192.706658 C137.35195,192.669971 137.35195,192.630389 137.35195,192.592737 L137.35195,191.77019 L130.274297,191.77019 L130.274297,194.579592 L130.279079,194.579592 L130.279079,194.780402 C130.279079,195.127957 130.237001,195.465857 130.132763,195.792173 C130.027569,196.121384 129.863084,196.428391 129.665127,196.708366 L128.010711,199.077411 L128.010711,198.871895 L123.541873,198.871895 L123.541873,197.972114 L123.536135,197.972114 L123.536135,197.769374 C123.536135,195.568193 124.448455,193.511827 126.013935,191.989343 C127.632012,190.420519 129.788491,189.562252 132.02817,189.560321 L132.229952,189.560321 L132.229952,189.568044 L144.771961,189.568044 L144.771961,189.556459 L144.973742,189.556459 C147.214377,189.55839 149.371813,190.416657 150.990847,191.987412 C152.554414,193.506034 153.466734,195.563366 153.466734,197.764546 L153.466734,197.966321 L153.462909,197.966321 L153.462909,198.868033 L148.992158,198.868033 L148.992158,199.076603 Z M138.502391,200.698489 C139.727424,200.698489 140.716249,201.69964 140.716249,202.932494 C140.716249,204.163418 139.727424,205.163603 138.502391,205.163603 C137.281183,205.163603 136.291401,204.163418 136.291401,202.932494 C136.291401,201.69964 137.27927,200.698489 138.502391,200.698489 L138.502391,200.698489 Z M138.502391,198.170993 C135.897402,198.170993 133.783956,200.304593 133.783956,202.936356 C133.783956,205.565222 135.897402,207.697857 138.502391,207.697857 C141.108336,207.697857 143.220826,205.565222 143.220826,202.936356 C143.217,200.299766 141.108336,198.170993 138.502391,198.170993 L138.502391,198.170993 Z" id="Fill-74" fill="#42C2B3" sketch:type="MSShapeGroup"></path>
            <g id="device_smart-phone_vertical_glyph">
                <use fill="#42C2B3" fill-rule="evenodd" sketch:type="MSShapeGroup" xlink:href="#path-3"></use>
                <use fill="none" xlink:href="#path-3"></use>
            </g>
            <path d="M88.0737599,244 C86.7092015,244 85.4248571,244.251692 84.2585285,244.750326 C83.3199336,245.150184 82.4578647,245.708655 81.6944496,246.409593 C81.1901162,246.873086 80.7955006,247.338478 80.500461,247.738336 C80.2063434,247.338478 79.8126498,246.873086 79.3064724,246.409593 C78.5449013,245.708655 77.6819104,245.150184 76.7433155,244.750326 C75.5769869,244.251692 74.2926424,244 72.9262401,244 C71.4694818,244 70.0901715,244.319126 68.822423,244.95073 C67.6321224,245.544343 66.5745897,246.393447 65.6830168,247.476196 C64.8283238,248.514306 64.1580306,249.722427 63.6970312,251.067316 C63.2341877,252.407456 63,253.81788 63,255.258696 C63,256.598837 63.2452517,257.946575 63.7274571,259.26392 C64.1331366,260.373264 64.7176839,261.487356 65.465425,262.576754 C66.8050894,264.530452 68.4029135,266.033955 69.4595242,267.029324 L69.5637101,267.127152 C70.4248571,267.938264 72.2974368,269.398077 74.2806565,270.94242 C75.5622349,271.940639 76.8880693,272.97305 77.9290061,273.824053 C79.2825005,274.931497 79.664208,275.334204 79.7711599,275.468123 C80.0984695,275.775852 80.1630094,276 80.500461,276 C80.8388346,276 80.9577725,275.686572 81.2316061,275.468123 C81.337636,275.334204 81.7193435,274.931497 83.0737599,273.824053 C84.1146967,272.97305 85.4396091,271.940639 86.7202655,270.94242 C88.7025632,269.398077 90.5769869,267.938264 91.4362899,267.127152 L91.5386318,267.032174 C92.5961645,266.036804 94.1949106,264.534251 95.534575,262.579603 C96.2823161,261.490205 96.8677854,260.375163 97.2725429,259.26582 C97.7547483,257.947525 98,256.598837 98,255.258696 C98,253.81788 97.7658123,252.407456 97.3048128,251.067316 C96.8419694,249.722427 96.1744422,248.514306 95.3188272,247.476196 C94.4272543,246.393447 93.3706436,245.544343 92.178499,244.95073 C90.9125945,244.319126 89.5314402,244 88.0737599,244 L88.0737599,244 Z M88.0737599,246.450433 C89.1690946,246.450433 90.2026554,246.687878 91.1430942,247.15707 C92.0337452,247.600617 92.8285082,248.240769 93.5052554,249.06138 C94.1737046,249.872492 94.6974,250.823222 95.0634335,251.886026 C95.4340771,252.963077 95.6212429,254.097115 95.6212429,255.258696 C95.6212429,256.303455 95.4285451,257.36056 95.0468375,258.40152 C94.7139959,259.316158 94.2234925,260.245993 93.5919233,261.165381 C92.3997787,262.903479 90.9172045,264.298706 89.9343537,265.221892 L89.8338558,265.31877 C89.0538447,266.052 87.137931,267.545055 85.2847133,268.987772 L85.2791813,268.99347 C83.9883828,269.999288 82.6560944,271.037398 81.5948737,271.904547 C81.1430942,272.274012 80.7862807,272.575092 80.500461,272.824884 C80.2155633,272.575092 79.8587498,272.274012 79.4069703,271.904547 C78.3466716,271.037398 77.0097732,269.997388 75.7189747,268.990621 L75.7152867,268.987772 C73.863913,267.545055 71.9479993,266.052 71.1689102,265.31877 L71.0638023,265.219043 C70.0827955,264.296806 68.5983773,262.899679 67.4080767,261.163481 C66.7783515,260.243144 66.2887701,259.314259 65.9531625,258.39962 C65.5732989,257.359611 65.3787571,256.302505 65.3787571,255.258696 C65.3787571,254.097115 65.5677669,252.963077 65.9393325,251.886026 C66.304444,250.823222 66.8281394,249.872492 67.4965886,249.06138 C68.1724138,248.240769 68.9680988,247.600617 69.8578278,247.15707 C70.7991886,246.687878 71.8309054,246.450433 72.9262401,246.450433 C73.9773188,246.450433 74.9555597,246.640389 75.8323806,247.013653 C76.5238798,247.309035 77.160059,247.721239 77.7234003,248.23792 C78.0470219,248.537101 78.3466716,248.868574 78.6075973,249.221892 L80.500461,251.789149 L82.3942467,249.221892 C82.6560944,248.868574 82.9529781,248.537101 83.2784437,248.23792 C83.840863,247.721239 84.4761202,247.309035 85.1676194,247.013653 C86.0444403,246.640389 87.0226812,246.450433 88.0737599,246.450433 L88.0737599,246.450433 Z" id="Fill-85" fill="#42C2B3" sketch:type="MSShapeGroup"></path>
            <path d="M7.65844623,265.097115 C8.74269518,264.869565 9.82357689,264.896654 10.899969,265.177299 C11.976361,265.457944 12.9393896,265.992144 13.7879322,266.782067 C14.1964898,267.176487 14.5421924,267.619667 14.8261623,268.112691 C15.1078875,268.605716 15.3233904,269.118245 15.472671,269.648111 C15.6230741,270.180144 15.7005204,270.718678 15.7083773,271.264798 C15.7173566,271.809833 15.6657257,272.334281 15.5557294,272.835975 C14.4871942,273.063524 13.4108022,273.001761 12.3265532,272.652851 C11.2423043,272.302858 10.2837654,271.727482 9.44981405,270.923473 C8.6012714,270.134634 8.03220907,269.221184 7.74150464,268.180956 C7.4496778,267.141812 7.42273994,266.114588 7.65844623,265.097115 Z M33.3414528,265.097115 C33.5771591,266.114588 33.5502212,267.141812 33.2595168,268.180956 C32.9688124,269.221184 32.3986276,270.134634 31.550085,270.923473 C30.7172561,271.727482 29.7587172,272.302858 28.6744682,272.652851 C27.5902193,273.001761 26.5127048,273.063524 25.445292,272.835975 C25.3341733,272.334281 25.2836648,271.809833 25.2915217,271.264798 C25.2993786,270.718678 25.3779474,270.180144 25.527228,269.648111 C25.6765087,269.118245 25.893134,268.605716 26.1748591,268.112691 C26.4588291,267.619667 26.8045316,267.176487 27.2130892,266.782067 C28.0616319,265.992144 29.0246604,265.457944 30.0999301,265.177299 C31.1763221,264.896654 32.2572039,264.869565 33.3414528,265.097115 Z M29.558928,248.088311 C28.5846753,248.323446 27.682257,248.274685 26.8516729,248.774211 C26.0199664,249.272653 25.2791752,249.864283 24.6304217,250.550183 C24.4676721,249.198971 24.0265646,247.956115 23.3070992,246.820534 C22.5876338,245.684952 21.6594,244.744413 20.5235201,244 C19.4280471,244.744413 18.5200167,245.669782 17.8005513,246.776107 C17.0799635,247.881349 16.6287543,249.100366 16.4458013,250.433157 C15.7970478,249.747257 15.0618686,249.164296 14.2402638,248.685358 C13.4197815,248.205337 12.5218527,247.847758 11.5487225,247.612624 C11.0413927,248.768793 10.7877279,254.961398 10.7877279,256.194501 C10.7877279,257.114452 10.9201724,257.995395 11.1828165,258.838413 C11.4465831,259.679263 11.812489,260.463768 12.2782896,261.187593 C12.7452125,261.912502 13.3075404,262.566978 13.967518,263.155357 C14.6263732,263.742652 15.3514506,264.231342 16.1416279,264.623595 C17.1271047,265.118786 18.1900278,265.424353 19.3281525,265.548964 L19.3281525,276 L21.8311289,276 L21.8311289,265.546797 C22.295807,265.492618 22.7481386,265.405933 23.1847564,265.284573 C23.7830014,265.118786 24.3666551,264.898822 24.9334726,264.623595 L24.9334726,264.593255 C25.7258947,264.203169 26.4453601,263.713396 27.0941136,263.126101 C27.7428672,262.538805 28.3063174,261.882162 28.7833421,261.157253 C29.2592443,260.433428 29.6240278,259.650007 29.8776927,258.808073 C30.1313576,257.966138 30.25819,257.094948 30.25819,256.194501 C30.25819,254.961398 30.0247285,249.204388 29.558928,248.088311 Z" id="Fill-89" fill="#42C2B3" sketch:type="MSShapeGroup"></path>
            <path d="M197.709646,268.865059 C197.709646,269.327052 197.318957,269.70144 196.840491,269.70144 C196.357722,269.70144 195.968754,269.327052 195.968754,268.865059 L195.968754,258.91692 C195.968754,258.455753 196.357722,258.081365 196.840491,258.081365 C197.318957,258.081365 197.709646,258.455753 197.709646,258.91692 L197.709646,268.865059 L197.709646,268.865059 Z M209.338258,277.450361 L206.167992,277.450361 C206.213601,277.280936 206.245441,277.107378 206.245441,276.92473 L206.245441,258.125994 C206.245441,256.949111 205.248924,255.992892 204.023501,255.992892 L195.976499,255.992892 C194.751936,255.992892 193.754559,256.949111 193.754559,258.125994 L193.754559,276.92473 C193.754559,277.107378 193.786399,277.280936 193.831148,277.450361 L190.660882,277.450361 C190.021493,277.450361 189.5,277.950371 189.5,278.566086 L189.5,278.885101 C189.5,279.49999 190.021493,280 190.660882,280 L209.338258,280 C209.978507,280 210.5,279.49999 210.5,278.885101 L210.5,278.566086 C210.5,277.949544 209.978507,277.450361 209.338258,277.450361 L209.338258,277.450361 Z M199.129554,252.936631 C198.567615,252.634145 197.929087,252.062233 197.96609,251.027501 C198.04354,248.834893 200.83,249.334077 200.603676,247.677845 C200.416936,246.329056 203.435746,251.224199 201.811888,252.793653 C203.534709,252.313478 204.372884,250.993616 204.244663,248.928284 C204.028665,245.424079 200.787833,240 199.90663,240 C199.81283,240 199.679445,240.066117 199.62437,240.136366 C199.515941,240.280171 199.522825,240.486787 199.651908,240.873572 C200.20352,242.515754 199.462587,243.30668 198.433369,244.398438 C197.514302,245.376144 196.366328,246.594351 195.870651,248.786958 C195.596996,250.000207 195.763082,250.979566 196.363746,251.696936 C197.048744,252.511829 198.177786,252.823405 199.129554,252.936631 L199.129554,252.936631 Z" id="Fill-92" fill="#42C2B3" sketch:type="MSShapeGroup"></path>
            <path d="M159,260.5 C159,250.282732 150.717268,242 140.5,242 C130.282732,242 122,250.282732 122,260.5 C122,270.717268 130.282732,279 140.5,279 C150.717268,279 159,270.717268 159,260.5 Z M124,260.5 C124,251.387302 131.387302,244 140.5,244 C149.612698,244 157,251.387302 157,260.5 C157,269.612698 149.612698,277 140.5,277 C131.387302,277 124,269.612698 124,260.5 Z M132.905156,260.524507 L134.809675,260.524507 L134.809675,269.095481 L132.905156,269.095481 L132.905156,260.524507 Z M151,261.714991 C151,259.74168 149.401223,258.142903 147.427912,258.142903 L145.545049,258.142903 C145.652696,257.683652 145.761617,254.826237 145.761617,254.333864 L145.761617,253.857416 C145.761617,252.279659 144.481958,251 142.904838,251 C141.32708,251 140.048059,252.279659 140.048059,253.857416 L140.048059,254.333864 C140.048059,256.700818 138.128889,258.619351 135.761935,258.619351 L131.95226,258.619351 C131.426765,258.619351 131,259.046116 131,259.571611 L131,270.04774 C131,270.573235 131.426765,271 131.95226,271 L135.761935,271 C136.28743,271 136.714195,270.573235 136.714195,270.04774 L136.714195,260.442976 C139.679894,259.984363 141.952578,257.42823 141.952578,254.333864 L141.952578,253.857416 C141.952578,253.332558 142.37998,252.905156 142.904838,252.905156 C143.430332,252.905156 143.857097,253.332558 143.857097,253.857416 L143.857097,254.333864 C143.857097,254.441511 143.844995,257.642887 143.487659,258.41616 C143.13096,259.19007 143.648174,260.048059 144.782605,260.048059 L147.431097,260.048059 L147.431097,260.027676 L147.446384,260.049333 C148.357878,260.058887 149.095481,260.800312 149.095481,261.714991 C149.095481,261.925826 149.05153,262.125832 148.979553,262.312462 L148.983375,262.317558 L146.688398,268.775725 L146.682028,268.780821 C146.615147,268.963629 146.443804,269.095481 146.237428,269.095481 C146.232332,269.095481 146.229147,269.092296 146.224052,269.092296 L143.90487,269.092296 L143.90487,269.095481 L139.570974,269.095481 C139.045479,269.095481 138.618714,269.522246 138.618714,270.04774 C138.618714,270.573235 139.045479,271 139.570974,271 L146.237428,271 C147.213255,271 148.048314,270.41272 148.417115,269.57384 L148.424759,269.576388 L150.827383,262.8163 L150.824835,262.815026 C150.937578,262.467881 151,262.098443 151,261.714991 L151,261.714991 Z" id="Oval-35" fill="#42C2B3" sketch:type="MSShapeGroup"></path>
            <path d="M10.7218595,330.696368 L12.4895439,323.11089 C12.5500246,322.970617 12.6537057,322.845797 12.7954818,322.757432 C12.8948428,322.696409 13.002844,322.659162 13.1124161,322.6445 C13.1489401,322.649651 13.187035,322.652425 13.2255227,322.652425 L24.2864122,322.656784 L24.2781649,331.115208 C22.0337044,331.670359 20.2373506,333.317584 19.5221866,335.443087 C19.5214011,335.442294 19.5202229,335.441502 19.5194375,335.441502 C19.4475676,335.65112 19.3678431,335.916609 19.3116825,336.202308 C19.179332,336.870787 19.1926849,337.515492 19.1926849,337.515492 L19.1824739,337.515492 C19.1836521,337.533323 19.1844375,337.551154 19.1844375,337.568986 C19.1844375,337.995354 18.8290155,338.341284 18.3907272,338.341284 C17.9524389,338.341284 17.5970169,337.995354 17.5970169,337.568986 C17.5970169,337.556702 17.5974096,337.544814 17.5978023,337.53253 L17.5926968,337.53253 C17.5926968,337.53253 17.4654518,336.914375 17.4642736,336.236386 C17.4630954,335.380082 17.5758094,334.934297 17.5758094,334.934297 L17.5848422,334.934297 C17.7246546,334.227778 17.9724682,333.558506 18.3117882,332.943917 L18.3035408,332.937577 C18.3597014,332.827022 18.3915127,332.703391 18.3915127,332.571835 C18.3915127,332.115351 18.0113486,331.745251 17.5428199,331.745251 L11.5544503,331.73891 L11.5520939,331.73891 L11.5520939,331.736929 C11.2634362,331.751987 10.9751713,331.617261 10.811795,331.360885 C10.68023,331.154833 10.6578443,330.913119 10.7281432,330.698349 L10.7218595,330.696368 L10.7218595,330.696368 Z M27.6737213,330.907175 L25.9779067,330.911137 L25.9841904,322.657577 L27.6815759,322.658369 L27.6737213,330.907175 L27.6737213,330.907175 Z M9.37911058,332.224321 C9.84253374,332.951842 10.6327095,333.361172 11.4503764,333.384947 C11.4845441,333.388909 11.5191044,333.391287 11.5544503,333.391287 L16.2900065,333.396042 C15.9695376,334.290386 15.7951648,335.250904 15.7951648,336.251047 C15.7951648,336.90011 15.8686056,337.53253 16.0076326,338.140779 L16.0202,338.139194 C16.273119,339.205116 17.2541623,340 18.426073,340 C19.7900295,340 20.8955686,338.924172 20.8955686,337.596724 C20.8955686,337.516284 20.8912486,337.43743 20.8833939,337.358575 C20.9674385,334.817006 23.0178895,332.758074 25.6028482,332.578571 L25.6028482,332.56391 L28.4163765,332.55757 C28.4517223,332.562325 28.4870682,332.564702 28.5228067,332.564702 C28.9917281,332.564702 29.3722849,332.194998 29.3722849,331.738514 L29.3797468,321.821086 C29.3797468,321.364602 28.9999755,320.994898 28.5306614,320.994898 C28.4831409,320.994898 28.4364058,320.99886 28.390849,321.006389 L25.2686337,321.0052 C25.2250405,320.998464 25.1810545,320.994898 25.1358904,320.994898 C25.091119,320.994898 25.0467404,320.998464 25.0035399,321.0052 L13.22945,320.992916 C12.7675978,320.991728 12.3002474,321.115359 11.8819883,321.374112 C11.4790458,321.623355 11.1735007,321.966511 10.9775277,322.356028 C10.9292217,322.427353 10.8915195,322.508189 10.8679556,322.595365 L9.03389961,330.474862 C9.00915753,330.564416 9.0013029,330.654365 9.0075866,330.741937 C8.96752799,331.244386 9.08534744,331.763478 9.37911058,332.224321 Z M30.2779,309.303837 L28.5102384,316.888762 C28.4497585,317.029429 28.3460787,317.15385 28.2043045,317.242212 C28.1049447,317.303234 27.996945,317.340481 27.8873743,317.355142 C27.8508507,317.350387 27.8127563,317.347614 27.7742691,317.347614 L16.7135221,317.343255 L16.7217694,308.884609 C18.9665936,308.329866 20.7625315,306.682279 21.4776864,304.557216 C21.4784718,304.558008 21.47965,304.558404 21.4804354,304.558801 C21.5523044,304.348791 21.6320278,304.083306 21.6881877,303.79801 C21.8205365,303.129544 21.8071838,302.484853 21.8071838,302.484853 L21.8173947,302.484457 C21.8162165,302.467022 21.8154311,302.449191 21.8154311,302.43136 C21.8154311,302.005001 22.1708485,301.659079 22.6091312,301.659079 C23.0474139,301.659079 23.4028313,302.005001 23.4028313,302.43136 C23.4028313,302.443644 23.4024385,302.455531 23.4020458,302.467419 L23.4071513,302.467419 C23.4071513,302.467419 23.5343946,303.086354 23.5355728,303.763933 C23.536751,304.619822 23.4240385,305.065995 23.4240385,305.065995 L23.4150058,305.065598 C23.2751952,305.772103 23.0273848,306.441362 22.6880692,307.055938 L22.6963164,307.062674 C22.6401566,307.17283 22.6083457,307.296855 22.6083457,307.428408 C22.6083457,307.884883 22.9885049,308.254579 23.4570275,308.254579 L29.44532,308.260919 L29.4476764,308.260919 L29.4476764,308.263297 C29.7363303,308.248239 30.0245915,308.382963 30.1879657,308.638937 C30.319529,308.845381 30.3419144,309.087091 30.2716164,309.301855 L30.2779,309.303837 Z M13.3262567,309.093034 L15.0224422,309.089072 L15.0157658,317.342462 L13.3187949,317.34167 L13.3262567,309.093034 L13.3262567,309.093034 Z M31.6206316,307.775519 C31.1572145,307.048805 30.3670489,306.639088 29.5493925,306.615313 C29.5152253,306.611351 29.4806654,306.608577 29.44532,306.608577 L24.7102175,306.603822 C25.0302896,305.709893 25.2046601,304.749395 25.2046601,303.748876 C25.2046601,303.099826 25.1312203,302.467815 24.9921951,301.859579 L24.9796279,301.861164 C24.7271048,300.794868 23.7456814,300 22.5737858,300 C21.2098469,300 20.1043221,301.076202 20.1043221,302.403623 C20.1043221,302.483665 20.108642,302.562914 20.1164966,302.641767 C20.0324531,305.183283 17.9820285,307.241777 15.3971032,307.421672 L15.3971032,307.435937 L12.5840038,307.442277 C12.5486584,307.437918 12.513313,307.435541 12.4767895,307.435541 C12.0082669,307.435541 11.6281077,307.805237 11.6281077,308.261712 L11.6202532,318.17854 C11.6202532,318.63541 12.0000196,319.004711 12.4693277,319.004711 C12.5168476,319.004711 12.563582,319.000748 12.6091383,318.994012 L15.7313133,318.994409 C15.774906,319.001541 15.8188913,319.004711 15.8640549,319.004711 C15.9088257,319.004711 15.9532038,319.001541 15.9964037,318.994409 L27.7707345,319.007088 C28.2321881,319.007881 28.6995325,318.884649 29.1177862,318.625504 C29.5211162,318.376266 29.8262646,318.033118 30.0222351,317.644005 C30.0705405,317.572285 30.1082422,317.491847 30.1318058,317.404277 L31.9658382,309.525338 C31.9905799,309.435786 31.9984345,309.345442 31.9925436,309.258268 C32.0322089,308.755433 31.914391,308.236748 31.6206316,307.775519 L31.6206316,307.775519 Z" id="Fill-97" fill="#42C2B3" sketch:type="MSShapeGroup"></path>
            <path d="M128.091331,313.292193 C127.852941,312.485075 127.657895,311.634328 127.571207,310.93628 L122.5,310.93628 C122.868421,311.787026 123.085139,312.332377 123.518576,313.597589 L128.134675,326.729621 C128.503096,327.776693 128.719814,328.51837 128.828173,329.085534 L134.462848,329.085534 C134.571207,328.540184 134.787926,327.798507 135.156347,326.729621 L139.750774,313.597589 C140.29257,312.092423 140.487616,311.5907 140.791022,310.93628 L135.698142,310.93628 C135.633127,311.677956 135.481424,312.288749 135.19969,313.292193 L132.057276,323.78473 C131.948916,324.199196 131.905573,324.33008 131.645511,325.289897 C131.407121,324.373708 131.407121,324.373708 131.233746,323.78473 L128.091331,313.292193 Z M141.744582,323.610218 C141.896285,324.613662 142.004644,325.115385 142.221362,325.638921 C142.676471,326.882319 143.478328,327.820321 144.56192,328.431114 C145.732198,329.107348 147.552632,329.5 149.394737,329.5 C151.930341,329.5 153.837461,328.867394 155.094427,327.645809 C156.091331,326.664179 156.611455,325.268083 156.611455,323.632032 C156.611455,321.625144 155.831269,320.163605 154.270898,319.181975 C153.447368,318.658439 152.407121,318.2876 150.760062,317.938576 C148.202786,317.41504 148.202786,317.41504 147.76935,317.218714 C147.075851,316.891504 146.750774,316.43341 146.750774,315.822618 C146.750774,314.819173 147.726006,314.099311 149.047988,314.099311 C150.695046,314.099311 151.475232,314.688289 151.735294,316.1062 L156.329721,315.604478 C156.047988,314.361079 155.787926,313.706659 155.24613,312.986797 C154.075851,311.350746 151.973684,310.5 149.221362,310.5 C144.952012,310.5 142.264706,312.615959 142.264706,315.975316 C142.264706,317.74225 143.001548,319.203789 144.366873,320.163605 C145.168731,320.730769 145.862229,320.992537 147.856037,321.428817 C150.109907,321.952354 150.651703,322.105052 151.106811,322.323192 C151.670279,322.58496 152.017028,323.173938 152.017028,323.850172 C152.017028,325.071757 151.020124,325.813433 149.351393,325.813433 C148.24613,325.813433 147.335913,325.442595 146.815789,324.788175 C146.490712,324.351894 146.339009,323.959242 146.252322,323.173938 L141.744582,323.610218 Z" id="VS" fill="#42C2B3" sketch:type="MSShapeGroup"></path>
            <path d="M75.5776006,314.28944 C75.1854256,314.039567 74.7281661,313.859464 74.2058224,313.755621 C73.6851474,313.650155 73.0359726,313.594989 72.2599666,313.594989 L70.2073058,313.594989 L70.2073058,320.836424 L71.8961617,320.836424 C72.8974597,320.836424 73.7068422,320.756919 74.3259781,320.599532 C74.9434452,320.442145 75.455776,320.159821 75.8646393,319.752561 C76.2317819,319.38911 76.4987947,318.991586 76.6656777,318.56161 C76.8325607,318.130013 76.9160022,317.628645 76.9160022,317.05264 C76.9160022,316.427959 76.8058594,315.884405 76.5839051,315.420356 C76.3636195,314.959552 76.0281847,314.581498 75.5776006,314.28944 L75.5776006,314.28944 Z M92.2241795,329.648486 L85.4287039,321.214478 L84.3389579,322.407051 L84.3389579,329.648486 L81.8607454,329.648486 L81.8607454,311.527861 L84.3389579,311.527861 L84.3389579,319.864517 L91.973855,311.527861 L94.9910996,311.527861 L87.2811051,319.619512 L95.4416837,329.648486 L92.2241795,329.648486 L92.2241795,329.648486 Z M79.0637864,319.22361 C78.7750788,319.927797 78.3762284,320.524895 77.8672353,321.021394 C77.2247358,321.63634 76.4704246,322.103635 75.602633,322.418409 C74.7348415,322.736429 73.6367513,322.893816 72.3100315,322.893816 L70.2073058,322.893816 L70.2073058,329.648486 L67.7290933,329.648486 L67.7290933,311.527861 L72.4101613,311.527861 C73.5115891,311.527861 74.4511404,311.617102 75.2271463,311.795582 C76.0031522,311.97244 76.6873725,312.261254 77.2798072,312.658778 C77.9723716,313.121204 78.5147413,313.708567 78.9069164,314.417621 C79.2990914,315.128297 79.4960134,315.985003 79.4960134,316.990983 C79.4943445,317.779542 79.3508251,318.524292 79.0637864,319.22361 L79.0637864,319.22361 Z M95.1579826,302.5 L64.8420174,302.5 C63.2733173,302.5 62,303.736382 62,305.261578 L62,334.736799 C62,336.261995 63.2733173,337.5 64.8420174,337.5 L95.1579826,337.5 C96.7266827,337.5 98,336.261995 98,334.736799 L98,305.261578 C98,303.736382 96.7266827,302.5 95.1579826,302.5 L95.1579826,302.5 Z" id="Fill-83" fill="#42C2B3" sketch:type="MSShapeGroup"></path>
            <path d="M209.748,316.078 L206.017,316.078 L206.017,317.373 L209.251,317.373 L211.123,319.626 L188.878,319.626 L190.75,317.373 L193.984,317.373 L193.984,316.078 L190.252,316.078 L186.292,320.038 L213.708,320.038 L209.748,316.078 L209.748,316.078 Z M198.977,315.412 L196.33,312.118 L198.653,313.394 L203.965,309.186 L198.977,315.412 L198.977,315.412 Z M194.67,318.864 L205.331,318.864 L205.331,307.168 L194.67,307.168 L194.67,318.864 Z M188.275,321.714 L211.725,321.714 L211.725,331.613 L188.275,331.613 L188.275,321.714 Z M186.292,332.832 L213.708,332.832 L213.708,320.038 L186.292,320.038 L186.292,332.832 Z" id="Fill-75" fill="#42C2B3" sketch:type="MSShapeGroup"></path>
            <path d="M19.6055626,85.4753204 C16.971248,85.5206384 14.8011919,83.3553478 14.757228,80.640804 C14.7132642,77.9262602 16.8120989,75.688461 19.4464134,75.6431431 C22.0798487,75.5978252 24.2507841,77.7622093 24.294748,80.4776595 C24.3387118,83.1912969 22.2389979,85.4300025 19.6055626,85.4753204 L19.6055626,85.4753204 Z M19.3927775,72.3403726 C14.9893572,72.4156003 11.4792825,76.156142 11.5531418,80.6960919 C11.6261218,85.2351354 15.2557782,88.8542251 19.6591985,88.7780909 C24.0617395,88.7028632 27.5726935,84.9605088 27.4988342,80.4214653 C27.4249749,75.8815154 23.7961978,72.2642385 19.3927775,72.3403726 L19.3927775,72.3403726 Z M36.3637071,82.5604714 C34.2560796,85.2079447 29.4130207,91.8261747 19.4877394,91.9974764 C11.2594632,92.1388684 5.94774957,86.3064512 2.54494674,82.6284483 C1.80371604,81.826321 1.78876833,79.8151114 2.68475182,78.8153979 C5.56086759,75.592387 10.7310176,69.1463651 19.1149259,69.0022541 C27.7221706,68.8527049 34.0960511,76.1860518 36.4059124,78.6305008 C37.0820766,79.3456177 37.3221192,81.3595463 36.3637071,82.5604714 L36.3637071,82.5604714 Z" id="Fill-45" fill="#42C2B3" sketch:type="MSShapeGroup"></path>
            <path d="M12.3125,16.6191406 L19.0625,16.6191406 L19.0625,23.4042969 L18.21875,23.4042969 L18.21875,22.9589844 L13.15625,22.9589844 L13.15625,23.4042969 L12.3125,23.4042969 L12.3125,16.6191406 Z M18.21875,17.4160156 L13.15625,17.4160156 L13.15625,22.1621094 L18.21875,22.1621094 L18.21875,17.4160156 Z M8.1875,22.3378906 C8.67968996,22.2050775 9.18359117,22.0644539 9.69921875,21.9160156 L9.69921875,19.1855469 L8.28125,19.1855469 L8.28125,18.4003906 L9.69921875,18.4003906 L9.69921875,16.1386719 L10.5664062,16.1386719 L10.5664062,18.4003906 L11.8203125,18.4003906 L11.8203125,19.1855469 L10.5664062,19.1855469 L10.5664062,21.6582031 C10.9804708,21.52539 11.4062478,21.3886726 11.84375,21.2480469 C11.8515625,21.5527359 11.8749998,21.8574204 11.9140625,22.1621094 C11.4609352,22.3027351 11.011721,22.4472649 10.5664062,22.5957031 L10.5664062,26.1933594 C10.5664062,27.0293011 10.19141,27.4472656 9.44140625,27.4472656 L8.38671875,27.4472656 C8.35546859,27.1503891 8.30859406,26.8457047 8.24609375,26.5332031 C8.62109563,26.5488282 8.93749871,26.5566406 9.1953125,26.5566406 C9.53125168,26.5566406 9.69921875,26.3847673 9.69921875,26.0410156 L9.69921875,22.8769531 C9.23827895,23.0253914 8.77343984,23.1816398 8.3046875,23.3457031 L8.1875,22.3378906 Z M13.53125,18.8105469 L15.2539062,18.8105469 C15.2617188,18.4824202 15.265625,18.1347675 15.265625,17.7675781 L16.0507812,17.7675781 C16.0507812,18.1191424 16.046875,18.4667952 16.0390625,18.8105469 L17.8320312,18.8105469 L17.8320312,19.5136719 L16.015625,19.5136719 C15.9921874,19.7089854 15.9531253,19.8925773 15.8984375,20.0644531 C16.6406287,20.3691421 17.3203094,20.6738266 17.9375,20.9785156 L17.4804688,21.7285156 C16.9257785,21.3769514 16.3046909,21.0253924 15.6171875,20.6738281 C15.2578107,21.1972682 14.6796915,21.5878893 13.8828125,21.8457031 C13.7343743,21.5644517 13.5859382,21.3261729 13.4375,21.1308594 C14.4921928,20.8417954 15.0820306,20.3027383 15.2070312,19.5136719 L13.53125,19.5136719 L13.53125,18.8105469 Z M13.3085938,23.9199219 L14.1289062,23.9199219 L14.1289062,25.7714844 C14.1289062,26.2714869 14.3632789,26.5214844 14.8320312,26.5214844 L16.0625,26.5214844 C16.6171903,26.5214844 16.9414058,26.3261738 17.0351562,25.9355469 C17.1210942,25.5683575 17.191406,25.1269557 17.2460938,24.6113281 C17.5429702,24.7441413 17.8242174,24.8613276 18.0898438,24.9628906 C17.9960933,25.4628931 17.898438,25.904295 17.796875,26.2871094 C17.6171866,26.9746128 17.0742233,27.3183594 16.1679688,27.3183594 L14.6796875,27.3183594 C13.7656204,27.3183594 13.3085938,26.830083 13.3085938,25.8535156 L13.3085938,23.9199219 Z M11.9960938,23.8378906 L12.78125,24.0722656 C12.4999986,25.1035208 12.1914079,26.0253866 11.8554688,26.8378906 C11.6054675,26.71289 11.3359389,26.6035161 11.046875,26.5097656 C11.3984393,25.791012 11.7148423,24.9003959 11.9960938,23.8378906 L11.9960938,23.8378906 Z M17.9140625,24.0605469 L18.640625,23.7207031 C19.0625021,24.4941445 19.468748,25.3066364 19.859375,26.1582031 L19.0742188,26.5449219 C18.7226545,25.7167927 18.3359396,24.888676 17.9140625,24.0605469 L17.9140625,24.0605469 Z M14.6328125,23.5917969 L15.2539062,23.1230469 C15.7851589,23.6699246 16.249998,24.2050755 16.6484375,24.7285156 L15.9453125,25.2910156 C15.648436,24.8300758 15.2109404,24.2636752 14.6328125,23.5917969 L14.6328125,23.5917969 Z M24.640625,21.2363281 L26.234375,21.2363281 L26.3984375,17.6503906 L24.6640625,17.6503906 L24.6640625,16.8066406 L31.0742188,16.8066406 L30.7460938,26.2753906 L31.71875,26.2753906 L31.71875,27.1191406 L24.1953125,27.1191406 L24.1953125,26.2753906 L26.0234375,26.2753906 L26.1992188,22.0800781 L24.640625,22.0800781 L24.640625,21.2363281 Z M24.3945312,24.6582031 C24.3945312,25.0019548 24.4140623,25.3261704 24.453125,25.6308594 C23.9999977,25.8730481 23.375004,26.2285133 22.578125,26.6972656 C22.4374993,26.775391 22.2734384,26.9082022 22.0859375,27.0957031 L21.4648438,26.2871094 C21.714845,26.0371081 21.8398438,25.7441423 21.8398438,25.4082031 L21.8398438,23.0761719 L20.2695312,23.0761719 L20.2695312,22.2675781 L21.8398438,22.2675781 L21.8398438,20.8027344 L21.0546875,20.8027344 L21.0546875,19.9941406 L24.1484375,19.9941406 L24.1484375,20.8027344 L22.6953125,20.8027344 L22.6953125,22.2675781 L24.5,22.2675781 L24.5,23.0761719 L22.6953125,23.0761719 L22.6953125,25.6425781 C22.9609388,25.5019524 23.5273394,25.1738307 24.3945312,24.6582031 L24.3945312,24.6582031 Z M26.9257812,26.2753906 L29.84375,26.2753906 L29.984375,22.0800781 L27.1015625,22.0800781 L26.9257812,26.2753906 Z M30.1484375,17.6503906 L27.2890625,17.6503906 L27.1367188,21.2363281 L30.0195312,21.2363281 L30.1484375,17.6503906 Z M20.1640625,19.6542969 C20.9218788,18.583979 21.5273415,17.3769598 21.9804688,16.0332031 L22.859375,16.3261719 C22.6484364,16.849612 22.4218762,17.3535132 22.1796875,17.8378906 L24.4296875,17.8378906 L24.4296875,18.6464844 L21.7695312,18.6464844 C21.4257795,19.2793 21.0546895,19.8808565 20.65625,20.4511719 C20.5078118,20.1699205 20.3437509,19.9042981 20.1640625,19.6542969 L20.1640625,19.6542969 Z" id="" fill="#42C2B3" sketch:type="MSShapeGroup"></path>
        </g>
    </g>
</svg>