<?xml version="1.0" encoding="UTF-8" standalone="no"?>
<svg width="60px" height="380px" viewBox="0 0 60 380" version="1.1" xmlns="http://www.w3.org/2000/svg" xmlns:xlink="http://www.w3.org/1999/xlink" xmlns:sketch="http://www.bohemiancoding.com/sketch/ns">
    <!-- Generator: Sketch 3.2.1 (9971) - http://www.bohemiancoding.com/sketch -->
    <title>ico_pro</title>
    <desc>Created with Sketch.</desc>
    <defs></defs>
    <g id="Page-1" stroke="none" stroke-width="1" fill="none" fill-rule="evenodd" sketch:type="MSPage">
        <g id="dexian" sketch:type="MSArtboardGroup">
            <g id="MINIMIZE-3" sketch:type="MSLayerGroup" transform="translate(3.000000, 70.000000)" fill="#979797">
                <path d="M3.195,6.211 C3.532,6.211 3.804,5.939 3.804,5.602 C3.804,5.265 3.532,4.993 3.195,4.993 L0.898,4.993 C0.561,4.993 0.289,5.265 0.289,5.602 L0.289,18.977 C0.289,19.314 0.561,19.586 0.898,19.586 L14.273,19.586 C14.61,19.586 14.882,19.314 14.882,18.977 L14.882,16.683 C14.882,16.346 14.61,16.074 14.273,16.074 C13.936,16.074 13.664,16.346 13.664,16.683 L13.664,18.368 L1.507,18.368 L1.507,6.211 L3.195,6.211 L3.195,6.211 Z" id="Shape" sketch:type="MSShapeGroup"></path>
                <path d="M19.178,0.089 L5.802,0.089 C5.465,0.089 5.193,0.361 5.193,0.698 L5.193,14.073 C5.193,14.41 5.465,14.682 5.802,14.682 L19.177,14.682 C19.514,14.682 19.786,14.41 19.786,14.073 L19.786,0.698 C19.787,0.361 19.514,0.089 19.178,0.089 L19.178,0.089 L19.178,0.089 Z M18.568,13.464 L6.411,13.464 L6.411,1.308 L18.568,1.308 L18.568,13.464 L18.568,13.464 Z" id="Shape_1_" sketch:type="MSShapeGroup"></path>
            </g>
            <g id="TRASH-BIN-3" sketch:type="MSLayerGroup" transform="translate(3.000000, 104.000000)" fill="#979797">
                <path d="M0.785,4.175 L2.675,4.175 L3.555,19.676 C3.573,19.998 3.84,20.251 4.163,20.251 L15.7,20.251 C16.023,20.251 16.29,19.998 16.308,19.676 L17.174,4.176 L19.065,4.176 C19.402,4.176 19.674,3.903 19.674,3.567 C19.674,3.231 19.402,2.958 19.065,2.958 L16.786,2.958 C16.752,2.958 16.723,2.972 16.691,2.977 C16.659,2.972 16.63,2.958 16.598,2.958 L13.401,2.958 L13.401,1.362 C13.401,1.026 13.129,0.753 12.792,0.753 L7.058,0.753 C6.721,0.753 6.449,1.026 6.449,1.362 L6.449,2.957 L3.251,2.957 C3.223,2.957 3.198,2.97 3.171,2.973 C3.143,2.969 3.118,2.957 3.089,2.957 L0.786,2.957 C0.449,2.957 0.177,3.23 0.177,3.566 C0.177,3.902 0.448,4.175 0.785,4.175 L0.785,4.175 L0.785,4.175 Z M7.668,1.971 L12.182,1.971 L12.182,2.956 L7.668,2.956 L7.668,1.971 L7.668,1.971 Z M15.953,4.175 L15.123,19.032 L4.739,19.032 L3.896,4.175 L15.953,4.175 L15.953,4.175 Z" id="Shape_2_" sketch:type="MSShapeGroup"></path>
                <path d="M6.908,17.89 C6.92,17.89 6.931,17.89 6.943,17.889 C7.279,17.87 7.536,17.582 7.516,17.246 L6.876,5.953 C6.857,5.616 6.561,5.363 6.233,5.379 C5.896,5.397 5.64,5.686 5.659,6.021 L6.3,17.315 C6.319,17.639 6.587,17.89 6.908,17.89 L6.908,17.89 L6.908,17.89 Z" id="Shape_3_" sketch:type="MSShapeGroup"></path>
                <path d="M12.885,17.889 C12.897,17.89 12.908,17.89 12.92,17.89 C13.241,17.89 13.509,17.64 13.527,17.315 L14.168,6.021 C14.187,5.685 13.93,5.397 13.595,5.378 C13.264,5.364 12.972,5.616 12.952,5.952 L12.311,17.246 C12.293,17.582 12.55,17.87 12.885,17.889 L12.885,17.889 L12.885,17.889 Z" id="Shape_4_" sketch:type="MSShapeGroup"></path>
                <path d="M9.925,17.89 C10.262,17.89 10.534,17.617 10.534,17.281 L10.534,5.987 C10.534,5.651 10.262,5.378 9.925,5.378 C9.588,5.378 9.316,5.65 9.316,5.987 L9.316,17.28 C9.316,17.617 9.588,17.89 9.925,17.89 L9.925,17.89 L9.925,17.89 Z" id="Shape_5_" sketch:type="MSShapeGroup"></path>
            </g>
            <g id="GRAPHIC-2" sketch:type="MSLayerGroup" transform="translate(0.000000, 38.000000)" fill="#979797">
                <path d="M22.785,0.797 C21.703,0.797 20.824,1.677 20.824,2.758 C20.824,3.021 20.878,3.271 20.972,3.501 L15.166,8.905 C14.855,8.697 14.482,8.575 14.081,8.575 C13.877,8.575 13.68,8.608 13.491,8.668 L11.636,6.33 C11.775,6.058 11.856,5.759 11.856,5.444 C11.856,4.363 10.976,3.483 9.895,3.483 C8.814,3.483 7.934,4.363 7.934,5.444 C7.934,5.543 7.952,5.638 7.967,5.735 L3.282,9.408 C2.979,9.216 2.622,9.1 2.236,9.1 C1.154,9.1 0.275,9.98 0.275,11.061 C0.275,12.143 1.155,13.023 2.236,13.023 C3.317,13.023 4.197,12.143 4.197,11.061 C4.197,10.861 4.158,10.672 4.103,10.491 L8.631,6.94 C8.643,6.95 8.652,6.964 8.664,6.973 C9.011,7.253 9.448,7.407 9.894,7.407 C10.153,7.407 10.405,7.356 10.638,7.26 L12.422,9.508 C12.232,9.814 12.118,10.163 12.118,10.536 C12.118,11.618 12.998,12.498 14.079,12.498 C15.16,12.498 16.04,11.618 16.04,10.536 C16.04,10.355 16.007,10.184 15.962,10.018 L21.895,4.496 C22.163,4.634 22.462,4.719 22.784,4.719 C23.865,4.719 24.745,3.839 24.745,2.758 C24.745,1.677 23.867,0.797 22.785,0.797 L22.785,0.797 L22.785,0.797 Z M2.236,11.664 C1.903,11.664 1.633,11.394 1.633,11.06 C1.633,10.728 1.903,10.457 2.236,10.457 C2.569,10.457 2.84,10.727 2.84,11.06 C2.84,11.393 2.569,11.664 2.236,11.664 L2.236,11.664 L2.236,11.664 Z M9.517,5.915 C9.374,5.799 9.291,5.628 9.291,5.444 C9.291,5.112 9.561,4.841 9.894,4.841 C10.227,4.841 10.497,5.111 10.497,5.444 C10.497,5.605 10.435,5.756 10.321,5.87 C10.321,5.87 10.321,5.87 10.321,5.871 C10.321,5.872 10.321,5.871 10.32,5.871 C10.081,6.109 9.661,6.031 9.517,5.915 L9.517,5.915 L9.517,5.915 Z M14.08,11.14 C13.747,11.14 13.477,10.87 13.477,10.536 C13.477,10.347 13.563,10.174 13.713,10.058 C13.716,10.056 13.72,10.055 13.723,10.053 L13.724,10.052 C13.798,9.997 13.917,9.933 14.081,9.933 C14.413,9.933 14.684,10.203 14.684,10.536 C14.683,10.869 14.413,11.14 14.08,11.14 L14.08,11.14 L14.08,11.14 Z M22.785,3.361 C22.452,3.361 22.182,3.091 22.182,2.758 C22.182,2.425 22.452,2.155 22.785,2.155 C23.117,2.155 23.388,2.425 23.388,2.758 C23.388,3.091 23.118,3.361 22.785,3.361 L22.785,3.361 L22.785,3.361 Z" id="Shape_6_" sketch:type="MSShapeGroup"></path>
            </g>
            <g id="DISPLAY-2" sketch:type="MSLayerGroup" transform="translate(2.000000, 0.000000)" fill="#979797">
                <g id="Group" transform="translate(0.594927, 0.000000)" sketch:type="MSShapeGroup">
                    <path d="M19.715,0.02 L0.833,0.02 C0.485,0.02 0.204,0.306 0.204,0.661 L0.204,15.35 C0.204,15.704 0.485,15.991 0.833,15.991 L9.644,15.991 L9.644,17.963 L5.656,17.963 C5.308,17.963 5.027,18.249 5.027,18.604 C5.027,18.959 5.308,19.245 5.656,19.245 L14.892,19.245 C15.24,19.245 15.521,18.959 15.521,18.604 C15.521,18.249 15.24,17.963 14.892,17.963 L10.904,17.963 L10.904,15.991 L19.715,15.991 C20.063,15.991 20.344,15.705 20.344,15.35 L20.344,0.661 C20.344,0.307 20.063,0.02 19.715,0.02 L19.715,0.02 L19.715,0.02 Z M19.086,1.302 L19.086,10.29 L1.463,10.29 L1.463,1.302 L19.086,1.302 L19.086,1.302 Z M1.463,14.709 L1.463,11.571 L19.086,11.571 L19.086,14.709 L1.463,14.709 L1.463,14.709 Z" id="Shape_7_"></path>
                    <ellipse id="Oval" cx="10.017" cy="13.408" rx="0.576" ry="0.591"></ellipse>
                </g>
            </g>
            <g id="Shape-_x2B_-Shape" sketch:type="MSLayerGroup" transform="translate(37.000000, 70.000000)" fill="#4A4A4A">
                <path d="M3.195,6.325 C3.532,6.325 3.804,6.053 3.804,5.716 C3.804,5.379 3.532,5.107 3.195,5.107 L0.898,5.107 C0.561,5.107 0.289,5.379 0.289,5.716 L0.289,19.091 C0.289,19.428 0.561,19.7 0.898,19.7 L14.273,19.7 C14.61,19.7 14.882,19.428 14.882,19.091 L14.882,16.797 C14.882,16.46 14.61,16.188 14.273,16.188 C13.936,16.188 13.664,16.46 13.664,16.797 L13.664,18.482 L1.507,18.482 L1.507,6.325 L3.195,6.325 L3.195,6.325 Z" id="Shape_8_" sketch:type="MSShapeGroup"></path>
                <path d="M19.178,0.203 L5.802,0.203 C5.465,0.203 5.193,0.475 5.193,0.812 L5.193,14.187 C5.193,14.524 5.465,14.796 5.802,14.796 L19.177,14.796 C19.514,14.796 19.786,14.524 19.786,14.187 L19.786,0.812 C19.787,0.475 19.514,0.203 19.178,0.203 L19.178,0.203 L19.178,0.203 Z M18.568,13.578 L6.411,13.578 L6.411,1.421 L18.568,1.421 L18.568,13.578 L18.568,13.578 Z" id="Shape_9_" sketch:type="MSShapeGroup"></path>
            </g>
            <g id="Group" sketch:type="MSLayerGroup" transform="translate(38.000000, 105.000000)" fill="#4A4A4A">
                <path d="M0.609,3.423 L2.499,3.423 L3.379,18.924 C3.397,19.246 3.664,19.499 3.987,19.499 L15.523,19.499 C15.846,19.499 16.113,19.246 16.131,18.924 L16.997,3.424 L18.888,3.424 C19.225,3.424 19.497,3.151 19.497,2.815 C19.497,2.479 19.225,2.206 18.888,2.206 L16.609,2.206 C16.575,2.206 16.546,2.22 16.514,2.225 C16.482,2.22 16.453,2.206 16.421,2.206 L13.225,2.206 L13.225,0.609 C13.224,0.273 12.952,0 12.615,0 L6.882,0 C6.545,0 6.272,0.273 6.272,0.609 L6.272,2.204 L3.075,2.204 C3.047,2.204 3.022,2.217 2.995,2.22 C2.966,2.216 2.941,2.204 2.912,2.204 L0.609,2.204 C0.272,2.204 0,2.477 0,2.813 C0,3.149 0.272,3.423 0.609,3.423 L0.609,3.423 L0.609,3.423 Z M7.491,1.219 L12.005,1.219 L12.005,2.204 L7.491,2.204 L7.491,1.219 L7.491,1.219 Z M15.777,3.423 L14.947,18.28 L4.563,18.28 L3.719,3.423 L15.777,3.423 L15.777,3.423 Z" id="Shape_10_" sketch:type="MSShapeGroup"></path>
                <path d="M6.25,15.512 C6.262,15.512 6.273,15.512 6.285,15.511 C6.621,15.492 6.878,15.204 6.858,14.868 L6.217,3.575 C6.198,3.238 5.902,2.985 5.574,3.001 C5.238,3.02 4.982,3.308 5.001,3.643 L5.642,14.937 C5.66,15.261 5.929,15.512 6.25,15.512 L6.25,15.512 L6.25,15.512 Z" id="Shape_11_" sketch:type="MSShapeGroup"></path>
                <path d="M12.574,15.511 C12.586,15.512 12.597,15.512 12.609,15.512 C12.93,15.512 13.198,15.262 13.216,14.937 L13.857,3.643 C13.876,3.307 13.619,3.019 13.284,3 C12.953,2.986 12.661,3.238 12.641,3.574 L12,14.868 C11.982,15.204 12.239,15.492 12.574,15.511 L12.574,15.511 L12.574,15.511 Z" id="Shape_12_" sketch:type="MSShapeGroup"></path>
                <path d="M9.609,15.512 C9.946,15.512 10.218,15.239 10.218,14.903 L10.218,3.609 C10.219,3.273 9.946,3 9.609,3 C9.272,3 9,3.273 9,3.609 L9,14.903 C9,15.239 9.272,15.512 9.609,15.512 L9.609,15.512 L9.609,15.512 Z" id="Shape_13_" sketch:type="MSShapeGroup"></path>
            </g>
            <path d="M57.51,39 C56.428,39 55.549,39.88 55.549,40.961 C55.549,41.224 55.603,41.474 55.697,41.704 L49.891,47.108 C49.58,46.9 49.207,46.778 48.806,46.778 C48.602,46.778 48.405,46.811 48.216,46.871 L46.361,44.533 C46.5,44.261 46.581,43.962 46.581,43.647 C46.581,42.566 45.701,41.686 44.62,41.686 C43.539,41.686 42.659,42.566 42.659,43.647 C42.659,43.746 42.677,43.841 42.692,43.938 L38.009,47.61 C37.705,47.418 37.349,47.302 36.963,47.302 C35.881,47.302 35.002,48.182 35.002,49.263 C35.002,50.345 35.882,51.225 36.963,51.225 C38.044,51.225 38.924,50.345 38.924,49.263 C38.924,49.063 38.885,48.874 38.83,48.693 L43.358,45.142 C43.37,45.152 43.379,45.166 43.391,45.175 C43.738,45.455 44.175,45.609 44.621,45.609 C44.88,45.609 45.132,45.558 45.365,45.462 L47.149,47.71 C46.959,48.016 46.845,48.365 46.845,48.738 C46.845,49.82 47.725,50.7 48.806,50.7 C49.887,50.7 50.767,49.82 50.767,48.738 C50.767,48.557 50.734,48.386 50.689,48.22 L56.622,42.698 C56.89,42.836 57.189,42.921 57.511,42.921 C58.592,42.921 59.472,42.041 59.472,40.96 C59.472,39.879 58.592,39 57.51,39 L57.51,39 L57.51,39 Z M36.961,49.867 C36.628,49.867 36.358,49.597 36.358,49.263 C36.358,48.931 36.628,48.66 36.961,48.66 C37.294,48.66 37.564,48.93 37.564,49.263 C37.565,49.596 37.294,49.867 36.961,49.867 L36.961,49.867 L36.961,49.867 Z M44.242,44.118 C44.099,44.002 44.016,43.831 44.016,43.647 C44.016,43.315 44.286,43.044 44.619,43.044 C44.952,43.044 45.222,43.314 45.222,43.647 C45.222,43.808 45.16,43.959 45.046,44.073 C45.046,44.073 45.046,44.073 45.046,44.074 C45.046,44.075 45.046,44.074 45.045,44.074 C44.806,44.312 44.386,44.234 44.242,44.118 L44.242,44.118 L44.242,44.118 Z M48.805,49.343 C48.472,49.343 48.202,49.073 48.202,48.739 C48.202,48.55 48.288,48.377 48.438,48.261 C48.441,48.259 48.445,48.258 48.448,48.256 L48.449,48.255 C48.523,48.2 48.642,48.136 48.806,48.136 C49.138,48.136 49.409,48.406 49.409,48.739 C49.408,49.072 49.138,49.343 48.805,49.343 L48.805,49.343 L48.805,49.343 Z M57.51,41.565 C57.177,41.565 56.907,41.295 56.907,40.962 C56.907,40.629 57.177,40.359 57.51,40.359 C57.842,40.359 58.113,40.629 58.113,40.962 C58.113,41.295 57.843,41.565 57.51,41.565 L57.51,41.565 L57.51,41.565 Z" id="Shape_14_" fill="#4A4A4A" sketch:type="MSShapeGroup"></path>
            <g id="Shape-_x2B_-Oval-2" sketch:type="MSLayerGroup" transform="translate(36.000000, 0.000000)" fill="#4A4A4A">
                <path d="M20.31,0.02 L1.428,0.02 C1.08,0.02 0.799,0.306 0.799,0.661 L0.799,15.35 C0.799,15.704 1.08,15.991 1.428,15.991 L10.24,15.991 L10.24,17.963 L6.251,17.963 C5.903,17.963 5.622,18.249 5.622,18.604 C5.622,18.959 5.903,19.245 6.251,19.245 L15.487,19.245 C15.835,19.245 16.116,18.959 16.116,18.604 C16.116,18.249 15.835,17.963 15.487,17.963 L11.499,17.963 L11.499,15.991 L20.31,15.991 C20.658,15.991 20.939,15.705 20.939,15.35 L20.939,0.661 C20.939,0.307 20.658,0.02 20.31,0.02 L20.31,0.02 L20.31,0.02 Z M19.68,1.302 L19.68,10.29 L2.058,10.29 L2.058,1.302 L19.68,1.302 L19.68,1.302 Z M2.058,14.709 L2.058,11.571 L19.68,11.571 L19.68,14.709 L2.058,14.709 L2.058,14.709 Z" id="Shape_15_" sketch:type="MSShapeGroup"></path>
                <ellipse id="Oval_1_" sketch:type="MSShapeGroup" cx="10.612" cy="13.408" rx="0.576" ry="0.591"></ellipse>
            </g>
            <path d="M12.5,151 C13.881,151 15,149.881 15,148.5 C15,147.119 13.881,146 12.5,146 C11.119,146 10,147.119 10,148.5 C10,149.881 11.119,151 12.5,151 L12.5,151 Z M0,148.5 C0,148.5 5.594,155 12.5,155 C19.406,155 25,148.5 25,148.5 C25,148.5 19.406,142 12.5,142 C5.594,142 0,148.5 0,148.5 L0,148.5 L0,148.5 Z M12.482,144 C14.988,144 17,146.029 17,148.5 C17,150.971 14.988,153 12.482,153 C10.012,153 8,150.971 8,148.5 C8,146.029 10.012,144 12.482,144 L12.482,144 Z" id="Shape-8" fill="#979797" sketch:type="MSShapeGroup"></path>
            <path d="M4,189.389 L4,193.687 L7.581,193.687 L17.655,183.18 L13.975,179.214 L4,189.389 L4,189.389 Z M15.255,178.023 L19.112,181.88 L21.001,179.991 L17.144,176.134 L15.255,178.023 L15.255,178.023 Z" id="Shape-9" fill="#979797" sketch:type="MSShapeGroup"></path>
            <path d="M47.5,151 C48.881,151 50,149.881 50,148.5 C50,147.119 48.881,146 47.5,146 C46.119,146 45,147.119 45,148.5 C45,149.881 46.119,151 47.5,151 L47.5,151 Z M35,148.5 C35,148.5 40.594,155 47.5,155 C54.406,155 60,148.5 60,148.5 C60,148.5 54.406,142 47.5,142 C40.594,142 35,148.5 35,148.5 L35,148.5 L35,148.5 Z M47.482,144 C49.988,144 52,146.029 52,148.5 C52,150.971 49.988,153 47.482,153 C45.011,153 43,150.971 43,148.5 C43,146.029 45.012,144 47.482,144 L47.482,144 Z" id="Shape-11" fill="#4A4A4A" sketch:type="MSShapeGroup"></path>
            <path d="M39,189.389 L39,193.687 L42.581,193.687 L52.655,183.18 L48.975,179.214 L39,189.389 L39,189.389 Z M50.255,178.023 L54.112,181.88 L56.001,179.991 L52.144,176.134 L50.255,178.023 L50.255,178.023 Z" id="Shape-10" fill="#4A4A4A" sketch:type="MSShapeGroup"></path>
            <path d="M5.25,222 C6.493,222 7.5,220.881 7.5,219.5 C7.5,218.119 6.493,217 5.25,217 C4.007,217 3,218.119 3,219.5 C3,220.881 4.007,222 5.25,222 L5.25,222 Z M12,222 C13.243,222 14.25,220.881 14.25,219.5 C14.25,218.119 13.243,217 12,217 C10.757,217 9.75,218.119 9.75,219.5 C9.75,220.881 10.757,222 12,222 L12,222 Z M18.75,222 C19.993,222 21,220.881 21,219.5 C21,218.119 19.993,217 18.75,217 C17.507,217 16.5,218.119 16.5,219.5 C16.5,220.881 17.507,222 18.75,222 L18.75,222 Z" id="Oval-5" fill="#979797" sketch:type="MSShapeGroup"></path>
            <path d="M41.25,222 C42.493,222 43.5,220.881 43.5,219.5 C43.5,218.119 42.493,217 41.25,217 C40.007,217 39,218.119 39,219.5 C39,220.881 40.007,222 41.25,222 L41.25,222 Z M48,222 C49.243,222 50.25,220.881 50.25,219.5 C50.25,218.119 49.243,217 48,217 C46.757,217 45.75,218.119 45.75,219.5 C45.75,220.881 46.757,222 48,222 L48,222 Z M54.75,222 C55.993,222 57,220.881 57,219.5 C57,218.119 55.993,217 54.75,217 C53.507,217 52.5,218.119 52.5,219.5 C52.5,220.881 53.507,222 54.75,222 L54.75,222 Z" id="Oval-6" fill="#4A4A4A" sketch:type="MSShapeGroup"></path>
            <path d="M12.5,254.935 C15.399,254.935 17.75,252.599 17.75,249.718 C17.75,246.837 15.399,244.501 12.5,244.501 C9.601,244.501 7.25,246.837 7.25,249.718 C7.25,252.599 9.6,254.935 12.5,254.935 L12.5,254.935 Z M22.306,260.282 C20.759,258.813 16.818,257.522 12.295,257.522 C7.772,257.522 4.001,258.812 2.456,260.282 C2.099,260.622 2,261.091 2,261.58 L2,264.5 L12.227,264.5 L23,264.5 L23,261.58 C23,261.09 22.661,260.621 22.306,260.282 L22.306,260.282 L22.306,260.282 Z" id="Oval-5_1_" fill-opacity="0.8" fill="#FFFFFF" sketch:type="MSShapeGroup"></path>
            <path d="M46,252.9 L46,244 L49,244 L49,252.9 L57.433,252.9 L57.433,255.9 L49,255.9 L49,264.226 L46,264.226 L46,255.9 L37.577,255.9 L37.577,252.9 L46,252.9 L46,252.9 Z" id="Path-39" fill-opacity="0.8" fill="#FFFFFF" sketch:type="MSShapeGroup"></path>
            <path d="M47.5,292 C48.881,292 50,290.881 50,289.5 C50,288.119 48.881,287 47.5,287 C46.119,287 45,288.119 45,289.5 C45,290.881 46.119,292 47.5,292 L47.5,292 Z M35,289.5 C35,289.5 40.594,296 47.5,296 C54.406,296 60,289.5 60,289.5 C60,289.5 54.406,283 47.5,283 C40.594,283 35,289.5 35,289.5 L35,289.5 L35,289.5 Z M47.482,285 C49.988,285 52,287.029 52,289.5 C52,291.971 49.988,294 47.482,294 C45.011,294 43,291.971 43,289.5 C43,287.029 45.012,285 47.482,285 L47.482,285 Z" id="Shape-5" fill-opacity="0.8" fill="#FFFFFF" sketch:type="MSShapeGroup"></path>
            <path d="M11.316,287.785 L11.316,281 L13.684,281 L13.684,287.785 L20.341,287.785 L20.341,289.735 L13.684,289.735 L13.684,297 L11.316,297 L11.316,289.735 L4.666,289.735 L4.666,287.785 L11.316,287.785 L11.316,287.785 Z" id="Path-42" fill-opacity="0.8" fill="#FFFFFF" sketch:type="MSShapeGroup"></path>
            <path d="M12.292497,330.768224 C12.5645464,330.496499 13.0006199,330.495312 13.2711505,330.770306 L13.0877878,330.583918 C13.3562338,330.856793 13.3532448,331.292481 13.0668919,331.57088 L9.71464628,334.83001 C9.31994616,335.213747 8.68560059,335.219179 8.28531745,334.83001 L4.93310335,331.57088 C4.6531195,331.298671 4.6432083,330.858912 4.91565518,330.583918 L4.73099371,330.770306 C5.0013412,330.497431 5.43649604,330.498882 5.71151255,330.782385 L8.36297415,333.515663 L8.36297401,320.707631 C8.362974,320.316817 8.68508662,320 9.06231164,320 L8.84243759,320 C9.2286711,320 9.54177524,320.307688 9.54177524,320.707631 L9.54177539,333.515663 L12.292497,330.768224 Z M6.05305026,324.375014 C6.437962,324.375014 6.74999463,324.689813 6.74999463,325.071715 L6.74999463,324.92582 C6.74999463,325.310597 6.43829071,325.622521 6.05287582,325.622521 L1.24573089,325.622521 L1.24573089,339.672778 L16.692262,339.672778 L16.692262,325.622521 L11.9503439,325.622521 C11.5635576,325.622521 11.2500054,325.307722 11.2500054,324.92582 L11.2500054,325.071715 C11.2500054,324.686937 11.5575786,324.375014 11.9469497,324.375014 L17.004015,324.375014 C17.5540823,324.375014 18,324.819692 18,325.365195 L18,340.009819 C18,340.556681 17.5519062,341 17.0039799,341 L11.9560025,341 L1.00205797,341 C0.448636636,341 0,340.555322 0,340.009819 L0,325.365195 C0,324.818333 0.442886,324.375014 0.995984953,324.375014 L6.05305026,324.375014 Z" id="Shape" fill="#9B9B9B" sketch:type="MSShapeGroup" transform="translate(9.000000, 330.500000) scale(1, -1) translate(-9.000000, -330.500000) "></path>
            <path d="M52.292497,330.768224 C52.5645464,330.496499 53.0006199,330.495312 53.2711505,330.770306 L53.0877878,330.583918 C53.3562338,330.856793 53.3532448,331.292481 53.0668919,331.57088 L49.7146463,334.83001 C49.3199462,335.213747 48.6856006,335.219179 48.2853174,334.83001 L44.9331033,331.57088 C44.6531195,331.298671 44.6432083,330.858912 44.9156552,330.583918 L44.7309937,330.770306 C45.0013412,330.497431 45.436496,330.498882 45.7115125,330.782385 L48.3629742,333.515663 L48.362974,320.707631 C48.362974,320.316817 48.6850866,320 49.0623116,320 L48.8424376,320 C49.2286711,320 49.5417752,320.307688 49.5417752,320.707631 L49.5417754,333.515663 L52.292497,330.768224 Z M46.0530503,324.375014 C46.437962,324.375014 46.7499946,324.689813 46.7499946,325.071715 L46.7499946,324.92582 C46.7499946,325.310597 46.4382907,325.622521 46.0528758,325.622521 L41.2457309,325.622521 L41.2457309,339.672778 L56.692262,339.672778 L56.692262,325.622521 L51.9503439,325.622521 C51.5635576,325.622521 51.2500054,325.307722 51.2500054,324.92582 L51.2500054,325.071715 C51.2500054,324.686937 51.5575786,324.375014 51.9469497,324.375014 L57.004015,324.375014 C57.5540823,324.375014 58,324.819692 58,325.365195 L58,340.009819 C58,340.556681 57.5519062,341 57.0039799,341 L51.9560025,341 L41.002058,341 C40.4486366,341 40,340.555322 40,340.009819 L40,325.365195 C40,324.818333 40.442886,324.375014 40.995985,324.375014 L46.0530503,324.375014 Z" id="Shape" fill="#9B9B9B" sketch:type="MSShapeGroup" transform="translate(49.000000, 330.500000) scale(1, -1) translate(-49.000000, -330.500000) "></path>
        </g>
    </g>
</svg>