<?xml version="1.0" encoding="UTF-8" standalone="no"?>
<svg width="80px" height="80px" viewBox="0 0 80 80" version="1.1" xmlns="http://www.w3.org/2000/svg" xmlns:xlink="http://www.w3.org/1999/xlink">
    <title>button</title>
    <desc>button</desc>
    <defs></defs>
    <g id="button-1" stroke="none" stroke-width="1" fill="none" fill-rule="evenodd" sketch:type="MSPage">
        <path d="M39.9849,80 C17.9038763,80 0,62.0967133 0,39.9833184 C0,17.9032867 17.9054658,-3.62376795e-13 39.9849,-3.62376795e-13 C62.0977131,-3.62376795e-13 80,17.9032867 80,39.9833184 C80,62.0967133 62.0977131,80 39.9849,80 Z M41.941547,38.7250521 C41.3105243,37.9942409 40.4156484,37.5954721 39.519183,37.5636977 L39.2887087,41.0445835 L42.8030438,41.2749479 C42.8698019,40.3820872 42.5693906,39.4526859 41.941547,38.7250521 Z M24.2713238,38.8219641 C25.2981264,36.8328865 28.9761777,35.1440771 29.2098309,34.179724 C30.3367706,29.0751663 24.7338618,20.5214974 20.9556734,21.5160361 C7.09701774,25.1955119 12.5330313,39.8848178 17.5065069,47.9396286 C23.373269,57.5211995 32.8227136,64.7482872 43.5644036,67.5317248 C48.5378792,68.8281203 54.5047784,67.7668553 58.1875981,62.4938934 C59.4448749,60.7049945 60.3413403,56.593387 59.3463273,55.8641644 C57.2243746,54.3374044 52.7484056,51.121835 47.808309,50.3258862 C46.846675,50.1940224 43.9617731,54.30563 42.0067155,56.2947076 C39.4206354,58.914507 22.4799825,42.369576 24.2713238,38.8219641 Z M59.1126741,23.6385662 C54.3060937,18.1670142 47.7431404,15.1516235 41.013292,14.7179029 L40.7462598,18.5340085 C46.5160637,18.9311886 52.1523514,21.482673 56.2611512,26.1566875 C60.3731299,30.8656539 62.1962608,36.7661603 61.7988913,42.5030285 L65.6454273,42.7699335 C66.0745862,36.0369377 63.920844,29.1069407 59.1126741,23.6385662 Z M53.3126701,28.7764869 C49.8984721,24.8968325 45.2571974,22.7743025 40.5157855,22.4788005 L40.2837218,26.1249131 C44.0952892,26.3902294 47.808309,28.0790388 50.5279053,31.1961076 C53.2459121,34.2798133 54.4713993,38.1928309 54.2059566,42.0375335 L57.8871868,42.2710754 C58.1875981,37.4969715 56.6934891,32.6227783 53.3126701,28.7764869 Z M47.6430033,33.7158177 C45.6195983,31.3962864 42.8698019,30.1364313 40.018279,29.9712044 L39.7846258,33.7158177 C41.6411357,33.8476815 43.465856,34.6785821 44.8248594,36.2037534 C46.1504838,37.7289246 46.7465379,39.6512759 46.6146113,41.5402641 L50.3943891,41.7722173 C50.5930739,38.9220534 49.6981979,36.0369377 47.6430033,33.7158177 Z" id="Fill-62" fill="#000000" sketch:type="MSShapeGroup"></path>
    </g>
</svg>