<?xml version="1.0" encoding="UTF-8" standalone="no"?>
<svg width="80px" height="80px" viewBox="0 0 80 80" version="1.1" xmlns="http://www.w3.org/2000/svg" xmlns:xlink="http://www.w3.org/1999/xlink">
    <title>button</title>
    <desc>button</desc>
    <defs></defs>
    <g id="button-2" stroke="none" stroke-width="1" fill="none" fill-rule="evenodd" sketch:type="MSPage">
        <g id="花-01" sketch:type="MSLayerGroup" transform="translate(15.000000, 10.000000)" fill="#000000">
            <path d="M15.3,55.8 C13.9,55.8 12.5,55.6 11.1,55.1 C8.8,54.4 6.8,53.2 5.1,51.5 C3.3,49.9 2.1,47.9 1.5,45.7 C0.9,43.5 0.8,41.3 1.3,39.2 L1.5,38.3 L2.4,38.1 C4.7,37.6 6.9,37.7 9.2,38.3 C11.5,38.9 13.5,40 15.3,41.7 C16.2,42.6 16.9,43.5 17.5,44.5 C18.1,45.5 18.5,46.6 18.9,47.7 C19.2,48.8 19.4,50 19.4,51.1 C19.4,52.2 19.3,53.3 19.1,54.4 L18.9,55.3 L18,55.5 C17.1,55.7 16.2,55.8 15.3,55.8 L15.3,55.8 Z M4.1,40.9 C3.9,42.2 4,43.6 4.4,45 C4.9,46.7 5.8,48.1 7.2,49.4 C8.6,50.8 10.2,51.7 12.1,52.3 C13.6,52.8 15,52.9 16.4,52.8 C16.5,52.3 16.5,51.7 16.5,51.2 C16.5,50.3 16.4,49.4 16.1,48.6 C15.9,47.7 15.5,46.9 15,46.1 C14.5,45.3 14,44.6 13.3,43.9 C11.9,42.6 10.3,41.7 8.5,41.3 C7.1,40.8 5.6,40.7 4.1,40.9 L4.1,40.9 Z" id="Shape" sketch:type="MSShapeGroup"></path>
            <path d="M35.7,55.8 C34.8,55.8 33.9,55.7 33,55.5 L32.1,55.3 L31.9,54.4 C31.7,53.4 31.6,52.2 31.6,51.1 C31.6,50 31.8,48.8 32.1,47.7 C32.4,46.6 32.9,45.5 33.5,44.5 C34.1,43.5 34.9,42.5 35.7,41.7 C37.5,40 39.5,38.9 41.8,38.3 C44,37.7 46.3,37.7 48.6,38.1 L49.5,38.3 L49.7,39.2 C50.2,41.3 50.1,43.5 49.5,45.7 C48.9,47.9 47.7,49.9 45.9,51.5 C44.2,53.1 42.2,54.3 39.9,55.1 C38.5,55.6 37.1,55.8 35.7,55.8 L35.7,55.8 Z M34.6,52.8 C36,53 37.5,52.8 38.9,52.3 C40.7,51.7 42.3,50.7 43.7,49.4 C45.1,48.1 46,46.6 46.5,44.9 C46.9,43.5 47,42.2 46.8,40.8 C45.3,40.6 43.8,40.7 42.4,41.1 C40.6,41.6 39,42.5 37.6,43.8 C37,44.4 36.5,45.2 36,46 C35.5,46.8 35.2,47.7 34.9,48.5 C34.7,49.4 34.5,50.3 34.5,51.1 C34.5,51.7 34.6,52.2 34.6,52.8 L34.6,52.8 Z" id="Shape" sketch:type="MSShapeGroup"></path>
            <path d="M25.6,3.8 C26.6,4.7 27.5,5.8 28.3,6.9 C29.4,8.7 30.1,10.5 30.3,12.6 L31.1,18.9 L35.5,14.3 L35.9,13.9 C36.8,12.9 37.4,12.3 39,11.4 L40.2,10.8 C40.6,14.8 40.9,20.9 40.9,22.9 C40.9,24.3 40.7,25.6 40.3,26.9 C39.9,28.2 39.3,29.4 38.6,30.5 C37.8,31.6 36.9,32.7 35.9,33.6 C34.9,34.5 33.7,35.3 32.5,35.9 L32.5,35.9 C31.7,36.3 30.8,36.7 29.8,36.9 C29.1,37.1 28.4,37.2 27.7,37.3 L25.7,37.5 L23.6,37.3 C21.8,37.1 20.1,36.6 18.6,35.9 C17.4,35.3 16.2,34.5 15.2,33.6 C14.2,32.7 13.3,31.6 12.5,30.5 C11.8,29.4 11.2,28.1 10.8,26.8 C10.4,25.5 10.2,24.1 10.2,22.7 C10.2,20.3 10.5,14.2 10.9,10.6 C11.3,10.8 11.8,11 12.2,11.3 C13.5,12 14.7,13 15.7,14 L20,18.5 L20.9,12.3 C21.2,10.2 21.9,8.4 23,6.7 C23.7,5.7 24.6,4.7 25.6,3.8 L25.6,3.8 Z M25.5,0 C23.4,1.4 21.7,3.1 20.4,5.2 C19,7.3 18.2,9.6 17.8,12.1 C16.6,10.8 15.2,9.7 13.6,8.8 C12.1,7.9 10.4,7.2 8.5,6.8 C7.5,9 7.1,20.6 7.1,22.9 C7.1,24.6 7.3,26.3 7.8,27.9 C8.3,29.5 9,30.9 9.9,32.3 C10.8,33.7 11.8,34.9 13.1,36 C14.3,37.1 15.7,38 17.2,38.8 C19.1,39.7 21.1,40.3 23.2,40.5 L23.2,60 L28,60 L28,40.4 C28.9,40.3 29.7,40.1 30.6,39.9 C31.7,39.6 32.8,39.2 33.9,38.6 C35.4,37.9 36.7,37 38,35.8 C39.2,34.7 40.3,33.5 41.2,32.1 C42.1,30.7 42.8,29.3 43.3,27.7 C43.8,26.1 44,24.5 44,22.8 C44,20.5 43.6,9.7 42.7,6.7 C42.7,6.7 39.7,7.4 37.6,8.7 C35.5,10 34.7,10.9 33.5,12.2 C33.2,9.7 32.4,7.3 31,5.2 C29.4,3.2 27.7,1.4 25.5,0 L25.5,0 L25.5,0 Z" id="Shape" sketch:type="MSShapeGroup"></path>
        </g>
    </g>
</svg>