<?xml version="1.0" encoding="UTF-8" standalone="no"?>
<svg width="80px" height="80px" viewBox="0 0 80 80" version="1.1" xmlns="http://www.w3.org/2000/svg" xmlns:xlink="http://www.w3.org/1999/xlink">
    <title>button</title>
    <desc>button</desc>
    <defs></defs>
    <g id="button-3" stroke="none" stroke-width="1" fill="none" fill-rule="evenodd" sketch:type="MSPage">
        <path d="M50.819657,17 C48.8702879,17 47.0355101,17.361807 45.3693264,18.0785943 C44.0284766,18.6533895 42.7969495,19.4561914 41.7063565,20.4637896 C40.9858802,21.1300605 40.4221438,21.7990621 40.0006586,22.3738573 C39.5804905,21.7990621 39.0180712,21.1300605 38.2949606,20.4637896 C37.2070019,19.4561914 35.9741577,18.6533895 34.6333079,18.0785943 C32.9671242,17.361807 31.1323464,17 29.180343,17 C27.0992598,17 25.1288164,17.4587439 23.3177472,18.3666746 C21.6173178,19.2199929 20.1065567,20.4405794 18.8328811,21.9970319 C17.6118912,23.489315 16.6543294,25.2259884 15.9957588,27.1592663 C15.3345539,29.0857177 15,31.1132019 15,33.1843761 C15,35.1108275 15.3503596,37.0482014 16.0392245,38.9418853 C16.6187666,40.5365665 17.4538342,42.1380743 18.5220358,43.7040841 C20.435842,46.5125252 22.7184479,48.6738098 24.2278918,50.1046539 L24.3767287,50.2452808 C25.6069387,51.4112549 28.2820526,53.5097352 31.1152235,55.7297281 C32.9460499,57.1646682 34.840099,58.6487593 36.3271516,59.8720765 C38.2607149,61.4640271 38.8060114,62.0429182 38.9587998,62.2354268 C39.426385,62.677787 39.5185849,63 40.0006586,63 C40.4840494,63 40.6539606,62.5494479 41.0451516,62.2354268 C41.1966228,62.0429182 41.7419193,61.4640271 43.6767999,59.8720765 C45.1638524,58.6487593 47.0565844,57.1646682 48.8860936,55.7297281 C51.7179474,53.5097352 54.3956956,51.4112549 55.6232713,50.2452808 L55.7694739,50.1087499 C57.280235,48.6779057 59.564158,46.5179865 61.4779642,43.70818 C62.5461658,42.1421702 63.3825505,40.5392972 63.9607755,38.9446159 C64.6496404,37.0495667 65,35.1108275 65,33.1843761 C65,31.1132019 64.6654461,29.0857177 64.0068755,27.1592663 C63.3456706,25.2259884 62.3920603,23.489315 61.1697532,21.9970319 C59.8960776,20.4405794 58.3866337,19.2199929 56.68357,18.3666746 C54.875135,17.4587439 52.9020574,17 50.819657,17 L50.819657,17 Z M50.819657,20.5224979 C52.3844209,20.5224979 53.8609362,20.8638252 55.2044203,21.538288 C56.4767788,22.1758875 57.6121546,23.0961059 58.5789363,24.2757331 C59.5338637,25.4417072 60.2819999,26.8083818 60.804905,28.3361629 C61.3343958,29.8844236 61.6017755,31.5146029 61.6017755,33.1843761 C61.6017755,34.6862163 61.326493,36.2058055 60.7811965,37.7021845 C60.3057085,39.0169773 59.6049893,40.3536151 58.7027476,41.6752345 C56.9996839,44.1737504 54.8817207,46.1793898 53.4776481,47.5064704 L53.3340797,47.6457319 C52.2197782,48.6997507 49.4827586,50.8460169 46.8353047,52.9199216 L46.8274018,52.9281135 C44.983404,54.373976 43.0801349,55.8662591 41.5641053,57.1127864 C40.918706,57.6438917 40.4089724,58.0766948 40.0006586,58.4357711 C39.5936619,58.0766948 39.0839282,57.6438917 38.438529,57.1127864 C36.9238165,55.8662591 35.0139617,54.3712454 33.1699639,52.9240176 L33.1646953,52.9199216 C30.5198757,50.8460169 27.7828561,48.6997507 26.6698717,47.6457319 L26.5197176,47.5023745 C25.1182793,46.1766591 22.9976818,44.1682892 21.2972524,41.6725039 C20.397645,40.3495192 19.6982429,39.0142467 19.2188035,37.6994539 C18.6761413,36.2044402 18.3982245,34.684851 18.3982245,33.1843761 C18.3982245,31.5146029 18.6682385,29.8844236 19.1990464,28.3361629 C19.7206343,26.8083818 20.4687706,25.4417072 21.423698,24.2757331 C22.3891626,23.0961059 23.5258555,22.1758875 24.7968968,21.538288 C26.1416981,20.8638252 27.6155791,20.5224979 29.180343,20.5224979 C30.681884,20.5224979 32.0793709,20.7955598 33.3319723,21.3321263 C34.3198282,21.7567375 35.2286557,22.3492817 36.033429,23.09201 C36.4957456,23.5220824 36.9238165,23.9985753 37.2965675,24.5064704 L40.0006586,28.1969013 L42.7060668,24.5064704 C43.0801349,23.9985753 43.5042544,23.5220824 43.9692052,23.09201 C44.7726614,22.3492817 45.6801718,21.7567375 46.6680277,21.3321263 C47.9206291,20.7955598 49.318116,20.5224979 50.819657,20.5224979 L50.819657,20.5224979 Z" id="Fill-85" fill="#000000" sketch:type="MSShapeGroup"></path>
    </g>
</svg>