<?xml version="1.0" encoding="UTF-8" standalone="no"?>
<svg width="80px" height="80px" viewBox="0 0 80 80" version="1.1" xmlns="http://www.w3.org/2000/svg" xmlns:xlink="http://www.w3.org/1999/xlink">
    <title>button</title>
    <desc>button</desc>
    <defs></defs>
    <g id="button-4" stroke="none" stroke-width="1" fill="none" fill-rule="evenodd" sketch:type="MSPage">
        <path d="M80,40 C80,17.90861 62.09139,0 40,0 C17.90861,0 0,17.90861 0,40 C0,62.09139 17.90861,80 40,80 C62.09139,80 80,62.09139 80,40 Z M4.32432432,40 C4.32432432,20.2968684 20.2968684,4.32432432 40,4.32432432 C59.7031316,4.32432432 75.6756757,20.2968684 75.6756757,40 C75.6756757,59.7031316 59.7031316,75.6756757 40,75.6756757 C20.2968684,75.6756757 4.32432432,59.7031316 4.32432432,40 Z M23.5787161,40.0529884 L27.6965956,40.0529884 L27.6965956,58.5848232 L23.5787161,58.5848232 L23.5787161,40.0529884 Z M62.7027027,42.6270074 C62.7027027,38.3603885 59.2458875,34.9035733 54.9792686,34.9035733 L50.9082145,34.9035733 C51.1409642,33.9105997 51.3764684,27.7324033 51.3764684,26.6678143 L51.3764684,25.6376559 C51.3764684,22.2262888 48.609639,19.4594595 45.1996492,19.4594595 C41.7882821,19.4594595 39.02283,22.2262888 39.02283,25.6376559 L39.02283,26.6678143 C39.02283,31.7855535 34.8732745,35.9337318 29.7555353,35.9337318 L21.5183992,35.9337318 C20.382195,35.9337318 19.4594595,36.8564673 19.4594595,37.9926715 L19.4594595,60.643763 C19.4594595,61.7799672 20.382195,62.7027027 21.5183992,62.7027027 L29.7555353,62.7027027 C30.8917395,62.7027027 31.8144751,61.7799672 31.8144751,60.643763 L31.8144751,39.8767046 C38.2267984,38.8851082 43.1407094,33.3583356 43.1407094,26.6678143 L43.1407094,25.6376559 C43.1407094,24.5028289 44.0648222,23.5787161 45.1996492,23.5787161 C46.3358534,23.5787161 47.2585889,24.5028289 47.2585889,25.6376559 L47.2585889,26.6678143 C47.2585889,26.9005641 47.2324218,33.8224578 46.4598029,35.4943995 C45.6885613,37.1677184 46.8068616,39.02283 49.2596855,39.02283 L54.9861547,39.02283 L54.9861547,38.978759 L55.0192079,39.0255844 C56.9900057,39.0462427 58.5848232,40.6493235 58.5848232,42.6270074 C58.5848232,43.0828663 58.4897953,43.5153125 58.3341697,43.9188371 L58.342433,43.9298549 L53.3803194,57.8934602 L53.3665472,57.9044779 C53.2219394,58.2997393 52.851468,58.5848232 52.4052496,58.5848232 C52.3942319,58.5848232 52.3873458,58.5779372 52.376328,58.5779372 L47.3618802,58.5779372 L47.3618802,58.5848232 L37.9912943,58.5848232 C36.8550901,58.5848232 35.9323545,59.5075588 35.9323545,60.643763 C35.9323545,61.7799672 36.8550901,62.7027027 37.9912943,62.7027027 L52.4052496,62.7027027 C54.5151464,62.7027027 56.3206781,61.4329084 57.1180869,59.6191134 L57.1346135,59.6246222 L62.3294768,45.008216 L62.323968,45.0054615 C62.5677354,44.2548781 62.7027027,43.4560922 62.7027027,42.6270074 L62.7027027,42.6270074 Z" id="Oval-35" fill="#000000" sketch:type="MSShapeGroup"></path>
    </g>
</svg>