<?xml version="1.0" encoding="UTF-8" standalone="no"?>
<svg width="80px" height="80px" viewBox="0 0 80 80" version="1.1" xmlns="http://www.w3.org/2000/svg" xmlns:xlink="http://www.w3.org/1999/xlink">
    <title>button</title>
    <desc>button</desc>
    <defs></defs>
    <g id="button-5" stroke="none" stroke-width="1" fill="none" fill-rule="evenodd" sketch:type="MSPage">
        <g id="蜡烛-01" sketch:type="MSLayerGroup" transform="translate(22.000000, 4.000000)" fill="#272636">
            <path d="M16.4967033,23.2701443 C15.5314286,22.7267481 14.4395604,21.6958935 14.5107692,19.8339623 C14.6452747,15.8863485 19.4083516,16.7813541 19.0206593,13.808657 C18.7041758,11.3793563 23.8628571,20.1855716 21.0857143,23.0144284 C24.029011,22.1513873 25.469011,19.7780244 25.2474725,16.0621532 C24.8756044,9.75715871 19.3371429,0 17.8259341,0 C17.6676923,0 17.4382418,0.119866815 17.3432967,0.24772475 C17.1613187,0.503440622 17.1692308,0.879023307 17.3907692,1.57425083 C18.3323077,4.53096559 17.0663736,5.95338513 15.3098901,7.91120977 C13.7353846,9.66925638 11.7731868,11.8668147 10.9265934,15.8064373 C10.4597802,17.9880133 10.7446154,19.7460599 11.7731868,21.0406215 C12.9362637,22.5109878 14.8668132,23.0703663 16.4967033,23.2701443 L16.4967033,23.2701443 Z" id="Shape" sketch:type="MSShapeGroup"></path>
            <path d="M24.8676923,31.3251942 C25.563956,31.3251942 26.1336264,31.9005549 26.1336264,32.6037736 L26.1336264,66.4221976 C26.1336264,66.4861265 26.1178022,66.5900111 26.0861538,66.717869 L25.8725275,67.3651498 L10.0483516,67.3651498 L9.89010989,66.7418424 C9.85846154,66.6059933 9.83472527,66.4941176 9.83472527,66.4301887 L9.83472527,32.6037736 C9.83472527,31.9005549 10.4043956,31.3251942 11.1006593,31.3251942 L24.8676923,31.3251942 L24.8676923,31.3251942 Z M24.8676923,28.7680355 L11.1006593,28.7680355 C9.00395604,28.7680355 7.30285714,30.4861265 7.30285714,32.6037736 L7.30285714,66.4221976 C7.30285714,66.7498335 7.35824176,67.0614872 7.43736264,67.3651498 L2.01758242,67.3651498 C0.925714286,67.3651498 0.0316483516,68.2601554 0.0316483516,69.3709212 L0.0316483516,69.9462819 C0.0316483516,71.0490566 0.925714286,71.9520533 2.01758242,71.9520533 L33.9665934,71.9520533 C35.0584615,71.9520533 35.9525275,71.0570477 35.9525275,69.9462819 L35.9525275,69.3709212 C35.9525275,68.2601554 35.0584615,67.3651498 33.9665934,67.3651498 L28.5389011,67.3651498 C28.618022,67.0614872 28.6734066,66.7498335 28.6734066,66.4221976 L28.6734066,32.6037736 C28.6734066,30.4941176 26.9643956,28.7680355 24.8676923,28.7680355 L24.8676923,28.7680355 L24.8676923,28.7680355 Z" id="Shape" sketch:type="MSShapeGroup"></path>
            <path d="M14.0676923,51.9263041 C14.0676923,52.7573807 13.4030769,53.4286349 12.5802198,53.4286349 C11.7573626,53.4286349 11.0927473,52.7573807 11.0927473,51.9263041 L11.0927473,34.0341842 C11.0927473,33.2031077 11.7573626,32.5318535 12.5802198,32.5318535 C13.4030769,32.5318535 14.0676923,33.2031077 14.0676923,34.0341842 L14.0676923,51.9263041 L14.0676923,51.9263041 Z" id="Shape" sketch:type="MSShapeGroup"></path>
        </g>
    </g>
</svg>