<?xml version="1.0" encoding="UTF-8" standalone="no"?>
<svg width="80px" height="80px" viewBox="0 0 80 80" version="1.1" xmlns="http://www.w3.org/2000/svg" xmlns:xlink="http://www.w3.org/1999/xlink">
    <title>button</title>
    <desc>button</desc>
    <defs></defs>
    <g id="button-7" stroke="none" stroke-width="1" fill="none" fill-rule="evenodd" sketch:type="MSPage">
        <path d="M50.4228439,21.7401823 C49.3966401,15.8483823 44.7629609,11.3886454 39.2161434,11.3886454 C33.6716984,11.3886454 29.0341229,15.8483823 28.0069563,21.7401823 L50.4228439,21.7401823 L50.4228439,21.7401823 Z M23.5927694,21.7401823 C24.6928024,13.4193926 31.2781725,7 39.2161434,7 C47.1516583,7 53.7390512,13.4193926 54.8394601,21.7401823 L69,21.7401823 L66.0450492,67.5884301 L13.9576444,67.5884301 L11,21.7401823 L23.5927694,21.7401823 L23.5927694,21.7401823 Z M35.7170723,45.2630008 C35.9595021,45.490184 36.8026194,46.5566088 37.424856,46.5566088 C38.068642,46.5566088 41.4007059,42.9778048 42.8445105,41.3768313 L49.6514026,33.4574913 C49.8776704,33.2196171 50.050065,33.0645979 50.4083225,33.053907 C50.7611926,33.043216 51.2271967,33.1741804 51.4642393,33.4013637 L53.6595764,35.5796499 C53.9020063,35.8068331 54.0555452,36.1248896 54.0636262,36.4803646 C54.0770946,36.8358395 53.945105,37.164587 53.7161434,37.4024612 L41.3306706,50.5603791 L41.3468326,50.5790883 L38.7097343,53.3934876 C38.4861601,53.6367073 38.1683076,53.7917264 37.8181312,53.8024174 C37.4625673,53.8131084 37.1366338,53.6794712 36.8968976,53.4522879 L29.4192829,46.3908987 C29.1822404,46.1637155 29.0260078,45.845659 29.0152331,45.490184 C29.0044585,45.1347091 29.1364481,44.8059616 29.362716,44.5680874 L31.1216794,42.6891485 C31.3452536,42.4512743 31.6604124,42.2962552 32.0159762,42.2855642 C32.3661527,42.2722005 32.6947799,42.4058377 32.9318224,42.6330209 L35.7170723,45.2630008 Z M68.5609326,72.0332031 L11.4498421,72.0332031 L13.9118521,68.6815823 L65.9750139,68.6815823 L68.5609326,72.0332031 Z" id="Fill-16" fill="#000000" sketch:type="MSShapeGroup"></path>
    </g>
</svg>