<?xml version="1.0" encoding="UTF-8" standalone="no"?>
<svg width="324px" height="300px" viewBox="0 0 324 300" version="1.1" xmlns="http://www.w3.org/2000/svg" xmlns:xlink="http://www.w3.org/1999/xlink" xmlns:sketch="http://www.bohemiancoding.com/sketch/ns">
    <!-- Generator: Sketch 3.3.2 (12043) - http://www.bohemiancoding.com/sketch -->
    <title>4</title>
    <desc>Created with Sketch.</desc>
    <defs></defs>
    <g id="Page-1" stroke="none" stroke-width="1" fill="none" fill-rule="evenodd" sketch:type="MSPage">
        <g id="4" sketch:type="MSLayerGroup" transform="translate(0.742999, 0.000000)" fill="#000000">
            <path d="M231.644239,299.880088 C203.912641,299.880088 178.127907,285.968611 161.156196,263.028798 C144.194492,285.974099 118.414924,299.880088 90.6681536,299.880088 C40.6775476,299.880088 0.00645268139,255.414044 0.00645268139,200.75303 C0.00645268139,168.14378 14.5732325,145.268205 26.2828252,126.888399 C60.3143738,73.5015142 145.88085,7.06311735 149.505678,4.26209905 C152.997185,1.56308864 157.078789,0.212776341 161.151354,0.212776341 C165.23328,0.212776341 169.309396,1.56308864 172.79703,4.26209905 C176.425732,7.06311735 261.997373,73.5015142 296.019237,126.888399 C307.734317,145.268528 322.305939,168.144103 322.305939,200.75303 C322.305617,255.414044 281.634522,299.880088 231.644239,299.880088 L231.644239,299.880088 Z" id="Shape" sketch:type="MSShapeGroup" transform="translate(161.156196, 150.046432) scale(1, -1) translate(-161.156196, -150.046432) "></path>
        </g>
    </g>
</svg>