<!--?xml version="1.0" encoding="utf-8"?--> <!-- Generator: Adobe Illustrator 19.2.0, SVG Export Plug-In . SVG Version: 6.00 Build 0) --> <svg version="1.2" baseProfile="tiny" id="图层_1" xmlns="http://www.w3.org/2000/svg" xmlns:xlink="http://www.w3.org/1999/xlink" x="0px" y="0px" viewBox="0 0 100 100" xml:space="preserve" preserveAspectRatio="none"> <path fill-rule="evenodd" fill="#64b3fd" d="M93.7,18.3l-5.5,5.5c-1.5,1.5-3.8,1.4-5.3,0c-1.4-1.5-1.4-3.8,0-5.3l5.5-5.5 c1.5-1.5,3.8-1.4,5.3,0C95.2,14.5,95.2,16.8,93.7,18.3L93.7,18.3z M82.7,53c3.5,4,5.7,9.2,5.7,15c0,12.4-10.1,22.5-22.5,22.5 c-0.8,0-1.5-0.1-2.2-0.2c-0.1-1.9-0.5-5.1-1.6-7.2c1,0.2,2,0.4,3.1,0.4c8.5,0,15.3-6.9,15.3-15.4c0-8.5-6.9-15.4-15.3-15.4 c-2.8,0-5.4,0.8-7.6,2.1c-2.5-9.9-11.4-17.2-22-17.2c-12.5,0-22.7,10.2-22.7,22.7c0,11.1,8,20.3,18.5,22.3c-0.5,1-1.9,4.3-1.7,8.3 c-14-2.8-24.5-15.2-24.5-30c0-16.9,13.7-30.6,30.6-30.6c2.8,0,5.6,0.4,8.2,1.1c4.1-5.4,10.5-8.8,17.8-8.8c12.4,0,22.4,10,22.4,22.4 C84.2,47.8,83.7,50.5,82.7,53L82.7,53z M65.8,30.6c-10.3-1.8-14.9,3.7-14.9,3.7c6.3,3.2,11.2,11.2,11.2,11.2 c9.2-1.5,14.6,2.6,14.6,2.6C78.4,34,65.8,30.6,65.8,30.6L65.8,30.6z M61.8,15.2c-2.1,0-3.7-1.7-3.7-3.7V3.7C58,1.7,59.7,0,61.8,0 c2.1,0,3.7,1.7,3.7,3.7v7.8C65.5,13.5,63.8,15.2,61.8,15.2L61.8,15.2z M35.2,24l-5.5-5.5c-1.5-1.5-1.5-3.8,0-5.3 c1.4-1.5,3.8-1.5,5.3,0l5.5,5.5c1.5,1.4,1.5,3.8,0,5.3C39,25.5,36.6,25.5,35.2,24L35.2,24z M46.7,77.3c0,0,9.6,8,9.6,13.2 c0,5.2-4.3,9.5-9.5,9.5c-5.2,0-9.5-4.3-9.5-9.5C37.3,85.3,46.7,77.3,46.7,77.3L46.7,77.3z" fill_="0"></path> </svg>