<!--?xml version="1.0" encoding="utf-8"?--> <!-- Generator: Adobe Illustrator 19.2.0, SVG Export Plug-In . SVG Version: 6.00 Build 0) --> <svg version="1.2" baseProfile="tiny" id="图层_1" xmlns="http://www.w3.org/2000/svg" xmlns:xlink="http://www.w3.org/1999/xlink" x="0px" y="0px" viewBox="0 0 100 100" xml:space="preserve" preserveAspectRatio="none"> <path fill-rule="evenodd" fill="#64b3fd" d="M70.6,49.6l25.9,25c5,4.9,4.6,13.5-1,19.2c-5.6,5.8-14.2,6.5-19.2,1.7l-25.9-25 l-25.1,26c-4.8,5-13.5,4.6-19.2-1C0.4,90-0.4,81.4,4.5,76.4l25.1-26l-26-25.1c-5-4.9-4.6-13.5,1-19.2C10,0.2,18.6-0.5,23.7,4.3 l26,25.1l25-26c4.9-5,13.5-4.6,19.2,1c5.8,5.6,6.5,14.2,1.7,19.2L70.6,49.6L70.6,49.6z" fill_="0"></path> </svg>