<?xml version="1.0" encoding="UTF-8" standalone="no"?>
<svg width="70px" height="25px" viewBox="0 0 70 25" version="1.1" xmlns="http://www.w3.org/2000/svg" xmlns:xlink="http://www.w3.org/1999/xlink" xmlns:sketch="http://www.bohemiancoding.com/sketch/ns">
    <!-- Generator: Sketch 3.4.3 (16044) - http://www.bohemiancoding.com/sketch -->
    <title>shape27</title>
    <desc>Created with Sketch.</desc>
    <defs></defs>
    <g id="Page-1" stroke="none" stroke-width="1" fill="none" fill-rule="evenodd" sketch:type="MSPage">
        <g id="shape27" sketch:type="MSLayerGroup">
            <path class="color1-fill" d="M6.0205303,24.6590909 L6.0205303,23.2346418 C6.0205303,20.7113319 3.96056818,18.6584338 1.42890152,18.6584338 L0,18.6584338 L0,6.00039288 L1.42890152,6.00039288 C3.96056818,6.00039288 6.0205303,3.94802331 6.0205303,1.42444914 L6.0205303,0 L63.790947,0 L63.790947,1.42444914 C63.790947,3.94802331 65.8509091,6.00039288 68.3831061,6.00039288 L69.8122727,6.00039288 L69.8122727,18.6584338 L68.3831061,18.6584338 C65.8509091,18.6584338 63.790947,20.7113319 63.790947,23.2346418 L63.790947,24.6590909 L6.0205303,24.6590909 L6.0205303,24.6590909 Z" id="Fill-1" fill="#7ED321" sketch:type="MSShapeGroup"></path>
            <path class="color2-fill" d="M7.08113636,23.4192424 L7.08113636,23.1808712 C7.08113636,19.9924242 4.48715909,17.3987121 1.29871212,17.3987121 L1.06060606,17.3987121 L1.06060606,7.08087121 L1.29871212,7.08087121 C4.48715909,7.08087121 7.08113636,4.48715909 7.08113636,1.29871212 L7.08113636,1.06060606 L62.4699621,1.06060606 L62.4699621,1.29871212 C62.4699621,4.48715909 65.0644697,7.08087121 68.2529167,7.08087121 L68.4910227,7.08087121 L68.4910227,17.3987121 L68.2529167,17.3987121 C65.0644697,17.3987121 62.4699621,19.9924242 62.4699621,23.1808712 L62.4699621,23.4192424 L7.08113636,23.4192424 L7.08113636,23.4192424 Z" id="Fill-3-Copy" fill="#E6FFCB" sketch:type="MSShapeGroup"></path>
        </g>
    </g>
</svg>