<!--?xml version="1.0" encoding="utf-8"?--> <!-- Generator: Adobe Illustrator 19.2.0, SVG Export Plug-In . SVG Version: 6.00 Build 0) --> <svg version="1.2" baseProfile="tiny" id="图层_1" xmlns="http://www.w3.org/2000/svg" xmlns:xlink="http://www.w3.org/1999/xlink" x="0px" y="0px" viewBox="0 0 100 100" xml:space="preserve" preserveAspectRatio="none"> <path fill-rule="evenodd" fill="#64b3fd" d="M0,99.4l17.4-34.8h9.3v1.2l6.3,6.3v1.2h-6.9v4.4h17v5.7h-7.5l-3,7.3h38.6l-4.9-6.5h-7.9 l0.2-4.4h23.3l-4-6.3H66.8v-1.2l5.3-5.3v-2.4h10.6L100,99.4H0L0,99.4z M26.1,84.1l-7-4.3l-6.1,11h13l4.3-6.7H26.1L26.1,84.1z M73.9,86.4l4.3,4.3H87l-4.3-4.3H73.9L73.9,86.4z M50.2,79.2c-6.8-7.6-31.9-28.7-31.9-46.5c0-17.8,14.4-32.1,32.2-32.1 c17.8,0,32.2,14.4,32.2,32.1C82.5,50.5,61.6,69,50.2,79.2L50.2,79.2z M74.4,36.2c-0.2,0-0.3,0-0.5,0h-8.7c-2.4,0-4.3-1.9-4.3-4.3 c0-2.4,1.9-4.3,4.3-4.3h8.7c0.1,0,0.3,0,0.4,0c-1.9-10-9.9-17.8-20-19.4v8.7c0,2.4-1.9,4.3-4.3,4.3c-2.4,0-4.3-1.9-4.3-4.3V8.3 c-9.7,1.9-17.3,9.6-19.2,19.3h8.3c2.4,0,4.3,1.9,4.3,4.3c0,2.4-1.9,4.3-4.3,4.3h-8.4c1.7,10,9.4,17.9,19.3,19.8c0,0,0-0.1,0-0.1 v-8.7c0-2.4,1.9-4.3,4.3-4.3c2.4,0,4.3,1.9,4.3,4.3V56c0,0.1,0,0.2,0,0.2C64.6,54.5,72.7,46.5,74.4,36.2L74.4,36.2z" fill_="0"></path> </svg>