<!--?xml version="1.0" encoding="utf-8"?--> <!-- Generator: Adobe Illustrator 19.2.1, SVG Export Plug-In . SVG Version: 6.00 Build 0) --> <svg version="1.2" baseProfile="tiny" id="图层_1" xmlns="http://www.w3.org/2000/svg" xmlns:xlink="http://www.w3.org/1999/xlink" x="0px" y="0px" viewBox="0 0 100 100" xml:space="preserve" preserveAspectRatio="none"> <path fill="#64b3fd" d="M86,48.9c-0.6,0-1.2,0-1.7-0.5c-0.3-0.3-0.5-0.6-0.7-0.9c-0.4-1-0.3-2.1-0.3-3.1c0-0.5,0-1-0.1-1.5 c-0.1-0.8-0.4-1.4-1.2-1.7c-0.2-0.1-0.5-0.2-0.6-0.3c-0.3-0.2,0.5-0.1,0.8-0.1c1.4,0.2,1.8,1.4,2,2.6c0.1,0.5,0.1,1.4,0.1,2.3 c0,0.8,0,1.7,0.6,2.4c0.3,0.3,0.7,0.6,1.1,0.7C86.4,48.8,86.3,48.9,86,48.9z M81.6,59.4c0.6,0,1.2,0,1.7-0.5 c0.3-0.3,0.5-0.6,0.7-0.9c0.4-1,0.3-2.1,0.3-3.1c0-0.5,0-1,0.1-1.5c0.1-0.7,0.5-1.4,1.2-1.7c0.2-0.1,0.5-0.2,0.6-0.3 c0.3-0.2-0.5-0.1-0.8-0.1c-1.4,0.2-1.8,1.4-2,2.6c-0.1,0.5-0.1,1.4-0.1,2.3c0,0.8,0,1.7-0.6,2.4c-0.3,0.3-0.7,0.6-1.1,0.7 C81.3,59.4,81.4,59.4,81.6,59.4z M87.6,45.6c0.2,0.3,0.5,0.4,0.8,0.4c0.6,0,1-0.4,1-0.9c0-0.3-0.2-0.6-0.5-0.7c-0.1,0-0.3-0.1-0.5,0 c0,0,0.2-0.6,1-0.7c1.2-0.1,2.1,0.9,2,2c-0.2,1.9-1.5,2.6-2.4,2.9c-0.3,0.1-0.3,0.2,0.1,0.1c0.7-0.1,1.7-0.5,2.4-1.4 c0.8-1.1,0.8-2.7-0.1-3.7c-0.3-0.3-0.6-0.5-1-0.7c-1.1-0.4-2.5,0-2.9,1.2c-0.1,0.2-0.1,0.5-0.1,0.7C87.4,45.1,87.5,45.4,87.6,45.6z M90.6,49.3c2.7-0.2,4.4-1.6,5.2-2.4c-0.4-0.5-0.8-0.9-1-1.3c-0.8,2.2-3.1,3.2-4.2,3.5C90.2,49.3,90.4,49.3,90.6,49.3z M96.9,48 c-2.1,1.2-4.6,1.8-6.2,2c-0.5,0.1-0.7,0.1-0.8,0.1c0.1,0,0.4,0.1,0.8,0.1c1.7,0.2,4.1,0.7,6.2,2c0.8-0.7,1.9-1.5,3.1-2.1 C98.7,49.5,97.7,48.8,96.9,48z M88,51.9l0-1.8l0-1.8c0-0.3-0.2-0.5-0.5-0.5c-0.3,0-0.5,0.2-0.5,0.5l0,1.8l0,1.8 c0,0.3,0.2,0.5,0.5,0.5C87.8,52.4,88,52.2,88,51.9z M83.1,51c-0.2,0.6,0.3,0.3,0.6,0.1c0.3-0.2,0.6-0.5,1-0.6 c0.2-0.1,0.5-0.2,0.8-0.3c0.2,0,0.3-0.1,0.3-0.1c0,0-0.1-0.1-0.3-0.1c-0.3-0.1-0.5-0.2-0.7-0.3c-0.4-0.2-0.7-0.4-1-0.6 c-0.2-0.2-0.8-0.5-0.6,0.1c0.2,0.4,0.4,0.7,0.7,0.9C83.5,50.3,83.3,50.6,83.1,51z M89.1,51.4c-0.4-0.1-0.3,0-0.1,0.1 c0.8,0.3,2.2,1.1,2.4,2.9c0.1,1.2-0.8,2.1-2,2c-0.7-0.1-1-0.7-1-0.7c0.2,0.1,0.4,0,0.5,0c0.3-0.1,0.4-0.3,0.5-0.6 c0.1-0.6-0.4-0.9-1-0.9c-0.3,0-0.6,0.1-0.8,0.4c-0.1,0.2-0.2,0.4-0.2,0.7c0,0.2,0,0.5,0.1,0.7c0.4,1.2,1.8,1.7,2.9,1.2 c0.4-0.2,0.7-0.4,1-0.7c0.9-1,0.9-2.6,0.1-3.7C90.8,51.9,89.8,51.6,89.1,51.4z M90.6,51c1.1,0.3,3.5,1.3,4.2,3.5 c0.2-0.3,0.6-0.8,1-1.3c-0.8-0.8-2.5-2.2-5.2-2.4C90.4,50.9,90.2,50.9,90.6,51z M82.2,49.5c-0.3,0-0.5,0.2-0.5,0.5 c0,0.3,0.2,0.5,0.5,0.5c0.3,0,0.5-0.2,0.5-0.5C82.8,49.8,82.6,49.5,82.2,49.5z M14,48.8c0.6,0,1.2,0,1.7-0.5 c0.3-0.3,0.5-0.6,0.7-0.9c0.4-1,0.3-2.1,0.3-3.1c0-0.5,0-1,0.1-1.5C17,42,17.3,41.3,18,41c0.2-0.1,0.5-0.2,0.6-0.3 c0.3-0.2-0.5-0.1-0.8-0.1c-1.4,0.2-1.8,1.4-2,2.6c-0.1,0.5-0.1,1.4-0.1,2.3c0,0.8,0,1.7-0.6,2.4c-0.3,0.3-0.7,0.5-1.1,0.7 C13.6,48.7,13.7,48.7,14,48.8z M18.3,59.1c-0.3-0.1-0.7-0.3-1.1-0.7c-0.6-0.6-0.6-1.5-0.6-2.4c0-0.8,0-1.7-0.1-2.3 c-0.2-1.2-0.6-2.4-2-2.6c-0.3,0-1.1-0.2-0.8,0.1c0.1,0.1,0.3,0.2,0.6,0.3c0.7,0.3,1,1,1.2,1.7c0.1,0.5,0.1,1,0.1,1.5 c0,1-0.1,2.2,0.3,3.1c0.1,0.3,0.4,0.7,0.7,0.9c0.5,0.4,1.1,0.5,1.7,0.5C18.6,59.3,18.7,59.2,18.3,59.1z M12.6,44.7 c0-0.2,0-0.5-0.1-0.7c-0.4-1.2-1.8-1.7-2.9-1.2c-0.4,0.2-0.7,0.4-1,0.7c-0.9,1-0.9,2.6-0.1,3.7c0.6,0.9,1.7,1.3,2.4,1.4 c0.4,0.1,0.3,0,0.1-0.1c-0.8-0.3-2.2-1.1-2.4-2.9c-0.1-1.2,0.8-2.1,2-2c0.7,0.1,1,0.7,1,0.7c-0.2-0.1-0.4,0-0.5,0 c-0.3,0.1-0.4,0.3-0.5,0.6c-0.1,0.6,0.4,0.9,1,0.9c0.3,0,0.6-0.1,0.8-0.4C12.5,45.2,12.6,45,12.6,44.7z M9.4,49 c-1.1-0.3-3.5-1.3-4.2-3.5c-0.2,0.3-0.6,0.8-1,1.3c0.8,0.8,2.5,2.2,5.2,2.4C9.6,49.2,9.8,49.2,9.4,49z M0,49.9 c1.2,0.6,2.3,1.4,3.1,2.1c2.1-1.2,4.6-1.8,6.2-2C9.8,50,10.1,50,10.2,50c-0.1,0-0.4-0.1-0.8-0.1c-1.7-0.2-4.1-0.7-6.2-2 C2.3,48.6,1.3,49.3,0,49.9z M12.5,52.2c0.3,0,0.5-0.2,0.5-0.5l0-1.8l0-1.8c0-0.3-0.2-0.5-0.5-0.5c-0.3,0-0.5,0.2-0.5,0.5l0,1.8 l0,1.8C12,52,12.2,52.2,12.5,52.2z M16.2,50c0.3-0.2,0.5-0.5,0.7-0.9c0.2-0.6-0.3-0.3-0.6-0.1c-0.3,0.2-0.6,0.5-1,0.6 c-0.2,0.1-0.5,0.2-0.8,0.3c-0.2,0-0.3,0.1-0.3,0.1c0,0,0.1,0.1,0.3,0.1c0.3,0.1,0.5,0.2,0.7,0.3c0.4,0.2,0.7,0.4,1,0.6 c0.2,0.2,0.8,0.5,0.6-0.1C16.7,50.5,16.5,50.2,16.2,50z M8.5,52.7c-0.8,1.1-0.8,2.7,0.1,3.7c0.3,0.3,0.6,0.5,1,0.7 c1.1,0.4,2.5,0,2.9-1.2c0.1-0.2,0.1-0.4,0.1-0.7c0-0.2-0.1-0.5-0.2-0.7c-0.2-0.3-0.5-0.4-0.8-0.4c-0.6,0-1,0.4-1,0.9 c0,0.3,0.2,0.6,0.5,0.7c0.1,0,0.3,0.1,0.5,0c0,0-0.2,0.6-1,0.7c-1.2,0.1-2.1-0.9-2-2c0.2-1.9,1.5-2.6,2.4-2.9 c0.3-0.1,0.3-0.2-0.1-0.1C10.2,51.4,9.2,51.8,8.5,52.7z M9.4,50.7c-2.7,0.2-4.4,1.6-5.2,2.4c0.4,0.5,0.8,0.9,1,1.3 c0.8-2.2,3.1-3.2,4.2-3.5C9.8,50.8,9.6,50.7,9.4,50.7z M17.2,50c0,0.3,0.2,0.5,0.5,0.5c0.3,0,0.5-0.2,0.5-0.5c0-0.3-0.2-0.5-0.5-0.5 C17.5,49.4,17.2,49.7,17.2,50z" fill_="0"></path> </svg>