<!--?xml version="1.0" encoding="utf-8"?--> <!-- Generator: Adobe Illustrator 19.2.0, SVG Export Plug-In . SVG Version: 6.00 Build 0) --> <svg version="1.2" baseProfile="tiny" id="图层_1" xmlns="http://www.w3.org/2000/svg" xmlns:xlink="http://www.w3.org/1999/xlink" x="0px" y="0px" viewBox="0 0 100 100" xml:space="preserve" preserveAspectRatio="none"> <path id="XMLID_4606_" fill="#64b3fd" d="M100,34.3c0-0.1,0.1-0.3-0.1-0.4c-0.1-0.1-0.2-0.1-0.4,0c0,0-0.1,0-0.1,0 c-0.2-0.3-0.5-0.4-0.8-0.4c-0.2,0-0.4-0.1-0.5-0.2c-0.2-0.2-0.5-0.3-0.8-0.2c-0.1,0-0.2,0-0.3,0c-0.3-0.2-0.5-0.2-0.6,0.3 c-0.3,0-0.6,0.1-0.9,0.4c-0.1-0.1-0.2-0.3-0.4-0.4c-0.3-0.1-0.6-0.2-0.9-0.2c-0.4,0.1-0.7,0.2-1.1,0.1c0,0,0,0-0.1,0 c-0.3,0-0.5-0.1-0.6-0.4c-0.1-0.2-0.2-0.4-0.3-0.4c-0.4-0.1-0.9-0.2-1.3,0.1c-0.1,0.1-0.2,0.1-0.4,0c-0.2-0.1-0.3-0.2-0.5-0.2 c-0.3-0.1-0.5-0.2-0.8-0.3c-0.2-0.1-0.4-0.2-0.6-0.3c-0.3-0.1-0.6-0.1-0.8-0.2c-0.5-0.1-0.8,0.2-0.9,0.7c-0.1,0-0.1,0-0.2,0 c-0.3,0-0.7-0.1-1,0c-0.2,0-0.3,0-0.5,0c-0.2-0.1-0.5-0.1-0.7,0.1c-0.1,0.1-0.3,0-0.4-0.1c-0.1-0.1-0.2-0.2-0.1-0.3 c0.1-0.1,0.1-0.2-0.1-0.3c0,0-0.1-0.1-0.1-0.1c-0.1-0.3-0.3-0.3-0.5-0.3c-0.3,0-0.5-0.1-0.8-0.1c-0.3-0.1-0.4,0-0.4,0.3 c0,0.2-0.1,0.3-0.2,0.2c-0.3,0-0.6,0-0.8-0.1c-0.1,0-0.1,0-0.2-0.1c0,0,0-0.1-0.1-0.2c-0.4-0.2-0.8-0.2-1.2,0c-0.1,0-0.2,0-0.3-0.1 c-0.1-0.1-0.2-0.1-0.3-0.1c-0.3,0.1-0.6,0.1-0.8,0.3c-0.1,0.1-0.3,0.2-0.5,0.2c-0.3,0.1-0.4-0.1-0.5-0.4c0.2,0,0.4,0,0.5-0.1 c0.4-0.2,0.8-0.4,1.1-0.6c0,0,0.1-0.1,0.1-0.1c0.1-0.1,0.2-0.2,0.3-0.3c0.2-0.2,0.2-0.5,0-0.6c-0.4-0.2-0.9-0.3-1.3-0.1 c-0.2,0.1-0.3,0.1-0.5-0.1c0-0.1-0.1-0.1-0.2-0.2c-0.3-0.4-0.8-0.4-1.3-0.3c-0.3,0.1-0.4,0.2-0.3,0.6c0,0.3-0.2,0.5-0.4,0.5 c-0.5-0.1-0.9,0.1-1.3,0.2c-0.1,0-0.2,0-0.2,0.1c-0.1,0.2-0.2,0.2-0.4,0.1c-0.3,0-0.5,0-0.7,0.2c-0.2,0.2-0.4,0.3-0.6,0.3 c-0.2,0-0.3,0.1-0.3,0.2c0,0.2-0.1,0.2-0.3,0.2c-0.3,0-0.6-0.1-0.9-0.1c-0.1,0-0.3,0-0.4,0c-0.2,0.1-0.3,0.3-0.2,0.5 c0.1,0.1,0.1,0.2,0.2,0.4c-0.2,0-0.3,0-0.4,0c-0.2,0-0.4,0-0.6,0c-0.1,0-0.2,0-0.3-0.1c-0.2-0.2-0.4-0.2-0.7,0.1 c-0.1,0.1-0.2,0.1-0.3,0.1c0,0,0-0.1,0-0.1c0-0.5-0.1-0.6-0.6-0.5c-0.1,0-0.1,0-0.2,0c-0.1,0-0.3,0-0.4,0.2 c-0.1,0.2-0.3,0.4-0.4,0.5c-0.2,0.2-0.3,0.4-0.2,0.7c0,0.2,0.1,0.5,0.1,0.7c-0.2-0.1-0.4-0.2-0.6-0.2c-0.1,0.2-0.2,0.1-0.4,0.1 c-0.1,0-0.2-0.1-0.3-0.1c-0.2-0.1-0.4-0.1-0.5,0.1c-0.2,0.3-0.4,0.3-0.7,0.3c-0.2,0-0.4,0-0.6,0.1c-0.2,0.1-0.4,0.2-0.7,0.1 c-0.2,0-0.4,0-0.5,0.2c-0.1,0.1-0.2,0.1-0.3,0.2c-0.4,0.1-0.8,0.2-1.2,0.3c-0.5,0.2-0.9,0.5-1.3,0.8c-0.1,0.1-0.2,0.1-0.3,0.1 c-0.4,0-0.8,0.1-1.1,0.3c-0.2,0.1-0.3,0.2-0.5,0.2c-0.3-0.2-0.2-0.4-0.2-0.7c0.1-0.3,0-0.6-0.4-0.8c0.4-0.1,0.7-0.1,1.1,0.1 c0.1,0,0.2,0.1,0.3,0.1c0.1,0.1,0.3,0,0.4-0.1c0.2-0.2,0.3-0.3,0.4-0.5c0.1-0.2,0-0.3-0.2-0.4c-0.2-0.1-0.4-0.1-0.6-0.2 c-0.1,0-0.3-0.1-0.4-0.1c-0.2,0-0.4-0.1-0.6-0.2c-0.1-0.1-0.2-0.1-0.3-0.1c-0.1,0-0.1,0-0.2,0c-0.1-0.4-0.2-0.4-0.6-0.2 c0,0,0-0.1,0-0.1c0-0.4-0.1-0.5-0.5-0.5c-0.2,0-0.5,0-0.7-0.1c-0.4-0.1-0.7,0-1.1,0.1c-0.6,0.3-1.2,0.6-1.6,1.1 c-0.1,0.1-0.3,0.3-0.4,0.4c-0.2,0.1-0.3,0.3-0.4,0.4c-0.4,0.4-0.7,0.9-1.2,1.3c-0.4,0.3-0.8,0.7-1.3,0.8c-0.2,0.1-0.3,0.2-0.2,0.4 c0,0.3,0.1,0.7,0.2,1c0.1,0,0.1,0,0.2,0.1c0,0.1-0.1,0.1-0.1,0.2c0,0.1,0.1,0.2,0.1,0.3c0,0,0.2,0,0.3-0.1c0.1-0.1,0.3-0.2,0.5-0.1 c0,0,0.1,0,0.1,0c0.1-0.1,0.3-0.2,0.4-0.3c0.1,0.2,0.1,0.4,0.2,0.5c0,0.1,0.1,0.2,0.2,0.2c0.2,0.1,0.3,0.2,0.3,0.3 c0.1,0.2,0.2,0.2,0.4,0.2c0.1,0,0.2,0,0.4,0c0-0.2,0.1-0.4,0.1-0.6c0-0.2,0.1-0.3,0.3-0.5c0.1-0.1,0.2-0.1,0.4-0.2 c-0.1-0.2,0-0.5-0.4-0.6c0,0-0.1-0.1-0.1-0.1c0-0.3-0.1-0.6,0.2-0.8c0.2-0.2,0.3-0.3,0.6-0.3c0.2,0,0.3-0.1,0.3-0.3 c0-0.1,0-0.1,0-0.2c0.1-0.5,0.4-0.5,0.8-0.4c0,0,0.1,0.1,0.2,0.1c-0.2,0.2-0.3,0.5-0.6,0.6c-0.5,0.3-0.6,0.8-0.4,1.3 c0,0.1,0.1,0.2,0.1,0.2c0.1,0.2,0.2,0.3,0.5,0.2c0.1,0,0.2-0.1,0.3-0.1c0.3-0.2,0.7-0.1,1-0.1c0,0.3,0,0.3-0.2,0.3 c-0.1,0-0.2,0-0.3,0c-0.3-0.1-0.6-0.1-0.8,0.3c0.1,0.1,0.1,0.2,0.2,0.4c0,0.1-0.1,0.3-0.1,0.4c0,0,0,0-0.1,0 c-0.1-0.1-0.1-0.2-0.2-0.3c-0.1-0.1-0.1-0.2-0.3-0.2c-0.2,0-0.2,0.1-0.3,0.3c-0.1,0.2-0.1,0.3-0.1,0.5c-0.1,0.2-0.1,0.4-0.4,0.4 c-0.1,0-0.3,0.1-0.4,0.1c-0.2,0.1-0.5,0.2-0.7,0.2c-0.5,0.1-0.9,0.1-1.4,0c-0.2-0.1-0.5,0-0.6,0.2c-0.3,0.1-0.5,0.1-0.8,0.2 c0,0-0.1,0.1-0.1,0.1c-0.1,0.2-0.2,0.4-0.4,0.5c-0.2,0.2-0.6,0.4-0.7,0.7c0,0,0,0,0,0c-0.3,0.1-0.5,0.3-0.8,0.4 c-0.1,0-0.2,0.1-0.3,0.1c-0.2-0.1-0.4,0.1-0.6,0.1c0,0-0.1,0-0.1,0.1c0,0.1,0.1,0.1,0.1,0.1c0.3,0,0.5,0.3,0.7,0.5c0,0,0,0,0,0 c0.4,0.3,0.4,0.8,0,1.1c0,0-0.1,0-0.1,0c-0.2,0-0.5-0.1-0.7-0.1c-0.1,0-0.2,0.1-0.2,0.1c-0.2,0.1-0.3,0.3-0.5,0.4 c-0.2,0.1-0.2,0.2-0.2,0.4c0,0.4,0,0.7-0.1,1.1c0,0.1,0,0.2,0,0.3c0.1,0,0.2,0,0.3,0c0,0,0,0,0.1,0c0.1,0,0.4,0.1,0.4,0.3 c0.1-0.1,0.2-0.1,0.3,0c0.1-0.1,0.1-0.1,0.2-0.1c0.1,0,0.1,0,0.2,0c0.3,0,0.5-0.1,0.7-0.3c0-0.1,0.1-0.1,0.1-0.1 c0.3-0.2,0.3-0.2,0.1-0.5c0-0.1,0.1-0.2,0.1-0.2c0.1-0.1,0.2-0.2,0.3-0.2c0.1,0,0.2-0.1,0.4-0.2c0.1-0.1,0.2-0.2,0.1-0.4 c0,0,0-0.1,0-0.2c0.1-0.1,0.2-0.1,0.3-0.2c0.3,0.3,0.6,0.3,1,0c0.4-0.3,0.8-0.1,1,0.3c0.1,0.3,0.4,0.5,0.7,0.7 c0.1,0.1,0.2,0.1,0.3,0.2c0.2,0.1,0.3,0.1,0.5,0.1c0.1,0,0.2-0.1,0.4-0.1c0,0,0.1-0.1,0.1-0.1c0-0.1,0-0.1-0.1-0.1 c-0.5-0.2-0.8-0.6-1.1-0.9c-0.2-0.1-0.3-0.3-0.3-0.6c0.2,0,0.4,0,0.4,0.2c0.1,0.4,0.4,0.6,0.7,0.8c0.1,0.1,0.3,0.1,0.4,0.1 c0.1,0,0.2,0.1,0.3,0.2c0,0.1,0.1,0.2,0.1,0.3c0,0.3,0.3,0.4,0.4,0.6c0.2,0.2,0.5,0.2,0.7-0.1c0.1-0.2,0.2-0.3,0.3-0.5 c0.2,0,0.3,0.1,0.6,0.1c0.1,0.2,0.1,0.5,0.2,0.7c0,0.1,0,0.1,0.1,0.2c0.2,0.2,0.3,0.4,0.5,0.6c0.2,0.2,0.3,0.1,0.4,0 c0.1-0.1,0.1-0.1,0.2-0.2c0.2,0.2,0.5,0.2,0.7,0.2c0.2,0,0.4,0,0.7,0c0,0.1,0,0.2-0.1,0.3c-0.2,0.4-0.3,0.7-0.5,1.1 c-0.1,0-0.3,0-0.5,0c-0.3,0-0.5,0-0.7,0.1c-0.2,0.1-0.4,0.1-0.6-0.1c0,0-0.1-0.1-0.1-0.1c-0.5-0.1-1-0.3-1.5-0.4c-0.1,0-0.2,0-0.3,0 c-0.3,0-0.4,0.2-0.3,0.4c0.1,0.1,0,0.2-0.1,0.3c-0.1,0.1-0.2,0.1-0.3,0.1c-0.2-0.2-0.4-0.2-0.6-0.3c-0.1,0-0.1-0.1-0.2-0.1 c-0.2-0.3-0.6-0.4-1-0.4c-0.1,0-0.3,0-0.4,0c-0.2,0-0.2-0.1-0.2-0.3c0-0.1,0.1-0.2,0.1-0.3c0.1-0.3,0-0.5-0.3-0.5 c-0.2,0-0.4,0-0.6,0c-0.2,0-0.4,0-0.6,0c-0.5,0-1,0.2-1.5,0.3c-0.2,0-0.5,0.1-0.7,0.1c-0.1,0-0.2,0-0.2,0c-0.1,0-0.2,0-0.3,0 c0,0,0,0-0.1,0c-0.1,0-0.2,0.1-0.3,0.1c-0.1,0-0.1,0-0.2,0.1c0,0-0.1,0-0.1,0c-0.1,0.1-0.1,0.2-0.2,0.3c-0.1,0.2-0.3,0.3-0.5,0.4 c-0.1,0-0.1,0.1-0.1,0.2c0,0.1-0.1,0.2-0.1,0.3c-0.2,0.4-0.4,0.8-0.8,1c-0.1,0.1-0.3,0.2-0.3,0.3c-0.2,0.3-0.4,0.7-0.6,1 c-0.2,0.2-0.2,0.4-0.2,0.6c0,0.6-0.1,1.1-0.1,1.7c0,0.2,0,0.3,0,0.5c0,0.3,0.2,0.6,0.4,0.9c0.6,0.8,1.3,1.5,2.2,1.9 c0.4,0.2,0.7,0.2,1.1,0c0.1-0.1,0.2-0.1,0.3-0.1c0.6-0.1,1.2-0.4,1.9-0.4c0.6,0,1.4,0.4,1.7,0.9c0.1,0.2,0.2,0.4,0,0.7 c-0.2,0.4-0.1,0.9,0.2,1.1c0.2,0.2,0.4,0.4,0.5,0.7c0.2,0.3,0.2,0.6,0.4,0.9c-0.1,0.1-0.1,0.2,0,0.4c0,0.1,0.1,0.2,0.1,0.2 c0.1,0.2,0.1,0.3-0.1,0.4c-0.1,0.1-0.2,0.2-0.2,0.3c-0.2,0.4-0.1,0.8,0,1.3c0.1,0.5,0.4,0.9,0.6,1.4c0.1,0.1,0.2,0.3,0.2,0.5 c0,0.5,0.2,0.9,0.5,1.4c0.3,0.4,0.3,0.9,0.4,1.3c0.1,0.3,0.2,0.5,0.5,0.5c0.3,0,0.6,0,0.9,0c0.3,0,0.6,0,0.8-0.1 c0.6-0.1,0.9-0.5,1.1-1c0.2-0.5,0.4-0.9,0.5-1.5c0,0,0-0.1,0-0.1c0.2-0.3,0.3-0.6,0.5-0.9c0.1-0.1,0.1-0.2,0.1-0.3 c0.1-0.4,0.3-0.6,0.4-0.9c0.1-0.2,0.3-0.3,0.5-0.4c0.3-0.1,0.5-0.3,0.7-0.7c0.2-0.6,0.1-1.1-0.3-1.6c-0.1-0.1-0.1-0.2-0.1-0.3 c-0.1-0.4,0-0.8,0.3-1.1c0.2-0.2,0.4-0.5,0.5-0.7c0.4-0.4,0.8-0.8,1.1-1.3c0.3-0.3,0.6-0.7,0.9-1c0.3-0.3,0.4-0.8,0.7-1.2 c0.1-0.1,0.1-0.3,0-0.4c-0.1-0.1-0.2-0.1-0.3-0.1c-0.3,0.1-0.7,0.2-1,0.3c-0.4,0.1-0.7,0.2-1-0.1c-0.3-0.3-0.6-0.6-0.8-0.9 c-0.1-0.1-0.2-0.3-0.4-0.4c-0.3-0.2-0.3-0.5-0.5-0.7c-0.1-0.2-0.1-0.4-0.2-0.5c-0.1-0.2-0.2-0.4-0.2-0.7c0-0.1,0-0.2-0.1-0.3 c-0.1-0.2-0.2-0.3-0.3-0.5c-0.2-0.3-0.3-0.6-0.2-1c0.3,0.1,0.5,0.3,0.6,0.5c0.1,0.2,0.2,0.3,0.4,0.4c0.2,0.1,0.2,0.2,0.3,0.3 c0.1,0.3,0.2,0.7,0.3,1c0,0,0.1,0.1,0.1,0.1c0.1,0.2,0.2,0.3,0.3,0.5c0.2,0.2,0.4,0.4,0.7,0.6c0,0.1-0.1,0.1-0.1,0.2 c0,0.1,0,0.2,0,0.2c0.2,0.1,0.4,0.2,0.7,0.3c0.1,0,0.2,0,0.3,0c0.1,0,0.2,0,0.3-0.1c0.3-0.2,0.7-0.3,1.1-0.4c0.1,0,0.2-0.1,0.3-0.2 c0.4-0.3,0.7-0.5,1.1-0.8c0.2-0.2,0.4-0.4,0.5-0.6c0.1-0.2,0.1-0.5-0.1-0.7c-0.2-0.2-0.4-0.2-0.6-0.1c-0.2,0.1-0.5,0-0.7,0 c-0.1,0-0.2,0-0.3,0c-0.1,0-0.2,0-0.2-0.1c-0.1-0.2-0.3-0.4-0.4-0.6c-0.3-0.5-0.7-0.9-0.7-1.6c0,0,0-0.1-0.1-0.1 c-0.4-0.1-0.3-0.5-0.5-0.8c0,0,0-0.1,0-0.1c0.1-0.1,0.1-0.2,0-0.4c-0.1-0.1-0.2-0.2-0.3-0.4c-0.2-0.3,0-0.5,0.3-0.6 c0.1,0,0.2,0,0.3,0c0,0,0,0,0,0c0.1,0.2,0.2,0.2,0.4,0.2c0.2,0,0.3-0.2,0.3-0.4c0-0.2,0-0.4-0.1-0.5c-0.2-0.4-0.4-0.8-0.6-1.1 c-0.1-0.2-0.1-0.3,0.1-0.4c0.2-0.1,0.3-0.3,0.5-0.4c0.2-0.1,0.3-0.2,0.5-0.2c0.3,0,0.4,0.1,0.4,0.5c-0.1,0-0.1,0-0.2,0 c-0.2,0-0.3,0.1-0.4,0.3c-0.1,0.2,0,0.4,0.2,0.5c0.1,0.1,0.2,0.1,0.3,0.1c0.2,0.1,0.3,0.2,0.5,0.4c-0.1,0-0.1,0-0.1,0.1 c-0.3,0.2-0.3,0.3-0.1,0.6c0.1,0.1,0.2,0.2,0.1,0.4c-0.1,0.2,0,0.3,0.1,0.4c0.1,0.1,0.3,0,0.4-0.1c0.1-0.1,0.2-0.1,0.3,0 c0.3,0.2,0.6,0.3,1,0.5c0.3,0.2,0.3,0.2,0.2,0.5c0,0.1-0.1,0.2-0.1,0.3c-0.1,0.3-0.1,0.5,0.2,0.7c0.2,0.1,0.2,0.2,0.1,0.4 c-0.1,0.2-0.1,0.3,0,0.4C65,48.9,65,49,65.1,49c-0.2,0.2-0.2,0.3-0.1,0.4c0.1,0.2,0.2,0.1,0.4,0.1c0.3,0,0.5,0,0.7,0.2 c0,0,0.1,0.1,0.1,0.1c0.2,0.1,0.3,0.2,0.3,0.4c0,0.1,0.1,0.2,0.2,0.3c0.2,0.2,0.4,0.3,0.6,0.5c0.2,0,0.4,0,0.6-0.1 c0,0.2,0,0.4,0,0.6c0,0.2,0,0.4,0.1,0.5c0.3,0.8,0.6,1.5,1,2.3c0,0.1,0.1,0.1,0.1,0.2c0.1,0.2,0.3,0.2,0.5,0 c0.1-0.1,0.1-0.2,0.2-0.3c0.2-0.2,0.3-0.4,0.3-0.7c0-0.3,0-0.5,0-0.8c0-0.5,0.5-1,0.9-1.2c0.2-0.1,0.4-0.2,0.6-0.2 c0.1,0,0.1-0.1,0.2-0.2c0.1-0.1,0.2-0.3,0.3-0.5c0.1,0,0.1,0,0.2,0.1c0.1,0.1,0.3,0.1,0.4,0c0.1-0.1,0.2-0.1,0.3-0.2 c0.1,0,0.2,0,0.2,0c0.3,0.2,0.6,0.4,0.8,0.8c0,0.1,0.1,0.2,0.1,0.3c0,0.2-0.1,0.3-0.1,0.5c0,0.1,0,0.2,0.1,0.2 c0.2,0.2,0.4,0.1,0.6,0c0,0.1,0.1,0.2,0.1,0.2c0.1,0.4,0.3,0.8,0.6,1.2c0.2,0.3,0.5,0.3,0.7,0.1c0.1-0.1,0.1-0.1,0.2-0.2 c0.3,0.1,0.6,0.2,0.8,0.4c0.3,0.2,0.6,0.1,0.7-0.1c0.2-0.2,0.3-0.4,0.5-0.5c0.3-0.3,0.3-0.5,0-0.8c-0.2-0.2-0.4-0.4-0.5-0.6 c-0.2-0.3-0.3-0.6-0.5-0.7c0,0-0.1-0.1-0.1-0.2c0-0.2,0.2-0.3,0.4-0.4c0.2,0,0.5,0,0.7,0c0.8,0,1.5-0.2,2.1-0.6 c0.1-0.1,0.2-0.2,0.3-0.3c0.1-0.1,0.2-0.2,0.3-0.4c0.3-0.4,0.6-0.8,1-1.2c0.1-0.1,0.1-0.3,0-0.3c-0.3-0.2-0.3-0.6-0.4-0.9 c-0.1-0.2-0.1-0.4-0.2-0.6c-0.1-0.2-0.1-0.3-0.1-0.5c0-0.2-0.1-0.4-0.4-0.5c-0.2-0.1-0.3-0.2-0.4-0.3c0.1-0.1,0.2-0.2,0.3-0.2 c0.3-0.1,0.7-0.2,1-0.3c0.3-0.1,0.4,0.1,0.7,0.2c0.1,0,0.1,0.2,0.1,0.3c0,0.3,0.2,0.5,0.5,0.5c0,0,0,0,0,0c0,0.1-0.1,0.3-0.1,0.3 c0.2,0.2,0.1,0.4,0.1,0.6c0,0.1,0,0.1,0,0.2c0.1,0,0.2,0,0.3,0c0.3,0,0.6-0.3,0.6-0.5c0-0.4,0-0.7-0.2-1c-0.1-0.1-0.1-0.2-0.2-0.3 c0.1-0.1,0.3-0.2,0.4-0.3c0.1-0.1,0.1-0.3,0.2-0.4c0.1-0.2,0.2-0.3,0.4-0.2c0.3,0.1,0.5,0.1,0.8-0.1c0.5-0.4,0.8-0.8,1.1-1.3 c0.1-0.2,0.2-0.4,0.4-0.5c0.1-0.1,0.2-0.3,0.2-0.5c0-0.3,0.1-0.5,0.1-0.8c0-0.2,0.1-0.4,0.1-0.6c0-0.4-0.1-0.6-0.5-0.6 c-0.1,0-0.2,0-0.3-0.1c-0.2-0.1-0.4-0.1-0.5,0c-0.1,0-0.1,0-0.2,0.1c0.2-0.2,0.4-0.3,0.5-0.5c0.4-0.4,0.8-0.7,1.3-1.1 c0.3-0.3,0.7-0.3,1.1-0.2c0.3,0,0.5,0,0.6-0.3c0.1-0.2,0.2-0.2,0.3-0.2c0.1,0,0.3,0.1,0.4,0.1c0.2,0.1,0.4,0.2,0.6,0.3 c0.2,0.1,0.4,0.1,0.5-0.1c0.1-0.2,0.3-0.3,0.4-0.5c0.2-0.3,0.6-0.3,0.9-0.2c0,0.4,0.3,0.5,0.6,0.3c0.1,0,0.1-0.1,0.2-0.1 c0.2-0.1,0.4-0.3,0.7-0.3c-0.2,0.2-0.4,0.3-0.5,0.5c-0.1,0.1-0.3,0.2-0.4,0.3c-0.3,0.3-0.6,0.5-1,0.8c-0.5,0.3-0.7,0.7-0.7,1.3 c0,0.4,0.2,0.8,0.3,1.1c0,0.1,0.1,0.2,0.2,0.2c0.1,0,0.2-0.1,0.2-0.1c0.1-0.1,0.1-0.2,0.1-0.4c0-0.4,0.3-0.7,0.6-0.9 c0.1-0.1,0.2-0.2,0.3-0.3c0.1-0.1,0.1-0.2,0.2-0.3c0.1-0.2,0.1-0.4,0.2-0.7c0-0.1,0-0.1,0-0.2c0.1-0.2,0.2-0.3,0.2-0.5 c0.2,0,0.4-0.1,0.7-0.1c0.1,0,0.2,0,0.3,0c0.1,0,0.2,0,0.4,0c0.6-0.1,1.1-0.4,1.6-0.7c0.1,0,0.1-0.1,0.2-0.1 c0.3-0.2,0.7-0.3,1.1-0.4c0.2,0,0.3-0.1,0.3-0.3c0-0.2,0-0.3-0.1-0.4c0,0-0.1-0.1-0.1-0.1c0.2-0.2,0.5-0.4,0.6-0.7 c0,0,0.1-0.1,0.2-0.1c0.1,0,0.2,0.1,0.2,0.1c0.2,0.1,0.4,0.1,0.6,0.1c0.2,0,0.3-0.2,0.3-0.4C99.9,34.5,99.9,34.4,100,34.3z M57.8,42.8c0.1,0,0.1,0,0.2-0.1c0.1,0,0.2-0.1,0.3-0.1c-0.1,0.2-0.1,0.3-0.2,0.4c0,0.1-0.3,0.3-0.5,0.2c-0.1-0.1-0.3-0.1-0.3-0.3 C57.5,42.9,57.6,42.8,57.8,42.8z M58.9,44.8c-0.6,0.2-1.1-0.1-1.6-0.3c-0.2-0.1-0.4-0.1-0.6-0.1c-0.2,0-0.4,0.1-0.5,0.3 c-0.2,0.3-0.3,0.3-0.5,0.1c-0.1-0.1-0.2-0.1-0.3-0.2c0,0,0-0.1,0-0.1c-0.1-0.1-0.1-0.3,0-0.4c0.2-0.3,0.5-0.6,0.6-1 c0.1-0.2,0.3-0.4,0.6-0.3c0.1,0,0.2,0.1,0.2,0.2c-0.1,0.1-0.2,0.2-0.4,0.3c0.1,0.1,0.2,0.1,0.3,0.2c0,0,0,0,0,0c0,0,0,0,0,0 c0,0.1,0,0.3,0.1,0.4c0.2,0.1,0.3,0,0.4-0.1c0.2-0.1,0.3-0.2,0.5-0.4c0.2,0.3,0.7,0.4,0.9,0.7C58.8,44.4,58.9,44.6,58.9,44.8z M19.4,34.1c0.1-0.1,0.2-0.2,0.2-0.3c0,0,0,0,0,0c-0.1,0-0.2,0.1-0.3,0c-0.1-0.1,0-0.3,0-0.4c0.1-0.1,0.3-0.2,0.5-0.1 c0.2,0.1,0.4,0.1,0.5,0.2c0.1,0.1,0.1,0.2,0.2,0.4c0.1,0,0.2-0.1,0.2-0.2c0-0.1,0-0.2-0.2-0.3c-0.1,0-0.2-0.1-0.3-0.1 c-0.1,0-0.2-0.1-0.2-0.2c0-0.2-0.1-0.5,0.2-0.6c0.1-0.1,0.1-0.2,0.1-0.3c0-0.2,0-0.5,0-0.7c0-0.3,0.1-0.4,0.4-0.4 c0.3,0,0.5,0,0.8,0.1c0.2,0,0.3,0.3,0.2,0.5c-0.1,0.1-0.3,0.2-0.5,0.3c0,0.1,0,0.3-0.1,0.5c0,0,0,0,0,0.1c0.2,0.3,0.2,0.7,0.5,0.9 c0.1,0.1,0.1,0.2,0.2,0.3c0.1,0,0.2-0.1,0.3-0.1c0.2,0,0.3,0.1,0.4,0.2c0.1,0.1,0.1,0.2,0,0.3c-0.1,0.1-0.1,0.2,0,0.2 c0.1,0,0.1,0.1,0.2,0.1c0,0,0,0,0,0c0.1-0.3,0.2-0.5,0.4-0.6c0,0,0.1-0.1,0.1-0.1c0.1-0.3-0.3-0.7-0.5-0.6c-0.3,0.1-0.4-0.1-0.5-0.3 c-0.1-0.2-0.2-0.4-0.2-0.6c0-0.7,0.7-1.2,1.3-1c0.1,0,0.2,0.2,0.3,0.3c0,0.1,0.1,0.1,0.1,0.2c0.1-0.1,0.2-0.2,0.2-0.2 c0-0.1,0.1-0.2,0.2-0.3c0.1-0.1,0.2-0.1,0.3,0c0.1,0.1,0.2,0.2,0.2,0.4c0.1,0.3,0.3,0.4,0.6,0.4c0.1,0,0.2,0,0.3-0.1 c0.1,0,0.1,0,0.2,0c0.1,0,0.2,0,0.3,0c0.1,0,0.2-0.1,0.3-0.1c0.1,0.1,0.2,0.3,0.4,0.4c0.1,0.1,0.3,0.3,0.5,0.4 c0.3,0.2,0.6,0.3,0.9,0.5c0.2,0.1,0.4,0.2,0.4,0.5c0,0.1,0,0.2,0,0.2c0.1,0,0.2,0,0.4,0c0.4,0,0.7,0.2,0.9,0.4 c0.1,0.2,0.3,0.3,0.5,0.4c0.2,0.1,0.2,0.3,0.1,0.4c-0.2,0.2-0.3,0.3-0.4,0.5c-0.1,0.1-0.2,0.2-0.4,0.1c-0.1-0.1-0.2-0.1-0.3-0.2 c-0.1-0.1-0.2-0.1-0.3-0.1c0.4,0.4,0.7,0.9,0.4,1.5c-0.2,0-0.3-0.1-0.4-0.3c0-0.1-0.1-0.1-0.2-0.1c-0.2-0.1-0.4-0.1-0.7-0.2 c0.1,0.2,0.2,0.3,0.4,0.3c0.3,0,0.4,0.2,0.6,0.3c0.1,0,0.1,0.1,0.1,0.2c0,0.1-0.1,0.1-0.2,0.1c0,0-0.1,0-0.1,0 c-0.3-0.1-0.6-0.2-0.9-0.3c0,0-0.1,0-0.1-0.1c-0.5,0-0.7-0.4-0.9-0.8c0-0.1-0.1-0.1-0.2-0.1c-0.2-0.1-0.2-0.2-0.2-0.4 c0.1-0.2,0.2-0.5,0.3-0.7c0.1-0.1,0-0.4-0.1-0.6c-0.1-0.1-0.1-0.2-0.2-0.3c-0.1-0.2-0.4-0.5-0.6-0.6c-0.2-0.1-0.4-0.2-0.7-0.3 c-0.1,0-0.2,0.1-0.4,0.1c-0.2,0-0.3,0.1-0.5,0.1c0,0.2,0.1,0.5,0.1,0.7c0.1,0.3,0,0.4-0.3,0.4c0,0-0.1,0-0.1,0c0,0.1,0,0.2,0.1,0.2 c0.1,0.1,0.1,0.2,0,0.3c-0.1,0-0.2,0.1-0.3,0c-0.1,0-0.1-0.1-0.2-0.1c-0.2-0.1-0.3-0.1-0.4,0.1c-0.1,0.3-0.3,0.5-0.4,0.8 c0,0.1-0.1,0.1-0.2,0.2c-0.2,0.1-0.3,0.2-0.5,0.2c-0.1,0-0.1,0.1-0.2,0.1c-0.1,0.4-0.5,0.5-0.8,0.7c-0.2,0.2-0.3,0.4-0.4,0.6 c-0.1,0.4,0,0.5,0.3,0.7c0,0,0.1,0,0.1,0.1c0.1,0.4,0.5,0.4,0.8,0.5c0.3,0.1,0.5,0.2,0.8,0.4c0.2,0.2,0.5,0.3,0.8,0.4 c0.1,0,0.2,0,0.3,0c0.4,0,0.7,0.3,0.6,0.6c-0.1,0.4,0,0.4,0.3,0.6c0.1,0,0.2,0.1,0.3,0.2c0-0.1,0.1-0.2,0.2-0.3 c-0.2-0.3-0.2-0.6-0.3-1c0-0.2,0.1-0.3,0.2-0.3c0.1,0,0.2-0.1,0.3-0.1c0.1-0.1,0.2-0.2,0.2-0.3c0-0.1,0-0.1,0-0.2 c0-0.1,0-0.2-0.1-0.3c-0.1-0.1-0.2-0.1-0.2-0.2C25,38,25,37.9,25.3,37.7c0.2-0.1,0.2-0.2,0-0.3c-0.2-0.3-0.2-0.4,0.1-0.5 c0.2-0.1,0.5-0.1,0.7-0.2c0.3,0,0.5,0,0.7,0.2c0.1,0.1,0.3,0.2,0.4,0.3c0.1,0,0.1,0.1,0.2,0.1c0.2,0.2,0.4,0.5,0.5,0.8 c0.1,0.2,0.3,0.3,0.5,0.1c0.1-0.1,0.2-0.2,0.3-0.3c0.2-0.2,0.3-0.2,0.5,0c0.2,0.3,0.4,0.6,0.7,0.7c0.1,0.1,0.2,0.2,0.2,0.3 c0.2,0.4,0.5,0.6,0.9,0.9c0.2,0.1,0.3,0.2,0.4,0.4c0.2,0.2,0.1,0.4,0,0.6c-0.2,0.3-0.5,0.4-0.8,0.5c-0.2,0-0.5,0.1-0.7,0.2 c-0.2,0-0.4,0.1-0.5-0.1c0,0,0,0,0,0c-0.3,0-0.6-0.1-0.8,0.1c-0.2,0.2-0.4,0.3-0.6,0.4c0,0-0.1,0.1-0.1,0.1c0,0.1,0,0.2-0.1,0.2 c0.1,0,0.2,0,0.2-0.1c0.3-0.3,0.6-0.4,1-0.3c0.2,0,0.3,0.1,0.4,0.4c0.1,0.6-0.5,1.3-1.1,1.4c-0.2,0-0.4,0.1-0.6,0.3 c-0.1,0.2-0.3,0.3-0.4,0.5c-0.1,0.2-0.3,0.3-0.5,0.3c-0.4,0.1-0.6,0.4-0.9,0.6c-0.1,0.1-0.1,0.2-0.1,0.3c0,0.5-0.2,0.9-0.5,1.3 c-0.2,0.2-0.4,0.4-0.7,0.6c-0.2,0.1-0.2,0.3-0.2,0.4c0.1,0.3,0.2,0.7,0.3,1c0,0.1,0.1,0.3,0.1,0.4c0,0.1-0.1,0.2-0.1,0.2 c-0.1,0-0.2,0-0.3,0c-0.1,0-0.1-0.1-0.1-0.1c-0.1-0.2-0.3-0.5-0.4-0.7c0-0.1-0.1-0.1-0.2-0.2c-0.2-0.1-0.4-0.2-0.5-0.4 c0,0-0.1-0.1-0.1-0.1c-0.6-0.2-1.2-0.3-1.9-0.1c-0.4,0.1-0.5,0.3-0.7,0.7c-0.1,0.4-0.3,0.8-0.5,1.2c-0.1,0.3-0.1,0.7-0.1,1 c0.1,0.4,0.5,0.8,1,0.8c0.1,0,0.3,0,0.3-0.1c0.2-0.2,0.5-0.3,0.7-0.6c0.2-0.3,0.5-0.4,0.9-0.4c0.1,0,0.2,0.1,0.2,0.2 c0,0.2,0,0.3-0.1,0.4c-0.1,0.2-0.3,0.5-0.4,0.7c0,0.1-0.1,0.2-0.1,0.3c0.2,0,0.5,0,0.7,0c0.2,0,0.4,0,0.6,0c0,0,0.1,0.1,0.1,0.1 c0,0.3,0.1,0.7,0.1,1c-0.1,0.4,0.3,0.9,0.8,0.7c0.3-0.1,0.6-0.1,0.8,0.1c0.2,0.1,0.4,0.2,0.6,0c0-0.1,0-0.2,0-0.3 c0-0.3,0.1-0.4,0.4-0.4c0.6,0,1.3,0.1,1.9,0.2c0.4,0.1,0.7,0.2,1,0.3c0.3,0.1,0.7,0.2,1,0.3c0.1,0,0.2,0.1,0.3,0.1 c0.4,0.2,0.7,0.4,1.1,0.5c0.1,0,0.2,0.1,0.3,0.1c0.6,0,0.9,0.3,1.1,0.9c0,0.1,0.1,0.2,0.2,0.3c0,0,0.1,0,0.1,0.1 c0.2,0.2,0.3,0.4,0.5,0.6c0.2,0.1,0.4,0.1,0.7,0.2c0.2,0.1,0.4,0.1,0.5,0.4c0.4,0,0.8,0,1.1,0.1c0.2,0,0.4,0.2,0.6,0.3 c0.1,0.1,0.1,0.1,0.2,0.2c0.1,0.1,0.3,0.2,0.3-0.1c0.4,0.2,0.5,0.6,0.4,1c-0.1,0.4-0.3,0.6-0.6,0.9c0,0-0.1,0.1-0.1,0.1 c-0.4,0.3-0.5,0.7-0.5,1.1c0,0.3,0,0.5-0.1,0.8c-0.1,0.2-0.1,0.4-0.2,0.6c-0.2,0.5-0.5,0.8-1,0.8c-0.4,0-0.7,0.2-1,0.5 c-0.2,0.2-0.3,0.5-0.3,0.7c0,0.6-0.2,0.9-0.6,1.3c-0.2,0.2-0.4,0.3-0.6,0.5c-0.1,0.1-0.2,0.2-0.3,0.4c-0.1,0.2-0.2,0.3-0.4,0.3 c-0.2,0-0.5,0.1-0.7,0.1c0,0.1,0.1,0.3,0.1,0.4c0.1,0.1,0.1,0.2,0,0.3c-0.1,0.3-0.4,0.4-0.7,0.5c-0.2,0-0.3,0.1-0.5,0.1 c-0.2,0.1-0.3,0.2-0.3,0.4c0,0.1,0.1,0.2-0.1,0.3c-0.1,0.1-0.3,0.1-0.4,0.1c-0.1,0-0.1,0-0.2,0C29,69.7,28.9,70,29,70.2 c0,0.1,0,0.2-0.1,0.3c-0.1,0.1-0.2,0.3-0.4,0.4c-0.2,0.2-0.2,0.5,0.1,0.6c0.1,0,0.2,0.2,0.2,0.3c-0.1,0.1-0.2,0.3-0.4,0.4 c-0.1,0.1-0.3,0.2-0.3,0.4c0,0,0,0,0,0.1c-0.3,0.2-0.2,0.4-0.1,0.7c0.1,0.5,0.5,0.8,0.7,1.2c0.1,0.1,0.1,0.2,0.2,0.3 c0.1,0.2-0.1,0.4-0.3,0.3c-0.1,0-0.1-0.1-0.2-0.1c-0.2-0.1-0.3-0.2-0.5-0.2c-0.1-0.1-0.2-0.1-0.3-0.2c-0.2-0.3-0.5-0.6-0.8-0.9 c-0.3-0.3-0.5-0.7-0.5-1.1c0-0.1,0-0.2,0.1-0.2c0.1-0.2,0.2-0.5,0.2-0.7c0.1-0.5,0.2-1.1,0.2-1.6c0-0.1,0-0.2,0-0.3 c-0.1,0-0.1,0-0.2,0c-0.2,0-0.3-0.1-0.2-0.3c0.2-0.4,0.2-0.7,0.1-1.1c0-0.1,0-0.1,0-0.2c0.4-0.4,0.5-0.9,0.5-1.5 c0-0.6,0.1-1.2,0.3-1.8c0.1-0.2,0.1-0.5,0.1-0.8c0-0.3,0.1-0.7,0.1-1c0-0.2,0-0.4,0-0.5c0-0.3-0.2-0.5-0.4-0.7 c-0.4-0.2-0.7-0.5-1.1-0.7c-0.1,0-0.1-0.1-0.1-0.2c-0.1-0.3-0.3-0.6-0.5-0.9c-0.1-0.2-0.1-0.4-0.2-0.5c0-0.1,0-0.1-0.1-0.2 c-0.1-0.3-0.3-0.5-0.4-0.8c0-0.1,0-0.2,0-0.3c0-0.1,0-0.2,0-0.2c-0.1-0.1-0.1-0.3-0.1-0.4c0-0.1,0-0.3,0-0.4c0-0.3,0.1-0.4,0.5-0.3 c0-0.1,0.1-0.1,0.1-0.2c0-0.2,0.1-0.3,0.3-0.4c0.1-0.1,0.3-0.2,0.2-0.4c0,0,0,0,0-0.1c0.2-0.4-0.2-0.7-0.4-0.9 c-0.1-0.1-0.2-0.1-0.3,0c-0.3,0.1-0.3,0.1-0.5-0.1c-0.1-0.1-0.2-0.1-0.3-0.1c-0.3,0-0.5-0.2-0.8-0.3c-0.1,0-0.1-0.2-0.1-0.3 c0-0.4-0.3-0.7-0.7-0.8c-0.6-0.2-1.1-0.4-1.6-0.8c0,0-0.1-0.1-0.2-0.1c-0.5,0.2-1,0-1.4-0.2c-0.4-0.2-0.7-0.3-1.1-0.5 c-0.2-0.1-0.4-0.2-0.5-0.4c-0.1-0.1-0.1-0.2-0.1-0.3c0-0.4-0.2-0.7-0.5-1c-0.2-0.2-0.3-0.4-0.5-0.4c0,0-0.1-0.1-0.1-0.2 c0-0.2-0.1-0.2-0.2-0.3c-0.2-0.1-0.4-0.3-0.5-0.4c-0.1-0.1-0.2-0.1-0.2-0.2c-0.1-0.3-0.4-0.4-0.7-0.4c-0.2-0.1-0.4-0.1-0.5-0.2 c-0.1,0-0.2-0.1-0.2-0.2c-0.1-0.4-0.4-0.5-0.6-0.7c-0.3-0.2-0.5-0.4-0.7-0.7c-0.2-0.2-0.3-0.4-0.4-0.6c-0.3-0.5-0.4-1.1-0.3-1.7 c0.2-0.6,0.1-1.2-0.2-1.8c-0.2-0.3-0.5-0.7-0.7-1c-0.3-0.5-0.7-0.8-1-1.3c-0.1-0.1-0.1-0.3-0.2-0.4c-0.1-0.3-0.2-0.7-0.6-0.8 c-0.3-0.1-0.5-0.3-0.7-0.3c-0.6,0-0.9-0.4-1.4-0.7c-0.3-0.2-0.5-0.3-0.9-0.3c-0.1,0-0.3-0.1-0.4-0.1c-0.5,0-1-0.1-1.5-0.1 c0,0-0.1,0-0.1,0C4.3,37.6,4,37.7,4,38c-0.1,0.2-0.1,0.3-0.3,0.4c-0.2,0.1-0.3,0.3-0.5,0.5C3.1,39,3,39.1,3,39.1 c-0.4,0.2-0.8,0.3-1.1,0.5c-0.2,0.1-0.4,0.1-0.6,0.1c0,0,0-0.1,0-0.1c0.1-0.1,0.1-0.1,0.2-0.2c0.3-0.2,0.7-0.4,1-0.6 c0.3-0.1,0.4-0.3,0.5-0.7c-0.1,0-0.2,0.1-0.3,0.1c-0.2,0.1-0.3,0.1-0.5,0c-0.1,0-0.3,0-0.4,0c-0.1,0-0.2,0-0.2,0c0-0.1,0-0.2,0-0.3 c0-0.1,0.1-0.3,0-0.4c-0.1,0-0.1,0-0.2,0.1c-0.3,0.1-0.4,0-0.5-0.2c-0.1-0.2-0.2-0.4-0.2-0.6c0-0.4,0.4-0.8,0.8-0.7 c0.1,0,0.1,0,0.2,0.1c0.2,0.1,0.3,0,0.3-0.2c0,0,0-0.1,0-0.1c-0.1,0-0.1,0-0.2,0c-0.4,0-0.8-0.1-1.2-0.2c-0.1,0-0.2-0.1-0.3-0.1 C0,35.5,0,35.3,0,35.2c0-0.2,0.2-0.3,0.4-0.3c0.2,0,0.3,0,0.4-0.1C1,34.6,1.1,34.7,1.1,35c0,0,0,0,0.1,0c0.1,0,0.3,0,0.3-0.1 c0-0.2-0.1-0.2-0.2-0.3c-0.1,0-0.1-0.1-0.2-0.1c-0.1-0.2-0.3-0.3-0.5-0.4c-0.1-0.1-0.2-0.1-0.2-0.3c0-0.2,0.1-0.2,0.3-0.2 c0.2,0,0.3-0.1,0.4-0.3c0-0.2,0.2-0.3,0.4-0.4c0.2-0.1,0.3-0.1,0.5-0.2c0.2-0.1,0.3-0.1,0.5-0.1c0.1,0,0.2,0.1,0.4,0.1 c0-0.1,0-0.2,0-0.3c0-0.1,0.1-0.2,0.2-0.2c0.2,0.1,0.5,0.1,0.7,0.2c0.3,0.1,0.5,0.2,0.7,0.4c0.1,0.1,0.2,0.1,0.3,0.2 c0.1-0.2,0.3-0.3,0.5-0.2c0.1,0.1,0.3,0,0.5,0C6.1,33,6.5,33.1,6.9,33c0.1,0,0.3,0.1,0.4,0.1c0.2,0,0.4,0,0.5,0.1 c0.1,0,0.3,0.1,0.3,0.1c0.5,0.4,1,0.5,1.6,0.4c0.6-0.1,1-0.4,1.4-0.8c0,0,0.1,0,0.1-0.1c0,0,0.1,0,0.1,0c0.1,0.2,0.2,0.4,0.4,0.5 c0.1-0.1,0.1-0.2,0.2-0.3c0-0.1,0.1-0.1,0.2-0.1c0,0,0.1,0.1,0.1,0.2c0,0,0,0.1,0,0.1c0.1,0,0.1-0.1,0.2-0.1c0.1,0,0.3-0.1,0.4-0.1 c0.3,0.1,0.5,0.1,0.8,0.3c0.3,0.2,0.5,0.3,0.9,0.2c0.2,0,0.4,0.1,0.6,0.3C15,33.9,14.9,34,14.7,34c0.1,0.1,0.1,0.1,0.2,0.1 c0.1,0,0.3,0,0.4,0.1c0,0,0.1,0,0.1,0c0.2,0,0.5-0.1,0.7-0.1c0.2,0,0.4,0.1,0.6,0.2c0-0.1,0-0.3,0-0.5c0.1,0,0.3-0.1,0.4-0.1 c0.1,0,0.3,0,0.4,0.1c0.1,0.1,0.2,0.1,0.4,0.2c0.1,0,0.1,0.1,0.2,0.1c0.1,0.1,0.3,0.2,0.4,0.1C18.8,34,19.1,34.1,19.4,34.1z M44.1,26.3c-0.4,0.3-0.7,0.5-1.1,0.5c-0.1,0-0.2,0.1-0.2,0.3c0,0.1-0.2,0.2-0.3,0.3c0,0.4-0.4,0.2-0.6,0.4c0,0,0.1,0,0.1,0.1 c0,0.1-0.1,0.2-0.2,0.3c-0.3,0.1-0.4,0.2-0.5,0.5c0.4-0.1,0.6,0.3,0.9,0.5c0,0,0.1,0.1,0,0.2c0,0.2-0.1,0.4-0.1,0.7 c-0.1-0.1-0.2-0.2-0.2-0.3c-0.1-0.3-0.3-0.3-0.6-0.1c0.1,0,0.1,0.1,0.2,0.1c0.2,0,0.3,0.2,0.4,0.3c0.1,0.2,0,0.3-0.1,0.4 c0,0,0,0,0,0.1c0.3,0.3,0.2,0.4-0.2,0.6c-0.1,0-0.3,0.1-0.4,0.2c-0.2,0.2-0.4,0.3-0.7,0.2c0,0-0.1,0-0.1,0c0.2,0.1,0.4,0.1,0.5,0.2 c-0.1,0.1-0.2,0.2-0.3,0.2c-0.1,0.1-0.2,0.2-0.2,0.4c0,0.1,0,0.2-0.2,0.2c-0.1,0-0.2,0.1-0.2,0.1c0,0-0.1,0.1-0.1,0.2 c0,0.1,0.1,0.1,0.2,0.1c0.1,0,0.2,0,0.4,0c0.1,0,0.1,0,0.2,0c0.1,0,0.3,0,0.3,0.1c0.1,0.1-0.1,0.2-0.2,0.3c-0.4,0.4-1,0.6-1.6,0.7 c-0.3,0.1-0.6,0.1-0.9,0.2c-0.1,0-0.2,0.1-0.3,0.2c-0.1,0.1-0.2,0.2-0.3,0.4c-0.3,0.4-0.7,0.5-1.2,0.6c-0.1,0-0.3,0-0.5,0 c0,0.1,0,0.2,0,0.3c0,0.3-0.1,0.5-0.3,0.7c-0.1,0.1-0.2,0.2-0.2,0.3c-0.2,0.4-0.3,0.7-0.4,1.1c-0.1,0.2-0.2,0.2-0.4,0.2 c-0.2,0-0.3-0.1-0.4-0.2c0-0.1-0.1-0.2-0.1-0.3c-0.1,0-0.1,0.1-0.2,0.1c-0.1,0-0.2,0-0.3,0c-0.5-0.3-0.8-0.8-0.9-1.3 c-0.1-0.4-0.3-0.6-0.5-0.9c-0.3-0.2-0.3-0.9-0.2-1.2c0.1-0.1,0.2-0.2,0.4-0.2c0.1,0,0.1,0,0.2,0c0-0.1,0-0.1,0-0.2 c-0.1-0.6-0.2-1.1-0.6-1.6c-0.3-0.4-0.6-0.9-0.9-1.3c-0.1-0.1-0.2-0.3-0.3-0.4c-0.1-0.1-0.3-0.3-0.4-0.4c-0.1-0.1-0.2-0.1-0.3-0.1 c-0.3,0-0.5,0-0.8,0c-0.1,0-0.3-0.1-0.4-0.1c-0.3,0-0.6-0.1-0.9-0.1c-0.1,0-0.3-0.1-0.4-0.1c-0.2-0.1-0.2-0.1,0-0.3 c-0.2-0.1-0.3-0.2-0.5-0.3c-0.1-0.1-0.3-0.1-0.3-0.3c0-0.2,0.2-0.2,0.3-0.2c0.2-0.1,0.3-0.1,0.5-0.2c0.1,0,0.2-0.1,0.3-0.1 c0.2-0.1,0.4-0.1,0.6-0.2c0.1,0,0.2-0.1,0.2-0.3c0-0.2,0.1-0.3,0.2-0.4c0,0,0.1-0.1,0.1-0.1c0.2-0.4,0.3-0.4,0.7-0.3 c0.1-0.1,0.2-0.2,0.2-0.3c0.3-0.2,0.5-0.4,0.9-0.4c0.2,0,0.4-0.1,0.5-0.1c0.2,0,0.4,0,0.6,0.2c0.1-0.1,0.2-0.2,0.3-0.2 c0.1,0,0.2,0.1,0.3,0.1c0.1,0,0.2,0,0.2,0c0-0.1,0-0.2,0-0.3c0.4,0,0.5,0,0.7,0.1c0.2,0.1,0.4,0.2,0.7,0.2c0,0,0,0,0-0.1 c-0.1,0-0.1-0.1-0.2-0.1c-0.2-0.1-0.1-0.4,0.1-0.5c0.2-0.1,0.5-0.1,0.7-0.2c0.1,0,0.1,0,0.2,0c0.3,0.1,0.7,0.1,1,0.2 c0.2,0,0.3,0,0.4-0.2c0-0.1,0.1-0.1,0.2-0.1c0.2-0.1,0.5-0.1,0.7-0.1c0.4,0,0.8,0,1.1,0c0.2,0,0.3,0,0.5,0c0.1,0,0.3,0.1,0.4,0.1 c0.2,0,0.3,0,0.4,0.2c0.1,0.1,0.3,0.1,0.4,0.2c0.2,0.1,0.3,0.1,0.5,0.2c-0.1,0.4-0.2,0.4-0.7,0.4c-0.2,0-0.4,0-0.7,0c0,0,0,0,0,0.1 c0.3,0,0.5,0.1,0.9,0.1c-0.1,0.1-0.2,0.1-0.2,0.2c0.2,0,0.4,0,0.5-0.2c0.1-0.1,0.3-0.2,0.4,0c0.1,0.1,0.1,0.3,0,0.5c0,0,0,0,0,0.1 c0.1,0,0.2,0,0.3-0.1c0.2-0.3,0.4-0.3,0.7-0.2c0.2,0.1,0.3,0.1,0.4-0.1c0.2-0.2,0.4-0.2,0.7-0.1c0.1,0,0.3,0,0.4,0 C43.7,26.2,43.9,26.2,44.1,26.3z M84.1,61.3c0-0.4,0.2-0.5,0.4-0.6c0.4-0.2,0.8-0.3,1.2-0.4c0.1,0,0.3,0,0.4,0 c0.2,0,0.3,0.2,0.1,0.3c-0.1,0.1-0.2,0.2-0.3,0.3c-0.2,0.2-0.2,0.3,0,0.5c0.2,0.1,0.3,0.3,0.5,0.5c0.1,0.1,0.2,0.2,0.4,0.2 c0.2,0,0.3,0,0.5,0c0-0.3,0.1-0.7,0.1-1c0-0.2,0-0.4,0.1-0.6c0,0,0-0.2,0-0.2c0-0.1,0.1-0.1,0.2-0.2c0.1,0,0.2,0.1,0.2,0.2 c0.2,0.8,0.6,1.5,0.9,2.2c0,0.1,0.1,0.2,0.2,0.2c0.1,0.1,0.3,0.2,0.4,0.3c0.3,0.2,0.3,0.5,0.5,0.8c0.1,0.2,0.3,0.3,0.4,0.5 c0.2,0.2,0.4,0.4,0.5,0.7c0.2,0.3,0.1,0.7,0.2,1c0,0.2,0,0.4-0.2,0.6c-0.4,0.3-0.7,0.7-0.8,1.3c0,0.1,0,0.2-0.1,0.4 c0,0.2-0.2,0.3-0.4,0.3c-0.1,0-0.3,0.1-0.4,0.1c-0.2,0.1-0.4,0.1-0.5,0c-0.2-0.1-0.4-0.1-0.6,0c-0.2,0.1-0.4,0.1-0.6,0 c-0.1-0.1-0.1-0.2-0.2-0.3c0-0.2-0.1-0.4-0.3-0.5c-0.3-0.1-0.4-0.3-0.5-0.6c0-0.1,0-0.3-0.1-0.4c-0.2-0.1-0.2,0-0.3,0.1 c0,0.1-0.1,0.2-0.1,0.4c-0.1,0.2-0.3,0.3-0.5,0.1c-0.1-0.1-0.2-0.3-0.3-0.4c-0.1-0.2-0.3-0.3-0.5-0.3c-0.5-0.1-1.1-0.1-1.6,0 c-0.2,0-0.4,0.2-0.5,0.3c-0.2,0.2-0.4,0.3-0.7,0.2c-0.1,0-0.2,0-0.2,0c-0.3,0.2-0.6,0.3-1,0.3c-0.1,0-0.2,0-0.3,0 c-0.2,0-0.3-0.1-0.4-0.2c-0.1-0.1-0.1-0.3,0-0.4c0.2-0.3,0.2-0.6,0-0.9c-0.2-0.3-0.2-0.7-0.2-1c0-0.2-0.1-0.3-0.1-0.5 c0-0.2-0.1-0.4-0.1-0.6c0-0.4,0.3-0.7,0.7-0.8c0.4-0.1,0.8-0.2,1.2-0.5c0.5-0.3,0.9-0.7,1.4-1.1c0.1-0.1,0.2-0.3,0.3-0.4 c0.1-0.1,0.2-0.1,0.3,0C83.7,61.2,83.9,61.3,84.1,61.3z M28.2,26.7c0.1,0.3-0.2,0.4-0.4,0.5c-0.1,0-0.3,0.1-0.3,0.2 c0,0.1-0.1,0.1-0.2,0.1c-0.1,0.1-0.3,0.1-0.5,0.2c-0.2,0-0.3,0.1-0.4,0.3c-0.2,0.3-0.4,0.6-0.8,0.6c-0.1,0-0.2,0.1-0.3,0.2 C25.3,29,25.2,29,25,28.8c-0.1-0.1-0.2-0.1-0.4,0c0.1,0.1,0.2,0.1,0.3,0.1c0.1,0,0.2,0.1,0.4,0.1c0.2,0.1,0.2,0.3,0,0.4 c-0.1,0-0.2,0.1-0.2,0.1c-0.2-0.1-0.5,0-0.7,0c-0.3,0-0.6,0-0.9,0c-0.1,0-0.2-0.1-0.3-0.1c-0.1,0-0.2,0.1-0.3,0.1 c-0.3,0-0.6-0.1-0.9-0.2c0,0.1,0,0.2,0.1,0.4c0,0,0.1,0.1,0.2,0c0.3-0.1,0.5,0.1,0.8,0.1c0.1,0,0.2,0,0.3,0c0.3-0.2,0.7-0.2,1.1-0.2 c0.1,0,0.2,0,0.2,0c0.3-0.1,0.4,0.1,0.5,0.3c0.1,0.1,0,0.2-0.1,0.3c-0.2,0.2-0.4,0.2-0.6,0.2c-0.1,0-0.3-0.1-0.4-0.1 c-0.2,0-0.4-0.1-0.5,0c0,0-0.1,0-0.2,0c-0.3,0-0.6,0-0.9-0.1c-0.2,0-0.5-0.1-0.7-0.1c-0.1,0-0.2-0.3-0.2-0.4c0-0.1,0-0.2,0.1-0.3 c-0.1,0-0.1,0-0.2,0c-0.1,0-0.2,0-0.2,0c-0.1-0.2-0.3-0.1-0.5-0.2c-0.2,0-0.3-0.1-0.5-0.1c-0.1,0-0.1-0.2-0.1-0.2 c0-0.1,0.1-0.1,0.2-0.1c0.3,0,0.6,0.1,1,0.1c0.1,0,0.2,0,0.4,0c0.4,0,0.7-0.2,1.1-0.3c0-0.1-0.1-0.2-0.1-0.3c0-0.1,0.1-0.2,0.2-0.3 c0-0.1,0-0.2-0.1-0.3c0,0,0,0-0.1,0c0,0.1,0,0.1,0,0.2c0,0-0.1,0-0.1,0.1c-0.1,0.2-0.3,0.2-0.5,0.2c-0.3,0-0.6,0-0.9-0.3 c0,0-0.1,0-0.1-0.1c-0.3-0.1-0.3-0.1-0.3-0.3c-0.2-0.2-0.3-0.3-0.5-0.4c-0.1-0.1-0.1-0.4,0-0.5c0.2-0.1,0.3-0.3,0.4-0.4 c0.2-0.2,0.5-0.2,0.7,0c0.3,0.1,0.5,0.3,0.7,0.5c0.1,0.1,0.2,0.1,0.3,0.2c0,0,0-0.1,0-0.1c0.3,0,0.3,0,0.3,0.2 c0.2,0.1,0.3,0,0.4-0.1c-0.3-0.1-0.5-0.2-0.8-0.3c-0.2-0.1-0.3-0.2-0.4-0.4c0.1-0.1,0.2-0.2,0.3-0.3c0.2-0.2,0.4-0.3,0.7-0.3 c0.1,0,0.2,0,0.3-0.1c0.2-0.2,0.5-0.1,0.6,0.3c0.1-0.1,0.3-0.1,0.4-0.3c0.1-0.2,0.3-0.2,0.5-0.3c0.2-0.1,0.5-0.1,0.7-0.1 c0.1,0,0.1,0,0.2,0c0.3,0.2,0.7-0.1,1,0c0.1,0,0.3,0,0.4-0.1c0.4-0.1,0.8,0,1.2,0c0.4,0.1,0.8,0.2,1.3,0.1c0,0,0.1,0,0.1,0 c0.2,0.1,0.4,0.2,0.6,0.2c0,0,0.1,0.1,0.1,0.2c0,0.1-0.1,0.2-0.1,0.2c-0.2,0.1-0.4,0.1-0.5,0.2c-0.1,0-0.1,0.1-0.2,0.1 c-0.2,0.3-0.4,0.3-0.7,0.3C28.5,26.6,28.4,26.6,28.2,26.7z M23.3,29c0-0.1,0-0.1,0-0.2c0.1-0.2,0-0.3-0.2-0.3c-0.1,0-0.2,0-0.3,0 c0,0,0,0,0,0C23,28.7,23.1,28.8,23.3,29z M15.7,32.8c-0.3-0.1-0.6-0.1-0.9-0.1c-0.3,0-0.6,0.1-0.9-0.2c0.1-0.1,0.3-0.1,0.4-0.2 c-0.2-0.1-0.3-0.1-0.5-0.2c-0.1,0-0.1-0.1-0.1-0.2c0.2-0.2,0.3-0.5,0.7-0.5c0.1,0,0.2-0.1,0.4-0.1c0.3-0.1,0.3-0.1,0.4,0.2 c0,0,0.1,0,0.1-0.1c0,0,0.1,0,0.1-0.1c0.2,0.1,0.5,0.1,0.5,0.3c0.1,0,0.1-0.1,0.2-0.1c0-0.1,0-0.1,0-0.2c0.1-0.2,0.5,0.1,0.7,0.4 c0-0.1,0-0.2,0-0.3c-0.1-0.3-0.1-0.3,0.1-0.5c0.3-0.1,0.7-0.1,1,0.1c0,0.1,0,0.1,0,0.2c-0.3,0.3-0.1,0.5,0,0.7 c0,0.1,0.1,0.2,0.1,0.3c0,0.2,0.1,0.2,0.2,0.2c0.2,0,0.4,0,0.5,0.1c0.3,0.1,0.3,0.2,0.2,0.5c-0.2,0-0.4,0.1-0.5,0.1 c0,0.1,0.2,0.2,0.1,0.3c-0.4,0.2-0.7,0-1-0.2c0-0.1-0.1-0.1-0.1-0.2c0,0-0.1,0.1-0.1,0.1c0,0-0.1,0.1-0.1,0.1 c-0.3,0.1-0.7,0.2-1,0.3c-0.2-0.1-0.4,0-0.6,0c-0.1,0-0.2-0.1-0.2-0.2c0-0.1-0.1-0.2-0.2-0.2c-0.2,0-0.3-0.1-0.5-0.2 c-0.1,0-0.1-0.1-0.1-0.2c0.1,0,0.1-0.1,0.2-0.1c0.3-0.1,0.5-0.1,0.8,0C15.5,33,15.6,32.9,15.7,32.8C15.7,32.9,15.7,32.8,15.7,32.8z M89.2,59.1c0.2,0.2,0.3,0.4,0.6,0.5c0.2,0.1,0.4,0.2,0.3,0.4c0,0-0.1,0.1-0.1,0.1c-0.3,0-0.5-0.1-0.7-0.2c-0.2-0.1-0.4-0.3-0.6-0.5 c-0.2-0.2-0.3-0.1-0.5,0c-0.2,0.1-0.5,0.2-0.7,0.3c-0.1,0-0.3-0.1-0.4-0.2c-0.1-0.1-0.2-0.1-0.3-0.1c-0.1,0-0.2,0-0.3,0 c0-0.1,0-0.2,0-0.3c0.1-0.4,0.1-0.5-0.3-0.6c-0.1,0-0.3-0.1-0.4-0.2c-0.1,0-0.3-0.1-0.4-0.1c-0.4,0-0.5-0.1-0.6-0.5 c0-0.1,0-0.2-0.2-0.3c-0.1-0.1-0.3-0.1-0.2-0.3c0.1-0.1,0.4-0.2,0.5-0.1c0.2,0.2,0.5,0.3,0.6,0.6c0.1,0.2,0.3,0.2,0.5,0 c0.3-0.3,0.6-0.3,1-0.2c0.4,0.1,0.8,0.4,1.2,0.4c0,0,0.1,0,0.1,0c0.4,0.3,0.8,0.4,1.2,0.4c0.2,0,0.3,0.1,0.5,0.1 c0.1,0,0.2,0,0.3-0.2c0-0.1,0.1-0.1,0.2-0.1c0.1,0.1,0.2,0.1,0.1,0.2c0,0.1-0.1,0.2-0.2,0.3c-0.2,0.1-0.4,0.2-0.5,0.2 c0,0-0.1,0-0.2,0C89.5,58.9,89.5,58.9,89.2,59.1z M77.1,57.7c0.1-0.1,0.1-0.1,0.2-0.1c0.1,0,0.2,0,0.2,0c0.1,0,0.1,0.1,0.1,0.2 c0,0.1-0.1,0.2-0.1,0.2c-0.1,0.4,0,0.6,0.3,0.9c0.2,0.1,0.4,0.2,0.5,0.3c0.1,0.1,0.2,0.1,0.3-0.1c0.1-0.2,0.2-0.1,0.4-0.1 c0.3,0.1,0.6,0.1,0.9,0.3c0.2,0.2,0.6,0.2,0.9,0.1c0.1,0,0.2-0.1,0.2,0c0.3,0,0.6,0.1,0.9-0.1c0.1-0.1,0.3,0,0.3,0.2 c0,0.2-0.1,0.2-0.2,0.2c-0.2,0-0.3,0-0.5,0c-0.2-0.1-0.3-0.1-0.5,0c-0.4,0.2-0.8,0.1-1.2,0c-0.2,0-0.3-0.1-0.5-0.1 c-0.2,0-0.4,0-0.6,0c-0.7,0.1-1.2-0.2-1.8-0.6c-0.1-0.1-0.2-0.1-0.3-0.2c-0.4-0.2-0.7-0.6-0.9-1c-0.4-0.6-0.8-1.3-1.3-1.8 c0,0-0.1-0.1-0.1-0.1c0-0.1,0-0.1,0-0.2c0,0,0.1-0.1,0.2,0c0.4,0.1,0.7,0.3,0.9,0.6c0.1,0.1,0.2,0.2,0.3,0.3 c0.1,0.1,0.2,0.1,0.3,0.1c0.1-0.2,0-0.3-0.1-0.4c-0.1-0.1-0.2-0.2-0.2-0.4c0-0.3-0.2-0.5-0.4-0.7c-0.1-0.1-0.1-0.2-0.2-0.3 c0,0,0,0,0.1-0.1c0.1,0,0.1,0,0.2,0.1c0.1,0.1,0.3,0.2,0.4,0.4c0,0.1,0.1,0.1,0.2,0.2c0.3,0.1,0.5,0.3,0.6,0.6 c0.1,0.3,0.2,0.5,0.4,0.8c0,0.1,0,0.2,0.1,0.4c-0.2,0-0.3-0.1-0.5-0.1c-0.1,0.2-0.1,0.3,0.1,0.4C77,57.4,77,57.5,77.1,57.7z M87.6,44.5c0.1,0.2,0.1,0.3,0.2,0.5c0.1,0.2,0.1,0.3,0,0.5c-0.2,0.3-0.3,0.7-0.3,1.1c0,0.1-0.1,0.2-0.1,0.3c0,0.1-0.1,0.1-0.1,0.2 c0,0.1,0,0.3-0.1,0.4c0,0.1,0,0.2-0.2,0.2c-0.1,0-0.2-0.1-0.2-0.2c0-0.1,0-0.1,0-0.2c0-0.1,0-0.2-0.1-0.4c-0.1,0-0.2,0.1-0.3,0.1 c-0.2,0.1-0.4,0.2-0.6,0.3c-0.1,0-0.1,0-0.2,0c-0.1,0-0.3,0.1-0.4,0.1c-0.1,0-0.2,0-0.4,0c-0.1,0.2-0.1,0.5-0.4,0.6 c0-0.1-0.1-0.1-0.1-0.2c-0.1-0.1-0.1-0.2-0.2-0.4c-0.1-0.1-0.1-0.3,0-0.4c0.2-0.1,0.4-0.2,0.5-0.3c0.3-0.2,0.7-0.3,1-0.4 c0.2,0,0.3-0.1,0.3-0.3c0,0,0,0,0,0c0.1-0.3,0.2-0.4,0.5-0.2c0.3-0.3,0.5-0.6,0.5-1.1c0-0.2-0.1-0.3,0-0.5c0-0.1,0.1-0.2,0.1-0.2 c0-0.1,0.1-0.1,0.2-0.2c0,0,0.1,0,0.1,0.1c0,0,0-0.1,0-0.1c0-0.1-0.1-0.2-0.1-0.2c0-0.2,0.1-0.3,0.3-0.3c0.2,0,0.3,0.1,0.5,0.1 c0.1,0,0.2,0.1,0.3,0.1c0.1,0,0.2,0,0.3,0.2c0.1,0.1,0,0.2-0.1,0.3c0,0,0,0,0,0c-0.3,0.1-0.6,0.3-0.9,0.4 C87.8,44.5,87.7,44.5,87.6,44.5z M81.2,56.9c-0.3-0.1-0.4,0-0.4,0.2c-0.1,0.3-0.3,0.6-0.2,0.9c0,0.1-0.1,0.2-0.2,0.2 c-0.2,0-0.5,0-0.6-0.2c0,0-0.1-0.1-0.1-0.2c-0.1,0-0.2,0.1-0.3,0.2c-0.3,0.2-0.5,0.1-0.6-0.2c-0.1-0.1-0.1-0.3-0.2-0.4 c0-0.1-0.1-0.2-0.1-0.4c-0.1-0.3,0-0.5,0.3-0.6c0.2,0,0.3-0.1,0.5-0.2c0.1-0.1,0.3-0.2,0.4-0.3c0.2-0.1,0.3-0.2,0.4-0.4 c0.1-0.1,0.3-0.3,0.4-0.4c0.1-0.1,0.2-0.1,0.3-0.1c0.1,0.1,0.3,0.2,0.4,0.3c0.1,0.1,0.1,0.3,0,0.5C81,56,81,56.1,81,56.2 C81.1,56.4,81.2,56.7,81.2,56.9z M60.2,62.6c-0.3-0.2-0.3-0.3-0.2-0.6c0.1-0.2,0.2-0.3,0.5-0.4c0.1,0,0.1-0.1,0.2-0.1 c0.1-0.1,0.2-0.2,0.4-0.3c0.2-0.2,0.4-0.1,0.5,0.2c0,0.2,0,0.5,0,0.7c0,0.1,0,0.2,0,0.2c0,0.4-0.1,0.8-0.3,1.2 c-0.1,0.2-0.2,0.4-0.2,0.6c-0.1,0.2-0.2,0.5-0.4,0.6c-0.3,0.2-0.6,0-0.6-0.3c0-0.1,0-0.1,0-0.2c0-0.2,0-0.4-0.1-0.6 c-0.1-0.2,0-0.3,0.1-0.5C59.9,62.9,60,62.8,60.2,62.6z M51.9,27.6c0.1-0.1,0.2-0.2,0.3-0.2c0.2,0,0.6,0.2,0.7,0.4 c0.3,0,0.6,0.1,0.9,0.4c0.1,0.1,0.3,0.1,0.4,0.2c0.1,0.1,0.3,0.2,0.4,0.3c-0.3,0.5-0.7,0.3-1.2,0.2c0-0.1,0-0.1,0-0.2 c0-0.2-0.1-0.2-0.2-0.3c-0.1,0-0.2,0-0.3,0.1c-0.2,0.2-0.2,0.4-0.3,0.7c-0.1,0.3-0.3,0.4-0.6,0.3c-0.1,0-0.2,0-0.2-0.1 c-0.4-0.4-0.9-0.7-1.1-1.3c-0.2-0.4,0-0.6,0.3-0.7C51.3,27.4,51.6,27.4,51.9,27.6z M46.2,41.1c-0.1,0-0.3-0.1-0.3-0.1 c0-0.1,0-0.3,0.1-0.4c0.1-0.2,0.3-0.3,0.6-0.2c0-0.1-0.1-0.2-0.1-0.3c-0.1,0.1-0.1,0.1-0.2,0.1c-0.1,0.1-0.2,0-0.3-0.1 c0-0.1,0-0.3-0.1-0.4c-0.3,0-0.4-0.1-0.3-0.4c0-0.3,0.1-0.6,0.3-0.8c0.1-0.1,0.2-0.2,0.3-0.2c0.1-0.1,0.3-0.1,0.4,0.1 c0,0.1,0,0.2,0,0.3c0.1,0,0.2,0.1,0.4,0.1c-0.1,0.2-0.2,0.3-0.3,0.5c0.1,0.1,0.3,0.2,0.3,0.3c0.1,0.2,0.2,0.4,0.4,0.5c0,0,0,0,0,0 c0.1,0.2,0.2,0.4,0.5,0.5c0.1,0,0.1,0.2,0,0.3c0,0.1-0.1,0.2-0.2,0.3c-0.1,0.1-0.2,0.2-0.4,0.2c-0.4,0.1-0.7,0.2-1.1,0.2 c-0.1,0-0.2,0-0.3,0c-0.1,0-0.1,0-0.2-0.1c0-0.1,0-0.2,0.1-0.2C46,41.3,46.1,41.2,46.2,41.1z M97.1,69.7c-0.1,0.1-0.2,0.2-0.3,0.3 c0,0-0.1,0.1-0.1,0.2c0,0.2-0.1,0.3-0.3,0.5c-0.2,0.2-0.3,0.3-0.5,0.5c-0.2,0.3-0.6,0.4-0.9,0.3c-0.4-0.1-0.4-0.4-0.2-0.6 c0.2-0.2,0.3-0.3,0.6-0.4c0.2-0.1,0.3-0.2,0.4-0.4c0.2-0.2,0.4-0.3,0.4-0.6c0-0.1,0.2-0.1,0.3-0.1c0.1,0,0.3,0.1,0.4,0.1 c0-0.1,0.1-0.2,0-0.3c-0.2-0.2-0.2-0.3,0-0.6c0.1-0.1,0.1-0.1,0.2-0.2c-0.1-0.1-0.2-0.2-0.3-0.3c-0.1-0.2-0.2-0.3-0.3-0.5 c0-0.1,0-0.2,0.1-0.3c0.1-0.1,0.2,0,0.3,0.1c0.1,0.3,0.3,0.5,0.6,0.7c0.1,0.1,0.2,0.1,0.3,0.1c0.1,0,0.3,0.1,0.4,0.1 c0.1,0.1,0.2,0.2,0.1,0.3c0,0-0.1,0.1-0.1,0.1c-0.2,0.1-0.3,0.3-0.4,0.5C97.6,69.4,97.4,69.7,97.1,69.7z M42,36.3 c-0.1,0-0.3,0-0.4,0c-0.1,0-0.1,0-0.2-0.1c-0.2-0.2-0.4-0.4-0.6-0.5c-0.1-0.1-0.2-0.7-0.1-0.8c0-0.1,0.1-0.1,0.2-0.1 c0.1,0,0.2,0,0.4,0.1c0.1,0,0.2,0.3,0.4,0.2c0.1,0,0.3-0.1,0.4-0.1c0,0,0.1,0,0.2,0c0.1,0,0.3,0,0.4-0.1c0.2-0.1,0.4-0.1,0.6,0 c0.1,0.1,0.2,0.1,0.3,0.2c0.2,0.1,0.2,0.3,0.1,0.5c-0.1,0.1-0.2,0.2-0.3,0.3c-0.2,0.1-0.5,0.3-0.7,0.4C42.4,36.2,42.2,36.3,42,36.3 C42,36.3,42,36.3,42,36.3z M11.9,32.1c0.1-0.5,0.4-0.8,0.3-1.3c0,0,0.1-0.1,0.1-0.1c0.4,0,0.8-0.1,1.2,0c0.2,0.1,0.3,0.1,0.5,0.1 c0.3,0,0.6,0.2,0.8,0.4c-0.3,0.1-0.5,0.2-0.8,0.3c-0.3,0.1-0.5,0.3-0.6,0.6c-0.1,0.1-0.1,0.3-0.3,0.3c-0.1,0-0.2,0.1-0.2,0.1 c-0.1,0-0.2,0-0.2,0C12.4,32.2,12.2,32.1,11.9,32.1z M75.2,26.9c-0.1,0.1-0.1,0.2-0.2,0.3c0.1,0.1,0.3,0.1,0.4,0.2 c0.2,0,0.3,0,0.4,0.3c0,0.2-0.1,0.5-0.3,0.6c-0.2,0.1-0.4,0.1-0.6,0c-0.2-0.1-0.4-0.2-0.7-0.2c-0.1,0-0.1,0-0.2-0.1 c-0.2-0.1-0.4-0.2-0.6-0.4c-0.3-0.2-0.3-0.4,0-0.6c0.3-0.2,0.7-0.3,1-0.5C74.8,26.4,75.1,26.6,75.2,26.9z M17.6,29.9 c0,0.1,0,0.1-0.1,0.2c-0.1,0.2-0.2,0.3-0.4,0.3c-0.5,0-1,0.1-1.5,0.3c-0.2,0.1-0.4,0-0.6-0.1c0.1,0,0.1-0.1,0.2-0.1 c-0.4,0-0.8,0-1.2-0.2c0.1-0.1,0.3-0.2,0.3-0.3c0.2-0.3,0.2-0.3,0.4-0.4c0.1,0,0.1,0,0.2,0c0.1,0.1,0.2,0.1,0.4,0.1 c0.2,0,0.4,0.1,0.5,0.2c0.1,0.2,0.2,0.2,0.4,0.2c0.1,0,0.2,0,0.2,0c-0.1-0.1-0.2-0.3-0.3-0.4c0,0,0,0,0-0.1c0-0.1,0.2-0.3,0.4-0.3 c0.1,0,0.2,0,0.3,0.1c0.1,0.3,0.1,0.3,0.5,0.3C17.4,29.7,17.5,29.8,17.6,29.9z M88.1,43c-0.1-0.1-0.1-0.1-0.2,0 c0,0.1-0.1,0.1-0.1,0.2c-0.1,0.1-0.3,0-0.3-0.1c-0.1-0.2-0.1-0.4-0.1-0.6c0-0.1,0-0.3,0.1-0.4c0-0.3,0.1-0.5,0.1-0.8 c0-0.3,0.1-0.5,0.2-0.8c0-0.1,0.1-0.2,0.2-0.2c0.1,0,0.2,0.1,0.2,0.3c0,0.2,0.1,0.4,0.1,0.6c0.1,0.3,0.1,0.6,0,0.8 c-0.1,0.1-0.1,0.3,0,0.5C88.3,42.6,88.3,42.8,88.1,43z M88.6,30.1C88.6,30.1,88.6,30.1,88.6,30.1c-0.1,0.4-0.5,0.5-0.8,0.5 c-0.3,0-0.6,0-0.9,0c-0.2,0-0.4-0.1-0.5-0.3c-0.1-0.2,0-0.4,0.2-0.5c0.2-0.1,0.5-0.1,0.8-0.1c0.2,0,0.5,0,0.7,0 c0.1,0,0.3,0.1,0.4,0.2C88.5,29.9,88.6,30,88.6,30.1z M19.8,31.5c0.1,0,0.1,0.1,0.2,0.1c0.1,0,0.2,0.1,0.2,0.2 c0,0.1-0.1,0.3-0.2,0.3c-0.2,0-0.3,0.1-0.4,0.3c-0.1,0.1-0.4,0.1-0.5-0.1c-0.1-0.2-0.3-0.3-0.5-0.4c-0.1,0-0.3-0.1-0.2-0.3 c0-0.1,0.2-0.1,0.4,0c0,0,0.1,0.1,0.1,0.1c0-0.2,0-0.2-0.1-0.3c-0.1,0-0.1-0.1-0.2-0.2c0.1,0,0.1-0.1,0.2-0.1 c0.3-0.1,0.5-0.1,0.8-0.1c0.2,0,0.3,0.1,0.3,0.3C19.9,31.3,19.9,31.4,19.8,31.5z M52.6,27.3c0.2-0.3,0.5-0.3,1,0 c0.2-0.3,0.5-0.3,0.8-0.2c0.2,0,0.3,0.1,0.5,0.1c0.3,0.1,0.3,0.2,0.1,0.4c-0.1,0.1-0.3,0.2-0.5,0.3c-0.2,0.1-0.3,0.1-0.5,0 c-0.1,0-0.3-0.1-0.4-0.1C53.3,27.8,52.8,27.6,52.6,27.3z M82.3,58.7c-0.2-0.1-0.4-0.2-0.6-0.3c0,0-0.1,0-0.1,0.1 c0,0.1-0.1,0.2-0.2,0.1c-0.1,0-0.2-0.1-0.2-0.2c0-0.2-0.1-0.3-0.1-0.5c0-0.2,0.1-0.4,0.2-0.6c0,0,0.1-0.1,0.1-0.1 c0.1,0.1,0.2,0.1,0.3,0.2c0.1,0,0.3-0.1,0.4-0.2c-0.1,0.2-0.2,0.4,0,0.5c0.1,0.1,0.3,0.2,0.5,0.3C82.6,58.3,82.5,58.5,82.3,58.7z M44.6,40c0.2,0,0.3-0.1,0.4-0.1c0.1,0,0.2,0,0.3-0.1c0.3-0.3,0.5-0.3,0.7,0.2c-0.1,0.1-0.2,0.1-0.2,0.2c0.1,0.3,0.1,0.5-0.1,0.7 c-0.2,0-0.4,0.1-0.5,0.2c-0.1,0.1-0.2,0.1-0.4,0.1c-0.2-0.1-0.2-0.2-0.1-0.4C44.8,40.5,44.8,40.3,44.6,40z M88.4,69.6 c0-0.3,0.1-0.4,0.4-0.4c0.1,0,0.2,0.1,0.3,0.1c0.1,0,0.2,0,0.3,0c0.1,0,0.2,0,0.3,0.1c0.1,0.1,0,0.2-0.1,0.3 c-0.1,0.1-0.1,0.2-0.2,0.3c-0.1,0.4-0.4,0.5-0.7,0.3C88.5,70.2,88.4,69.9,88.4,69.6z M19.2,29.4c0.1,0,0.1,0,0.2,0 c0.2,0,0.4,0,0.5,0.2c0.1,0.1,0.1,0.3,0.1,0.5c0,0,0,0.1-0.1,0.1c-0.3,0.2-0.5,0.3-0.9,0.2c-0.1,0-0.1-0.1-0.1-0.1 c0-0.1-0.1-0.2-0.2-0.3c-0.1-0.1-0.1-0.2-0.2-0.3c0,0,0-0.1,0.1-0.2C18.8,29.5,19,29.5,19.2,29.4C19.2,29.4,19.2,29.4,19.2,29.4z M76.5,27.7c0.3,0,0.5,0.1,0.7,0.4c0.1,0.1,0.1,0.2,0,0.3c0,0.1-0.2,0.1-0.3,0.2c0,0-0.1,0-0.2,0c-0.3,0-0.5,0-0.8,0.2 c0,0-0.1,0.1-0.2,0.1c-0.1,0-0.2,0-0.2-0.1c0-0.1-0.1-0.2,0-0.2c0.2-0.2,0.3-0.4,0.5-0.6C76.2,27.7,76.4,27.7,76.5,27.7z M82.5,55.2 c-0.1,0-0.2-0.1-0.3-0.1c-0.1,0-0.2-0.1-0.1-0.2c0-0.1,0.1-0.2,0.2-0.2c0.1,0,0.3-0.1,0.4-0.2c0.2-0.1,0.3-0.2,0.5-0.1 c0.2,0.1,0.2,0.3,0.2,0.5c0,0.1,0,0.1,0,0.2c0,0.3-0.2,0.4-0.4,0.5C82.8,55.6,82.6,55.5,82.5,55.2z M19.4,28.6 c-0.1,0.2-0.2,0.3-0.4,0.2c-0.3-0.1-0.6-0.2-1-0.2c-0.2,0-0.3-0.1-0.2-0.4c0,0,0-0.1,0-0.1c0-0.3,0-0.3,0.3-0.3 c0.3,0.1,0.7,0.2,1,0.3c0.1,0,0.2,0.1,0.2,0.2C19.3,28.4,19.3,28.5,19.4,28.6z M14,29.6c-0.2,0.1-0.3,0.2-0.5,0.3c0,0-0.1,0-0.1,0 c-0.2-0.1-0.4-0.1-0.6-0.2c0.1-0.1,0.2-0.2,0.3-0.2c0.3-0.2,0.6-0.4,0.9-0.5c0.2-0.1,0.4-0.1,0.6-0.2c0.2,0,0.2,0.1,0.1,0.3 c0,0,0,0.1,0,0.1C14.5,29.7,14.4,29.7,14,29.6z M89.6,29.9c0.2,0,0.4,0,0.5,0c0.1,0,0.2,0.1,0.3,0.2c0,0.2,0,0.3-0.1,0.4 c-0.1,0.1-0.2,0.1-0.3,0.1c-0.3,0-0.6-0.1-0.9-0.2c-0.1,0-0.2-0.2-0.2-0.2c0-0.1,0.1-0.2,0.2-0.2C89.2,30,89.4,30,89.6,29.9z M81.4,52.8c0-0.4,0.2-0.6,0.3-0.9c0.1-0.1,0.2-0.2,0.3-0.1c0.1,0,0.1,0.2,0.1,0.3c0.2,0.4-0.2,0.7-0.3,1.1c0,0.2-0.3,0.1-0.4,0 C81.4,52.9,81.4,52.8,81.4,52.8z M20.6,28.5c-0.1,0.1-0.3,0.2-0.4,0.2c-0.2,0.1-0.4,0.1-0.5,0c-0.1-0.1-0.2-0.4-0.1-0.5 c0.1-0.1,0.2-0.2,0.3-0.2c0.2,0.1,0.5,0.2,0.7,0.3C20.6,28.4,20.6,28.5,20.6,28.5z M82.2,50c0,0.1-0.1,0.3-0.1,0.4 c-0.1,0.2-0.3,0.2-0.4,0.2c-0.1-0.1-0.2-0.2-0.1-0.4c0.1-0.1,0.2-0.3,0.3-0.4C82.1,49.7,82.2,49.8,82.2,50z M16.4,28.6 c-0.1,0.1-0.1,0.3-0.2,0.3C16,29,15.9,29,15.7,29c-0.2,0-0.3-0.1-0.3-0.4C15.7,28.6,16,28.6,16.4,28.6 C16.4,28.5,16.4,28.6,16.4,28.6z M20.9,28.8c0,0.2-0.2,0.3-0.3,0.3c-0.1,0-0.3-0.2-0.2-0.2c0.1-0.1,0.2-0.2,0.4-0.2 C20.8,28.6,20.9,28.7,20.9,28.8z" fill_="0"></path> <path id="XMLID_1443_" fill="#F15A47" d="M14.5,32.5c-1.4,0-2.5,1-2.5,2.3c0,2.3,2.5,4.7,2.5,4.7s2.5-2.6,2.5-4.7 C17,33.5,15.9,32.5,14.5,32.5z M14.5,36.1c-0.6,0-1.1-0.5-1.1-1.1c0-0.6,0.5-1.1,1.1-1.1c0.6,0,1.1,0.5,1.1,1.1 C15.6,35.6,15.2,36.1,14.5,36.1z M55.5,29.9c-1.4,0-2.5,1-2.5,2.3c0,2.3,2.5,4.7,2.5,4.7s2.5-2.6,2.5-4.7 C58,30.9,56.9,29.9,55.5,29.9z M55.5,33.5c-0.6,0-1.1-0.5-1.1-1.1c0-0.6,0.5-1.1,1.1-1.1c0.6,0,1.1,0.5,1.1,1.1 C56.6,33,56.1,33.5,55.5,33.5z M86.6,52.2c-1.4,0-2.5,1-2.5,2.3c0,2.3,2.5,4.7,2.5,4.7s2.5-2.6,2.5-4.7C89.1,53.2,88,52.2,86.6,52.2 z M86.7,55.9c-0.6,0-1.1-0.5-1.1-1.1c0-0.6,0.5-1.1,1.1-1.1c0.6,0,1.1,0.5,1.1,1.1S87.3,55.9,86.7,55.9z" fill_="1"></path> <path id="XMLID_1228_" fill="#F1C40F" d="M68.9,40c-1.4,0-2.5,1-2.5,2.3c0,2.3,2.5,4.7,2.5,4.7s2.5-2.6,2.5-4.7 C71.3,41,70.2,40,68.9,40z M68.9,43.7c-0.6,0-1.1-0.5-1.1-1.1c0-0.6,0.5-1.1,1.1-1.1c0.6,0,1.1,0.5,1.1,1.1 C70,43.2,69.5,43.6,68.9,43.7z M45.6,47.1c-1.4,0-2.5,1-2.5,2.3c0,2.3,2.5,4.7,2.5,4.7s2.5-2.6,2.5-4.7C48.1,48.1,47,47.1,45.6,47.1 z M45.6,50.8c-0.6,0-1.1-0.5-1.1-1.1c0-0.6,0.5-1.1,1.1-1.1c0.6,0,1.1,0.5,1.1,1.1C46.7,50.3,46.2,50.8,45.6,50.8z M20.9,42.6 c-1.4,0-2.5,1-2.5,2.3c0,2.3,2.5,4.7,2.5,4.7s2.5-2.6,2.5-4.7C23.4,43.6,22.3,42.6,20.9,42.6z M20.9,46.3c-0.6,0-1.1-0.5-1.1-1.1 c0-0.6,0.5-1.1,1.1-1.1c0.6,0,1.1,0.5,1.1,1.1C22,45.8,21.5,46.3,20.9,46.3z M73.3,31.7c-1.4,0-2.5,1-2.5,2.3c0,2.3,2.5,4.7,2.5,4.7 s2.5-2.6,2.5-4.7C75.8,32.7,74.6,31.7,73.3,31.7z M73.3,35.3c-0.6,0-1.1-0.5-1.1-1.1c0-0.6,0.5-1.1,1.1-1.1c0.6,0,1.1,0.5,1.1,1.1 C74.4,34.8,73.9,35.3,73.3,35.3z" fill_="2"></path> </svg>