<!--?xml version="1.0" encoding="utf-8"?--> <!-- Generator: Adobe Illustrator 19.2.0, SVG Export Plug-In . SVG Version: 6.00 Build 0) --> <svg version="1.2" baseProfile="tiny" id="图层_1" xmlns="http://www.w3.org/2000/svg" xmlns:xlink="http://www.w3.org/1999/xlink" x="0px" y="0px" viewBox="0 0 100 100" xml:space="preserve" preserveAspectRatio="none"> <path fill-rule="evenodd" fill="#64b3fd" d="M98.8,29.7l-54,54.1c-0.4,0.4-0.5,0.3-0.4-0.2c-2.7,2-6,2.4-7.7,0.6L1.2,48.8 c-2-2-1.4-6,1.5-8.9l3.5-3.5C9,33.5,13,32.8,15,34.9l25.5,25.5c0.1-0.2,0.2-0.3,0.3-0.5L85,15.8c2-2,6-1.3,8.9,1.5l3.5,3.5 C100.2,23.7,100.9,27.7,98.8,29.7L98.8,29.7z" fill_="0"></path> </svg>