<?xml version="1.0" encoding="UTF-8" standalone="no"?>
<svg width="70px" height="48px" viewBox="0 0 70 48" version="1.1" xmlns="http://www.w3.org/2000/svg" xmlns:xlink="http://www.w3.org/1999/xlink" xmlns:sketch="http://www.bohemiancoding.com/sketch/ns">
    <!-- Generator: Sketch 3.4.3 (16044) - http://www.bohemiancoding.com/sketch -->
    <title>shape29</title>
    <desc>Created with Sketch.</desc>
    <defs></defs>
    <g id="Page-1" stroke="none" stroke-width="1" fill="none" fill-rule="evenodd" sketch:type="MSPage">
        <path class="color1-fill" d="M70,23.7968889 L67.2591111,21.0528889 L67.2591111,11.7631111 C67.2591111,10.3351111 66.1017778,9.18088889 64.6768889,9.18088889 L59.1266667,9.18088889 L59.1266667,8.244432 C59.1266667,6.816432 57.9724444,5.66222222 56.5444444,5.66222222 L50.3968889,5.66222222 C46.2466667,2.13422222 40.8737778,-1.13686838e-13 35,-1.13686838e-13 C29.1262222,-1.13686838e-13 23.7533333,2.13422222 19.6031111,5.66222222 L13.4586667,5.66222222 C12.0306667,5.66222222 10.8733333,6.816432 10.8733333,8.244432 L10.8733333,9.18088889 L5.32622347,9.18088889 C3.89822222,9.18088889 2.74089013,10.3351111 2.74089013,11.7631111 L2.74089013,21.0528889 L0,23.7968889 L2.74089013,26.5377778 L2.74089013,35.8275568 C2.74089013,37.2555556 3.89822222,38.4097753 5.32622347,38.4097753 L10.8733333,38.4097753 L10.8733333,39.3462123 C10.8733333,40.774226 12.0306667,41.9284457 13.4586667,41.9284457 L19.6031111,41.9284457 C23.7533333,45.4564444 29.1262222,47.5906667 35,47.5906667 C40.8737778,47.5906667 46.2466667,45.4564444 50.3968889,41.9284457 L56.5444444,41.9284457 C57.9724444,41.9284457 59.1266667,40.774226 59.1266667,39.3462123 L59.1266667,38.4097753 L64.6768889,38.4097753 C66.1017778,38.4097753 67.2591111,37.2555556 67.2591111,35.8275568 L67.2591111,26.5377778 L70,23.7968889 Z M1.652,23.7968889 L3.84222347,25.9839876 L3.9075568,26.1488764 L3.9075568,35.8275568 C3.9075568,36.6084482 4.54533333,37.2431086 5.32622347,37.2431086 L11.809779,37.2431086 C11.9373333,37.2431086 12.0431124,37.3488802 12.0431124,37.476442 L12.0431124,39.3462123 C12.0431124,40.1271049 12.6777778,40.761779 13.4555556,40.761779 L19.9484444,40.761779 L20.0977778,40.8177765 L20.3591111,41.0417815 C24.444,44.5106642 29.6426667,46.424 35,46.424 C40.3604444,46.424 45.5591111,44.5106642 49.6408889,41.0417815 L49.9022222,40.8177765 L50.0546667,40.761779 L56.5444444,40.761779 C57.3253333,40.761779 57.96,40.1271049 57.96,39.3462123 L57.96,37.476442 C57.96,37.3488802 58.0657778,37.2431086 58.1933333,37.2431086 L64.6768889,37.2431086 C65.4577778,37.2431086 66.0924444,36.6084482 66.0924444,35.8275568 L66.0924444,26.1488764 L66.1608889,25.9839876 L68.3511111,23.7968889 L66.1608889,21.6066667 L66.0924444,21.4417653 L66.0924444,11.7631111 C66.0924444,10.9822098 65.4577778,10.3475556 64.6768889,10.3475556 L58.1933333,10.3475556 C58.0657778,10.3475556 57.96,10.2417653 57.96,10.1142222 L57.96,8.244432 C57.96,7.46355556 57.3253333,6.82888889 56.5444444,6.82888889 L50.0546667,6.82888889 L49.9022222,6.77288889 L49.6408889,6.54887644 C45.5591111,3.08 40.3573333,1.16666667 35,1.16666667 C29.6426667,1.16666667 24.444,3.08 20.3591111,6.54887644 L20.0977778,6.77288889 L19.9484444,6.82888889 L13.4555556,6.82888889 C12.6777778,6.82888889 12.0431124,7.46355556 12.0431124,8.244432 L12.0431124,10.1142222 C12.0431124,10.2417653 11.9373333,10.3475556 11.809779,10.3475556 L5.32622347,10.3475556 C4.54533333,10.3475556 3.9075568,10.9822098 3.9075568,11.7631111 L3.9075568,21.4417653 L3.84222347,21.6066667 L1.652,23.7968889 Z M35,46.8906667 C29.5306667,46.8906667 24.2262222,44.9400037 20.0573333,41.3964382 L19.8613333,41.2284457 L13.4555556,41.2284457 C12.4195556,41.2284457 11.5764457,40.3853321 11.5764457,39.3462123 L11.5764457,37.7097753 L5.32622347,37.7097753 C4.28711111,37.7097753 3.44089013,36.8666617 3.44089013,35.8275568 L3.44089013,26.2453209 L1.15733396,23.9617778 C0.970666667,23.7750987 0.970666667,23.8155431 1.15733396,23.6288889 L3.44089013,21.3453209 L3.44089013,11.7631111 C3.44089013,10.724 4.28711111,9.88088889 5.32622347,9.88088889 L11.5764457,9.88088889 L11.5764457,8.244432 C11.5764457,7.20533333 12.4195556,6.36222222 13.4555556,6.36222222 L19.8613333,6.36222222 L20.0573333,6.19422222 C24.2262222,2.65377778 29.5337778,0.7 35,0.7 C40.4693333,0.7 45.7768889,2.65377778 49.9457778,6.19422222 L50.1386667,6.36222222 L56.5444444,6.36222222 C57.5835556,6.36222222 58.4266667,7.20533333 58.4266667,8.244432 L58.4266667,9.88088889 L64.6768889,9.88088889 C65.716,9.88088889 66.5591111,10.724 66.5591111,11.7631111 L66.5591111,21.3453209 L68.8457778,23.6288889 C69.0293333,23.8155431 69.0293333,23.7750987 68.8457778,23.9617778 L66.5591111,26.2453209 L66.5591111,35.8275568 C66.5591111,36.8666617 65.716,37.7097753 64.6768889,37.7097753 L58.4266667,37.7097753 L58.4266667,39.3462123 C58.4266667,40.3853321 57.5835556,41.2284457 56.5444444,41.2284457 L50.1386667,41.2284457 L49.9457778,41.3964382 C45.7768889,44.9400037 40.4693333,46.8906667 35,46.8906667 L35,46.8906667 Z" id="shape29" fill="#C1D0D2" sketch:type="MSShapeGroup"></path>
    </g>
</svg>