<!--?xml version="1.0" encoding="utf-8"?--> <!-- Generator: Adobe Illustrator 19.2.0, SVG Export Plug-In . SVG Version: 6.00 Build 0) --> <svg version="1.2" baseProfile="tiny" id="图层_1" xmlns="http://www.w3.org/2000/svg" xmlns:xlink="http://www.w3.org/1999/xlink" x="0px" y="0px" viewBox="0 0 100 100" xml:space="preserve" preserveAspectRatio="none"> <path fill-rule="evenodd" fill="#64b3fd" d="M95.7,55.3h-7c-2.4,0-4.3-1.9-4.3-4.3c0-2.4,1.9-4.3,4.3-4.3h7c2.4,0,4.3,1.9,4.3,4.3 C100,53.4,98.1,55.3,95.7,55.3L95.7,55.3z M80.3,29.8c-1.7,1.5-4.2,1.3-5.7-0.4c-1.5-1.7-1.3-4.2,0.4-5.7l5.4-4.7 c1.7-1.5,4.3-1.3,5.7,0.4c1.5,1.7,1.3,4.2-0.4,5.7L80.3,29.8L80.3,29.8z M75.1,57.6c3.7,3.8,5.9,9,5.9,14.8 c0,10.6-7.7,19.4-17.8,21.1l0,0.1l-0.7,0c-1,0.1-1.9,0.2-2.9,0.2c-1.1,0-2.2-0.1-3.2-0.3l-20.4-0.1c-2.2,0.5-4.5,0.8-6.9,0.8 C13.1,94.2,0,81.2,0,65.1C0,49,13.1,35.9,29.2,35.9c2.7,0,5.4,0.4,7.9,1.1c4-5.4,10.4-9,17.6-9c12.1,0,21.8,9.8,21.8,21.8 C76.6,52.6,76.1,55.2,75.1,57.6L75.1,57.6z M61.3,37.1c-12.2-4.1-18,2.7-18,2.7c6.1,1.4,11.9,11.9,11.9,11.9 c11-1.3,13.7,1.8,13.7,1.8C72.3,41.8,61.3,37.1,61.3,37.1L61.3,37.1z M59.8,57.8c-3,0-5.7,0.9-8,2.4c-2.5-9.9-11.4-17.3-22.1-17.3 C17.2,42.9,7,53.1,7,65.6c0,10.7,7.3,19.6,17.2,22l-0.1-0.9L37.6,87c0.2-0.1,0.3-0.1,0.5-0.2l0,0.1c0,0,0.4,0,1.1,0 c4.2,0.1,18.9,0.4,18.9,0.4l0-0.2c0.4,0,0.7,0.1,1.1,0.1l0.9,0c8-0.2,14.5-6.7,14.5-14.7C74.5,64.4,67.9,57.8,59.8,57.8L59.8,57.8z M54.7,21.1c-2.2,0-4.1-1.8-4.1-4.1V9.8c0-2.2,1.8-4.1,4.1-4.1c2.2,0,4.1,1.8,4.1,4.1V17C58.8,19.3,57,21.1,54.7,21.1L54.7,21.1z M28.8,29.8l-5.4-4.7c-1.7-1.5-1.9-4-0.4-5.7c1.5-1.7,4-1.9,5.7-0.4l5.4,4.7c1.7,1.5,1.9,4,0.4,5.7C33,31.1,30.5,31.3,28.8,29.8 L28.8,29.8z" fill_="0"></path> </svg>