<!--?xml version="1.0" encoding="utf-8"?--> <!-- Generator: Adobe Illustrator 19.2.1, SVG Export Plug-In . SVG Version: 6.00 Build 0) --> <svg version="1.2" baseProfile="tiny" id="图层_1" xmlns="http://www.w3.org/2000/svg" xmlns:xlink="http://www.w3.org/1999/xlink" x="0px" y="0px" viewBox="0 0 100 100" xml:space="preserve" preserveAspectRatio="none"> <path fill="#64b3fd" d="M84.5,3h-0.5c0.1-0.1,0.1-0.3,0.3-0.5c0.2-0.3,0.3-0.5,0.3-0.7c0-0.2-0.2-0.3-0.3-0.2c-0.1,0.1,0,0.5,0,0.5 s-0.6,0-0.5-0.6c0,0-0.6,0-0.5-0.5c0,0,0.3,0.2,0.4,0.1c0.1-0.1,0.2-0.3-0.1-0.4c-0.3-0.1-0.4,0-0.6,0.1c-0.2,0.2-0.6,0.6-1,0.5 c-0.4-0.1-0.6-0.2-0.7-0.2c-0.2-0.1-0.3,0-0.2,0.2c0.1,0.2,0.6,0.8,0.7,0.8c0.1,0,0.2-0.3,0.3-0.4c0.2-0.1,0.5-0.1,0.5,0.3 c0,0.4-0.4,0.4-0.6,0.4c-0.2,0-0.4,0-0.5,0.2c-0.1,0.1-0.1,0.2-0.1,0.3h-0.4c0,0,0.1-0.1,0.1-0.1c0-0.1,0-0.1-0.1-0.2 c-0.1,0-0.2-0.2-0.3-0.3c-0.1-0.1,0-0.2,0.1-0.2c0.2,0,0.4,0,0.3-0.1c0-0.1-0.1-0.2-0.3-0.2c-0.2,0-0.6,0.2-0.7,0.5 c-0.1,0.2-0.1,0.4-0.1,0.6h-0.5c0-0.2,0-0.5,0.1-0.9c0,0-0.1-0.1-0.3,0.1c-0.2,0.2-1.1,0.5-2.2,0.4c0,0-0.1,0.2-0.2,0.4h-0.3 c0-0.1,0.1-0.3,0.2-0.5c0,0-0.3-0.1-0.6-0.2c-0.3-0.1-0.6-0.2-0.9-0.1c-0.3,0.1-0.5,0.1-0.5,0.4c0.1,0.2,0.2,0.3,0.4,0.2 c0.2-0.2,0.2-0.2,0.2-0.2s0,0.2,0,0.4h-0.7c-0.1-0.2-0.2-0.4-0.2-0.4S74,2.3,74.3,1.7c0,0,0.1,0.3,0.3,0.3c0.1,0,0.6-0.3,1-0.2 c0,0,0-0.1-0.1-0.3c-0.1-0.1-0.9-1-1.9-0.8c-1,0.2-0.9,0.9-0.9,1c0,0,0.1-0.1,0.3-0.1c0.2,0,0.3,0.3,0,0.6c-0.3,0.2-0.7,0-0.7-0.3 c-0.1-0.2,0.1-0.7,0.1-0.7s-0.8,0.5-1.3,0.4c-0.5-0.1-0.7-0.4-0.7-0.8c0-0.3,0.3-0.7,0.7-0.6c0.4,0.1,0.3,0.4,0.1,0.4 c-0.2,0-0.6,0.1-0.4,0.4c0.2,0.3,0.5,0.2,0.9,0c0.3-0.1,0.4-0.1,1.1-0.4c0.3-0.2,0.7-0.3,1.1-0.3c0.3,0,0.8,0.1,1.3,0.5 c0.3,0.3,0.5,0.5,0.6,0.6c0.4,0.4,0.5,0.4,0.7,0.5c0.2,0.1,0.7,0.3,0.8,0.3c0,0-0.5-0.3-0.4-0.9c0,0,0.1-0.3-0.4-0.2 c0,0,0.1-0.4,0.3-0.3c0.3,0,0.4,0.3,0.4,0.3s0.2-0.2,0.4-0.1c0.3,0.2,0.2,0.4,0.1,0.4c-0.1,0-0.2-0.2-0.3-0.1 c-0.1,0.1,0,0.3,0.3,0.5c0.3,0.2,0.6,0.5,1.1,0.3c0.5-0.1,0.6-0.6,0.7-0.9c0.1-0.3,0.2-0.8-0.1-0.8c-0.3,0.1-0.5,0.2-0.1,0.5 c0,0-0.3,0.2-0.5,0c-0.2-0.2-0.1-0.2-0.3-0.3c-0.1-0.1-0.4-0.3-0.2-0.6c0,0,0.2,0.3,0.4,0.2c0.2-0.1,0.5-0.4,1-0.1 c0.4,0.3,0.4,0.6,0.5,0.8c0,0.2,0.2,0.3,0.3,0.3c0.1,0,0.3-0.3,0.4-0.6c0,0,0.4,0.1,0.6-0.3c0,0,0.2-0.3,0.3-0.2 c0.1,0.2,0,0.5,0.1,0.6c0.1,0.1,0.5,0.2,0.9-0.2c0.4-0.5,0.7-0.6,1.1-0.4c0.3,0.2,0.6,0.4,0.8,0.3c0.1-0.1,0.1-0.1,0.3-0.1 c0.1,0,0.3,0,0.3,0S85.3,0.4,85,1c0,0,0.3,0.8,0.1,1.1C85,2.3,84.7,2.7,84.5,3L84.5,3z M83.8,3c0-0.2-0.1-0.4-0.2-0.5 c-0.2-0.1-0.4-0.1-0.5,0.4c0,0,0,0,0,0.1H83.8L83.8,3z M78.2,3L78.2,3c-0.2-0.1-0.3-0.1-0.5,0H78.2L78.2,3z M25.2,3h-0.7 c-0.1-0.2,0-0.4,0-0.4s0.1,0,0.2,0.2c0.2,0.2,0.3,0.1,0.4-0.2c0.1-0.3-0.1-0.3-0.5-0.4c-0.3-0.1-0.6,0-0.9,0.1 C23.3,2.4,23,2.5,23,2.5c0.1,0.2,0.2,0.3,0.2,0.5h-0.4c0-0.2-0.2-0.4-0.2-0.4c-1.1,0.1-2-0.2-2.2-0.4c-0.2-0.1-0.3-0.1-0.3-0.1 c0.1,0.4,0.1,0.7,0.1,0.9h-0.5c0-0.2,0-0.4,0-0.6C19.6,2,19.2,1.8,19,1.8c-0.2,0-0.3,0.1-0.3,0.2c0,0.1,0.2,0.1,0.3,0.1 c0.2,0,0.2,0.1,0.1,0.2c-0.1,0.1-0.2,0.3-0.3,0.3c-0.1,0-0.1,0.1-0.1,0.2c0,0,0,0.1,0.1,0.1h-0.4c0-0.1-0.1-0.2-0.1-0.3 c-0.1-0.2-0.3-0.2-0.5-0.2c-0.2,0-0.6-0.1-0.6-0.4c0-0.4,0.3-0.4,0.5-0.3C17.9,1.7,18,2,18.1,2.1c0.1,0,0.6-0.6,0.7-0.8 c0.1-0.2-0.1-0.2-0.2-0.2c-0.1,0.1-0.3,0.2-0.7,0.2c-0.4,0.1-0.8-0.4-1-0.5c-0.2-0.1-0.3-0.2-0.6-0.1C16,0.7,16.2,0.9,16.2,1 c0.1,0.1,0.4-0.1,0.4-0.1c0.1,0.5-0.5,0.5-0.5,0.5c0.1,0.6-0.5,0.6-0.5,0.6s0.1-0.3,0-0.5c-0.1-0.1-0.3,0-0.3,0.2 c0,0.2,0,0.3,0.3,0.7C15.8,2.7,15.9,2.8,16,3h-0.5c-0.1-0.3-0.5-0.6-0.6-0.9C14.7,1.7,15,1,15,1c-0.3-0.5-0.2-0.8-0.2-0.8 s0.2,0,0.3,0c0.2,0.1,0.2,0.1,0.3,0.1c0.2,0.1,0.5-0.1,0.8-0.3c0.3-0.2,0.7-0.1,1.1,0.4c0.4,0.5,0.8,0.3,0.9,0.2 c0.1-0.1,0-0.4,0-0.6c0.1-0.2,0.3,0.2,0.3,0.2c0.2,0.4,0.6,0.3,0.6,0.3c0.1,0.3,0.2,0.6,0.4,0.6c0.1,0,0.3-0.1,0.3-0.3 c0-0.2,0-0.5,0.5-0.8c0.4-0.3,0.8,0,1,0.1c0.2,0.1,0.4-0.2,0.4-0.2c0.1,0.3-0.1,0.5-0.2,0.6c-0.1,0.1-0.1,0.1-0.3,0.3 c-0.2,0.2-0.5,0-0.5,0c0.4-0.3,0.2-0.5-0.1-0.5c-0.3-0.1-0.2,0.5-0.1,0.8c0.1,0.3,0.2,0.7,0.7,0.9c0.5,0.1,0.8-0.1,1.1-0.3 c0.3-0.2,0.4-0.3,0.3-0.5c-0.1-0.1-0.2,0.1-0.3,0.1c-0.1,0-0.2-0.3,0.1-0.4C22.6,0.7,22.8,1,22.8,1s0.1-0.2,0.4-0.3 c0.3,0,0.3,0.3,0.3,0.3c-0.5-0.2-0.4,0.2-0.4,0.2c0.1,0.6-0.4,0.9-0.4,0.9c0.1,0,0.6-0.1,0.8-0.3c0.2-0.1,0.3-0.2,0.7-0.5 c0.1-0.1,0.3-0.3,0.6-0.6c0.6-0.4,1-0.5,1.3-0.5c0.4,0,0.7,0.1,1.1,0.3c0.7,0.3,0.8,0.3,1.1,0.4c0.3,0.1,0.6,0.2,0.8,0 c0.2-0.3-0.2-0.4-0.4-0.4c-0.2,0-0.3-0.3,0.1-0.4c0.4-0.1,0.7,0.3,0.7,0.6c0,0.4-0.2,0.7-0.7,0.8c-0.5,0.1-1.3-0.4-1.3-0.4 s0.2,0.5,0.1,0.7c-0.1,0.2-0.5,0.5-0.7,0.3c-0.3-0.2-0.2-0.5,0-0.6c0.2,0,0.3,0.1,0.3,0.1c0-0.1,0.1-0.8-0.9-1 c-1-0.2-1.7,0.7-1.9,0.8c-0.1,0.1-0.1,0.3-0.1,0.3c0.4-0.1,0.9,0.2,1,0.2c0.1,0,0.3-0.3,0.3-0.3c0.3,0.6-0.3,0.8-0.3,0.8 S25.3,2.8,25.2,3L25.2,3z M22.2,3c-0.1-0.1-0.3-0.1-0.4,0l0,0H22.2L22.2,3z M17,3C17,2.9,16.9,2.9,17,3c-0.1-0.5-0.3-0.5-0.6-0.5 c-0.1,0.1-0.2,0.3-0.2,0.5H17L17,3z M31.9,0.6v0.6h36.1V0.6L31.9,0.6z M15.3,82.1V17.9h0.6l0,64.1H15.3L15.3,82.1z M15.5,3H16 c0,0.1,0,0.2,0,0.3c0,0.3-0.1,0.5-0.2,0.6c-0.1,0.1-0.2,0.3,0,0.4C15.9,4.3,16,4.3,16,4.1c0.1-0.1,0.1-0.4,0.3-0.4 c0.2,0,0.4,0,0.3-0.3c0-0.3-0.3-0.3-0.4-0.3c-0.1,0-0.1-0.1-0.1-0.2H17C17.1,3.4,17,3.8,17,3.8c0.6-0.3,0.9-0.2,1-0.1 c0.1,0.1,0.3,0.3,0.2,0.5c-0.1,0.2-0.3,0.3-0.4,0.3c-0.1,0-0.1-0.3-0.2-0.4c-0.1-0.1-0.3,0-0.3,0.2c-0.1,0.1-0.1,0.3-0.3,0.3 c-0.2,0-0.2-0.2-0.2-0.3c0-0.1-0.2-0.3-0.3-0.2c-0.1,0.1-0.1,0.5,0,0.7c0.1,0.2,0.3,0.4,0.9,0.4c0.6,0.1,1.2-0.4,1.5-0.5 c0.3-0.1,0.6-0.1,0.6-0.1c0-0.1-0.1-0.5,0.1-1c0.1-0.3,0.2-0.5,0.2-0.7h0.5c-0.1,0.5-0.3,0.8-0.4,1.2C19.8,4.7,20,5.3,20,5.3 c-1-0.3-1.5,0.2-2.1,0.5c-0.6,0.2-1.3-0.1-1.3-0.1C17,6.6,17,7,17,7.4c0,0.4,0,0.5,0.2,0.9c0.2,0.3,0.7,0.2,1,0 c0.3-0.2,0.2-0.5,0-0.7c-0.2-0.1-0.2,0-0.3,0.2C17.8,7.9,17.7,8,17.7,8c-0.3-0.1-0.2-0.8,0.3-0.9c0.4-0.1,0.6,0.3,0.6,0.4 c0,0.1,0.2,0.5,0.3,0.6c0.1,0.1,0.1,0.2,0.1,0.4c0,0.2-0.1,0.1-0.1,0.1c-0.1-0.1-0.2-0.2-0.2-0.2S18.4,8.8,18,8.9 c-0.5,0.1-0.9-0.3-0.9-0.3S16.8,9,16.7,9.5c-0.2,0.5-0.1,1.1,0.1,1.2c0.2,0.1,0.5,0,0.5-0.1c0.1-0.2-0.1-0.4-0.1-0.4 c0.3,0,0.5,0.2,0.5,0.4c0.1,0.1-0.1,0.3-0.4,0.5c-0.3,0.1-0.3,0.4-0.6,0.5c-0.2,0.1-0.5-0.1-0.5-0.1c0.3-0.1,0.5-0.3,0.3-0.5 c-0.3-0.2-0.3-0.8-0.3-0.8c-0.1,0.1-0.4,0.2-0.6,0.6c-0.2,0.2-0.3,0.5-0.4,0.9c-0.1,1.1,0.6,1.5,1,1.5c0.4,0,0.1-0.6,0.1-0.6 c0.3,0.1,0.7,0.6,0.3,0.9c-0.4,0.3-1,0.1-1,0.1c0.4,0.7,0.4,1.8-0.2,2c-0.6,0.2-0.8-0.2-0.8-0.6c0.1-0.4,0.5-0.4,0.5-0.4 c-0.3,0.2-0.2,0.7,0.2,0.6c0.4-0.1,0.2-0.6,0.1-1.2c-0.1-0.6-0.6-1-0.7-2.1c-0.1-1.1,0.7-1.6,1.2-2.2c0.5-0.6,0.6-1.2,0.6-1.2 c-0.2,0.2-0.3,0.2-0.6,0.2c-0.2,0-0.3-0.1-0.5,0.1c-0.1,0.2,0.1,0.5,0.1,0.5c-0.7-0.1-0.3-0.8-0.3-0.8c0-0.3,0.1-0.6,0.3-0.7 c0.2-0.1,0.4,0.1,0.4,0.1s0,0-0.1,0.1c-0.1,0.1-0.1,0.2,0.2,0.2c0.3,0,0.5-0.4,0.4-1.1c-0.1-0.7-0.3-1.1-0.6-1.2 c-0.3-0.2-0.7-0.1-0.8,0.1c-0.1,0.2-0.2,0.3-0.1,0.4c0.1,0.1,0.5-0.1,0.5-0.1s0.1,0.2,0,0.4c-0.1,0.2-0.3,0.2-0.4,0.3 c-0.1,0.1,0,0.4-0.2,0.5c-0.2,0.1-0.4-0.1-0.3-0.2c0.1-0.1,0.1-0.2,0.1-0.4c0-0.2-0.4-0.8,0-1.3C15.2,5,15.8,5.1,16,5.1 c0.2,0,0.2-0.1,0.1-0.2c-0.1-0.2-0.2-0.1-0.3-0.1c-0.1,0-0.4-0.1-0.4-0.3c0-0.2,0-0.2-0.1-0.3C15.1,4.2,15,4.2,14.8,4 c-0.1-0.2-0.1-0.5,0.2-0.4c0.3,0.1,0.4-0.1,0.5-0.3C15.6,3.1,15.5,3.1,15.5,3L15.5,3z M18.5,3c0,0.1,0,0.2,0,0.3 c0,0.2,0.2,0.4,0.4,0.3c0.2-0.1,0.3-0.1,0.1-0.4C18.9,3,18.8,3,18.8,3H18.5L18.5,3z M21.8,3h0.5c0,0,0.1,0.1,0.1,0.1 c0.1,0.2,0,0.2-0.1,0.4c-0.1,0.1,0.1,0.2,0.3,0.3c0.1,0,0.3,0,0.4-0.4c0-0.1,0-0.2,0-0.3h0.4c0.2,0.7-0.2,1-0.4,1.2 C22.6,4.3,23,4.4,23,4.4c-0.6,0.7-0.7-0.2-0.7-0.2C21.7,4,21.6,3.1,21.8,3L21.8,3z M24.5,3h0.7c-0.1,0.2-0.3,0.3-0.5,0.3 C24.6,3.2,24.5,3.1,24.5,3L24.5,3z M74.8,3h0.7c0,0.1-0.1,0.2-0.3,0.3C75.1,3.3,74.9,3.1,74.8,3L74.8,3z M76.8,3h0.3 c0,0.1,0,0.2,0,0.3c0.1,0.4,0.2,0.4,0.4,0.4c0.1,0,0.3-0.1,0.3-0.3c-0.1-0.1-0.2-0.2-0.1-0.4c0,0,0.1-0.1,0.1-0.1h0.5 c0.2,0.2,0.1,1.1-0.5,1.2c0,0-0.1,0.9-0.7,0.2c0,0,0.4-0.1,0.2-0.3C77,4,76.6,3.6,76.8,3L76.8,3z M79.7,3h0.5 c0.1,0.2,0.1,0.5,0.2,0.7c0.2,0.5,0.1,0.9,0.1,1c0,0,0.3,0,0.6,0.1c0.3,0.1,0.9,0.6,1.5,0.5c0.6-0.1,0.8-0.2,0.9-0.4 c0.1-0.2,0.2-0.6,0-0.7c-0.1-0.1-0.3,0-0.3,0.2c0,0.1,0,0.3-0.2,0.3c-0.2,0-0.3-0.2-0.3-0.3c0-0.2-0.2-0.3-0.3-0.2 c-0.1,0.1-0.1,0.4-0.2,0.4c-0.1,0-0.3-0.1-0.4-0.3c-0.1-0.2,0.1-0.4,0.2-0.5c0.1-0.1,0.4-0.3,1,0.1c0,0,0-0.5,0.1-0.9h0.8 c0,0.1,0,0.1-0.1,0.2c-0.2,0.1-0.4,0-0.4,0.3c0,0.3,0.2,0.3,0.3,0.3c0.2,0,0.2,0.3,0.3,0.4c0.1,0.1,0.1,0.2,0.3,0.1 c0.1-0.1,0-0.2-0.1-0.4C84.1,3.7,84,3.5,84,3.2c0-0.1,0-0.2,0-0.3h0.5c-0.1,0.1-0.1,0.2-0.1,0.3c0.1,0.3,0.2,0.4,0.5,0.3 c0.3,0,0.4,0.2,0.2,0.4c-0.1,0.2-0.3,0.2-0.4,0.3s-0.1,0.1-0.1,0.3c0,0.2-0.3,0.3-0.4,0.3c-0.1,0-0.3-0.1-0.3,0.1 c-0.1,0.2,0,0.3,0.1,0.2c0.2,0,0.7-0.2,1.1,0.3c0.4,0.5,0,1.1,0,1.3c0,0.2,0,0.3,0.1,0.4c0.1,0.1-0.1,0.2-0.4,0.2 c-0.2-0.1-0.1-0.4-0.2-0.5c-0.1-0.1-0.3,0-0.4-0.3c-0.1-0.2,0-0.4,0-0.4s0.4,0.2,0.5,0.1c0.1-0.1,0.1-0.3-0.1-0.4 c-0.1-0.2-0.5-0.3-0.8-0.1c-0.3,0.2-0.5,0.6-0.6,1.2c-0.1,0.7,0.1,1.1,0.4,1.1c0.3,0,0.3-0.2,0.2-0.2c-0.1-0.1-0.1-0.1-0.1-0.1 s0.1-0.2,0.4-0.1c0.2,0.1,0.3,0.4,0.3,0.7c0,0,0.5,0.7-0.3,0.8c0,0,0.2-0.3,0.1-0.5c-0.1-0.2-0.3-0.1-0.5-0.1c-0.2,0-0.4,0-0.6-0.2 c0,0,0.1,0.6,0.6,1.2c0.5,0.5,1.3,1.1,1.2,2.2c-0.1,1.1-0.6,1.5-0.7,2.1c-0.1,0.5-0.3,1.1,0.1,1.2c0.4,0.1,0.4-0.4,0.2-0.6 c0,0,0.4,0,0.5,0.4c0.1,0.4-0.2,0.8-0.8,0.6c-0.6-0.2-0.6-1.2-0.2-2c0,0-0.5,0.3-0.9-0.1c-0.4-0.3,0-0.8,0.3-0.9 c0,0-0.3,0.6,0.1,0.6c0.4,0,1.1-0.4,1-1.5c0-0.4-0.2-0.7-0.4-0.9c-0.3-0.4-0.6-0.5-0.6-0.6c0,0-0.1,0.5-0.3,0.8 c-0.3,0.2,0,0.4,0.3,0.5c0,0-0.3,0.2-0.5,0.1c-0.2-0.1-0.3-0.4-0.6-0.5c-0.3-0.1-0.4-0.3-0.4-0.5c0.1-0.2,0.2-0.4,0.6-0.4 c0,0-0.2,0.2-0.2,0.4c0.1,0.1,0.3,0.2,0.5,0.1c0.2-0.1,0.3-0.7,0.1-1.2c-0.1-0.5-0.4-0.9-0.4-0.9S82.5,9,82,8.9 c-0.5-0.1-0.6-0.5-0.6-0.5s-0.1,0-0.2,0.2c0,0-0.1,0.1-0.1-0.1c0-0.2,0-0.3,0.1-0.4c0.1-0.1,0.3-0.5,0.3-0.6c0-0.1,0.2-0.5,0.6-0.4 c0.4,0.1,0.6,0.7,0.3,0.9c0,0-0.1,0-0.3-0.2c-0.1-0.2-0.2-0.3-0.3-0.2c-0.1,0.1-0.3,0.4,0,0.7c0.3,0.2,0.8,0.3,1,0 C83,8,83,7.9,83,7.4c0-0.4,0-0.9,0.3-1.8c0,0-0.7,0.3-1.3,0.1C81.5,5.5,81,5,80,5.3c0,0,0.3-0.6,0.1-1.1C80,3.8,79.8,3.5,79.7,3 L79.7,3z M81.2,3c0,0-0.1,0.1-0.1,0.2c-0.2,0.3-0.1,0.3,0.1,0.4c0.2,0.1,0.4-0.1,0.4-0.3c0-0.1,0-0.2,0-0.3H81.2L81.2,3z M84.5,97 h-0.5c0-0.1,0-0.1,0-0.3c0-0.3,0.1-0.5,0.2-0.6c0.1-0.1,0.2-0.3,0.1-0.4c-0.1-0.1-0.2-0.1-0.3,0.1c-0.1,0.1-0.1,0.4-0.3,0.4 c-0.2,0-0.4,0-0.3,0.3c0,0.3,0.3,0.3,0.4,0.3c0,0,0.1,0.1,0.1,0.2H83c-0.1-0.4-0.1-0.9-0.1-0.9c-0.6,0.3-0.9,0.2-1,0.1 c-0.2-0.1-0.3-0.3-0.2-0.5c0.1-0.2,0.3-0.3,0.4-0.3c0.1,0,0.1,0.3,0.2,0.4c0.1,0.1,0.3,0,0.3-0.2c0.1-0.2,0.1-0.3,0.3-0.3 c0.2,0,0.2,0.2,0.2,0.3c0,0.1,0.1,0.2,0.3,0.2c0.1-0.1,0.1-0.5,0-0.7c-0.1-0.2-0.3-0.4-0.9-0.4c-0.6-0.1-1.2,0.4-1.5,0.5 c-0.3,0.1-0.6,0.1-0.6,0.1c0,0.1,0.1,0.5-0.1,1c-0.1,0.3-0.2,0.5-0.2,0.7h-0.5c0.1-0.5,0.3-0.8,0.4-1.2c0.1-0.5-0.1-1.1-0.1-1.1 c1,0.3,1.5-0.2,2.1-0.5c0.6-0.2,1.3,0.1,1.3,0.1C83,93.4,83,93,83,92.6c0-0.4,0-0.5-0.2-0.8c-0.2-0.3-0.7-0.2-1,0 c-0.3,0.2-0.2,0.5,0,0.7c0.2,0.1,0.2,0,0.3-0.2c0.1-0.2,0.3-0.2,0.3-0.2c0.3,0.1,0.2,0.8-0.3,0.9c-0.4,0.1-0.6-0.3-0.6-0.4 c0-0.1-0.2-0.5-0.3-0.6c-0.1-0.1-0.1-0.2-0.1-0.4c0-0.2,0.1-0.1,0.1-0.1c0.1,0.1,0.2,0.1,0.2,0.1s0.2-0.5,0.6-0.5 c0.5-0.1,0.9,0.3,0.9,0.3s0.3-0.4,0.4-0.9c0.2-0.5,0.1-1.1-0.1-1.2c-0.2-0.1-0.5,0-0.5,0.1c-0.1,0.1,0.2,0.4,0.2,0.4 c-0.3,0-0.5-0.2-0.6-0.4c0-0.2,0.1-0.3,0.4-0.5c0.3-0.1,0.3-0.4,0.6-0.5c0.2-0.1,0.5,0.1,0.5,0.1c-0.3,0.1-0.5,0.3-0.3,0.5 c0.3,0.2,0.3,0.8,0.3,0.8c0.1-0.1,0.4-0.2,0.6-0.6c0.2-0.2,0.3-0.5,0.4-0.9c0.1-1.1-0.6-1.5-1-1.5c-0.4,0-0.1,0.6-0.1,0.6 c-0.3-0.1-0.7-0.5-0.3-0.9c0.4-0.3,1-0.1,1-0.1c-0.4-0.8-0.4-1.8,0.2-2c0.6-0.2,0.8,0.2,0.8,0.6c-0.1,0.4-0.5,0.4-0.5,0.4 c0.3-0.2,0.2-0.7-0.2-0.6c-0.4,0.1-0.2,0.6-0.1,1.2c0.1,0.5,0.7,1,0.7,2.1c0.1,1.1-0.7,1.6-1.2,2.2c-0.5,0.5-0.6,1.2-0.6,1.2 c0.1-0.1,0.3-0.2,0.6-0.2c0.2,0,0.3,0.1,0.5-0.1c0.1-0.2-0.1-0.5-0.1-0.5c0.7,0.1,0.3,0.8,0.3,0.8c0,0.3-0.1,0.7-0.3,0.7 c-0.2,0.1-0.4-0.1-0.4-0.1s0,0,0.1-0.1c0.1-0.1,0.1-0.2-0.2-0.2c-0.3,0-0.5,0.4-0.4,1.1c0.1,0.6,0.3,1.1,0.6,1.2 c0.3,0.2,0.6,0.1,0.8-0.1c0.1-0.2,0.2-0.3,0.1-0.4c-0.1-0.1-0.5,0.1-0.5,0.1s-0.1-0.2,0-0.4c0.1-0.2,0.3-0.2,0.4-0.3 c0.1-0.1,0-0.4,0.2-0.5c0.2-0.1,0.5,0.1,0.4,0.2c-0.1,0.1-0.1,0.2-0.1,0.4c0,0.2,0.4,0.8,0,1.3c-0.3,0.5-0.9,0.4-1.1,0.3 c-0.2,0-0.2,0.1-0.1,0.2c0.1,0.2,0.2,0.1,0.3,0.1c0.1,0,0.4,0.1,0.4,0.3c0,0.2,0,0.2,0.1,0.3c0.1,0.1,0.2,0.1,0.4,0.3 c0.2,0.2,0.1,0.4-0.2,0.4c-0.3,0-0.4,0.1-0.5,0.3C84.5,96.9,84.5,96.9,84.5,97L84.5,97z M81.5,97c0-0.1,0-0.2,0-0.3 c0-0.2-0.2-0.4-0.4-0.3c-0.2,0.1-0.3,0.1-0.1,0.4c0.1,0.1,0.1,0.2,0.1,0.2H81.5L81.5,97z M78.2,97h-0.5c0,0-0.1-0.1-0.1-0.1 c-0.1-0.2,0-0.2,0.1-0.3c0.1-0.1-0.1-0.3-0.3-0.3c-0.1,0-0.3,0-0.4,0.4c0,0.1,0,0.2,0,0.3h-0.3c-0.2-0.7,0.2-1,0.4-1.2 c0.2-0.2-0.2-0.3-0.2-0.3c0.6-0.7,0.7,0.2,0.7,0.2C78.3,96,78.4,96.9,78.2,97L78.2,97z M75.5,97h-0.7c0.1-0.2,0.3-0.3,0.5-0.3 C75.4,96.8,75.5,96.9,75.5,97L75.5,97z M25.2,97h-0.7c0.1-0.1,0.1-0.2,0.3-0.3C24.9,96.7,25.1,96.9,25.2,97L25.2,97z M23.2,97h-0.4 c0-0.1,0-0.2,0-0.3c-0.1-0.4-0.2-0.4-0.4-0.4c-0.1,0-0.3,0.1-0.3,0.3c0.1,0.1,0.2,0.2,0.1,0.3c0,0-0.1,0.1-0.1,0.1h-0.5 c-0.2-0.2-0.1-1.1,0.5-1.2c0,0,0.1-0.9,0.7-0.2c0,0-0.4,0.1-0.2,0.3C23,96,23.4,96.4,23.2,97L23.2,97z M20.3,97h-0.5 c0-0.2-0.1-0.5-0.2-0.7c-0.2-0.5-0.1-0.9-0.1-1c0,0-0.3,0.1-0.6-0.1c-0.3-0.1-0.9-0.6-1.5-0.5c-0.6,0.1-0.8,0.2-0.9,0.4 c-0.1,0.2-0.2,0.6,0,0.7c0.1,0.1,0.3,0,0.3-0.2c0-0.1,0-0.3,0.2-0.3c0.2,0,0.3,0.2,0.3,0.3c0,0.1,0.2,0.3,0.3,0.2 c0.1-0.1,0.1-0.4,0.2-0.4c0.1,0,0.3,0.1,0.4,0.3c0.1,0.2-0.1,0.4-0.2,0.5c-0.1,0.1-0.4,0.3-1-0.1c0,0,0,0.4-0.1,0.9h-0.8 c0-0.1,0-0.1,0.1-0.2c0.2-0.1,0.4,0,0.4-0.3c0-0.3-0.2-0.3-0.3-0.3c-0.2,0-0.2-0.3-0.3-0.4c-0.1-0.1-0.1-0.1-0.3-0.1 c-0.1,0.1,0,0.2,0,0.4c0.1,0.1,0.2,0.3,0.2,0.6c0,0.1,0,0.2,0,0.3h-0.5c0.1-0.1,0.1-0.2,0.1-0.3c-0.1-0.2-0.2-0.4-0.5-0.3 c-0.3,0-0.4-0.2-0.2-0.4c0.2-0.2,0.3-0.2,0.4-0.3c0.1-0.1,0.1-0.1,0.1-0.3c0-0.2,0.3-0.3,0.4-0.3c0.1,0,0.3,0.1,0.3-0.1 c0.1-0.2,0-0.3-0.1-0.2c-0.2,0.1-0.7,0.2-1.1-0.3c-0.3-0.5,0-1.1,0-1.3c0-0.2,0-0.3-0.1-0.4c-0.1-0.1,0.1-0.2,0.3-0.2 c0.2,0.1,0.1,0.4,0.2,0.5c0.1,0.1,0.3,0,0.4,0.3c0.1,0.2,0,0.4,0,0.4s-0.4-0.2-0.5-0.1c-0.1,0.1-0.1,0.3,0.1,0.4 c0.1,0.2,0.5,0.3,0.8,0.1c0.3-0.2,0.5-0.6,0.6-1.2c0.1-0.7-0.1-1.1-0.4-1.1c-0.3,0-0.3,0.2-0.2,0.2c0.1,0.1,0.1,0.1,0.1,0.1 s-0.1,0.2-0.4,0.1c-0.2-0.1-0.3-0.4-0.3-0.7c0,0-0.5-0.7,0.3-0.8c0,0-0.2,0.3-0.1,0.5c0.1,0.2,0.3,0.2,0.5,0.1c0.2,0,0.4,0,0.6,0.2 c0,0-0.1-0.6-0.6-1.2c-0.5-0.6-1.3-1.1-1.2-2.2c0.1-1.1,0.6-1.5,0.7-2.1c0.1-0.6,0.3-1.1-0.1-1.2c-0.4-0.1-0.4,0.4-0.2,0.6 c0,0-0.4,0-0.5-0.4c-0.1-0.4,0.2-0.8,0.8-0.6c0.6,0.2,0.6,1.2,0.2,2c0,0,0.5-0.2,1,0.1c0.4,0.3,0,0.8-0.3,0.9c0,0,0.3-0.6-0.1-0.6 c-0.4,0-1.1,0.4-1,1.5c0,0.4,0.2,0.7,0.4,0.9c0.3,0.4,0.6,0.5,0.6,0.6c0,0,0.1-0.5,0.3-0.8c0.3-0.2,0-0.4-0.3-0.5 c0,0,0.3-0.2,0.5-0.1c0.2,0.1,0.3,0.4,0.6,0.5c0.3,0.1,0.4,0.3,0.4,0.5c0,0.1-0.2,0.4-0.5,0.4c0,0,0.2-0.2,0.1-0.4 c-0.1-0.2-0.3-0.2-0.5-0.1c-0.2,0.1-0.3,0.7-0.1,1.2c0.1,0.5,0.4,0.9,0.4,0.9s0.4-0.4,0.9-0.3c0.5,0.1,0.6,0.5,0.6,0.5 s0.1,0,0.2-0.1c0,0,0.1-0.1,0.1,0.1c0,0.2,0,0.3-0.1,0.4c-0.1,0.1-0.3,0.5-0.3,0.6c0,0.1-0.2,0.5-0.6,0.4c-0.4-0.1-0.6-0.7-0.3-0.9 c0,0,0.1,0,0.3,0.2c0.1,0.2,0.2,0.3,0.3,0.2c0.1-0.1,0.3-0.4,0-0.7c-0.3-0.2-0.8-0.3-1,0C17,92,17,92.1,17,92.6c0,0.4,0,0.9-0.3,1.8 c0,0,0.7-0.3,1.3-0.1c0.6,0.2,1.1,0.7,2.1,0.5c0,0-0.3,0.6-0.1,1.1C20,96.2,20.2,96.5,20.3,97L20.3,97z M18.8,97 c0,0,0.1-0.1,0.1-0.2c0.2-0.3,0.1-0.3-0.1-0.4c-0.2-0.1-0.4,0.1-0.4,0.3c0,0.1,0,0.2,0,0.3H18.8L18.8,97z M84.1,82.1V17.9h0.6 l0,64.1H84.1z M15.5,97H16c-0.1,0.2-0.1,0.3-0.3,0.5c-0.2,0.3-0.3,0.5-0.3,0.7c0,0.2,0.2,0.3,0.3,0.2c0.1-0.1,0-0.5,0-0.5 s0.6,0,0.5,0.5c0,0,0.6,0,0.5,0.5c0,0-0.3-0.2-0.4-0.1c-0.1,0.1-0.2,0.3,0.1,0.4c0.3,0.1,0.4,0,0.6-0.1c0.2-0.2,0.6-0.6,1-0.5 c0.4,0.1,0.6,0.2,0.7,0.2c0.1,0.1,0.3,0,0.2-0.2c-0.1-0.2-0.6-0.8-0.7-0.8c-0.1,0-0.2,0.3-0.4,0.4c-0.2,0.1-0.5,0.1-0.5-0.3 c0-0.4,0.4-0.4,0.6-0.4c0.2,0,0.4-0.1,0.5-0.3c0.1-0.1,0.1-0.2,0.1-0.3h0.4c0,0-0.1,0.1-0.1,0.1c0,0.1,0,0.1,0.1,0.2 c0.1,0.1,0.2,0.2,0.3,0.3c0.1,0.1,0,0.2-0.1,0.2c-0.2,0-0.4,0-0.3,0.1c0,0.1,0.1,0.2,0.3,0.2c0.2,0,0.6-0.2,0.7-0.5 c0.1-0.2,0.1-0.4,0-0.6h0.5c0,0.3,0,0.5-0.1,0.9c0,0,0.1,0.1,0.3-0.1c0.2-0.1,1.1-0.5,2.2-0.4c0,0,0.1-0.2,0.2-0.4h0.4 c0,0.1-0.1,0.3-0.2,0.5c0,0,0.3,0.1,0.6,0.2c0.3,0.1,0.6,0.1,0.9,0.1c0.3-0.1,0.5-0.1,0.5-0.4c-0.1-0.3-0.2-0.4-0.4-0.2 c-0.2,0.2-0.2,0.2-0.2,0.2s0-0.2,0-0.4h0.7c0.1,0.2,0.2,0.4,0.2,0.4s0.6,0.2,0.3,0.8c0,0-0.1-0.3-0.3-0.3c-0.1,0-0.6,0.3-1,0.3 c0,0,0,0.1,0.1,0.2c0.1,0.1,0.9,1,1.9,0.8c1-0.2,0.9-0.9,0.9-1c0,0-0.1,0.1-0.3,0.1c-0.2,0-0.3-0.3,0-0.6c0.3-0.2,0.7,0,0.7,0.3 c0.1,0.2-0.1,0.7-0.1,0.7s0.8-0.4,1.3-0.4c0.5,0.1,0.7,0.4,0.7,0.8c0,0.3-0.3,0.7-0.7,0.7c-0.4-0.1-0.3-0.4-0.1-0.4 c0.2,0,0.6-0.1,0.4-0.4c-0.2-0.3-0.5-0.2-0.8,0c-0.3,0.2-0.4,0.1-1.1,0.5c-0.3,0.2-0.7,0.3-1.1,0.3c-0.3,0-0.7-0.1-1.3-0.5 c-0.3-0.3-0.5-0.4-0.6-0.6c-0.4-0.4-0.5-0.4-0.7-0.5c-0.2-0.1-0.7-0.3-0.8-0.3c0,0,0.5,0.3,0.4,0.9c0,0-0.1,0.3,0.4,0.1 c0,0-0.1,0.4-0.3,0.3c-0.3,0-0.4-0.3-0.4-0.3s-0.1,0.2-0.4,0.1c-0.3-0.2-0.2-0.4-0.1-0.4c0.1,0,0.2,0.3,0.3,0.1 c0.1-0.1,0-0.3-0.3-0.5c-0.3-0.2-0.6-0.5-1.1-0.3c-0.5,0.1-0.6,0.6-0.7,0.9c-0.1,0.3-0.2,0.8,0.1,0.8c0.3-0.1,0.5-0.2,0.1-0.5 c0,0,0.3-0.2,0.5,0c0.2,0.2,0.1,0.2,0.3,0.3c0.1,0.1,0.3,0.3,0.2,0.6c0,0-0.2-0.3-0.4-0.2c-0.2,0.1-0.5,0.4-1,0.1 c-0.4-0.3-0.4-0.6-0.5-0.8c0-0.2-0.2-0.3-0.3-0.3c-0.1,0.1-0.3,0.3-0.4,0.7c0,0-0.4-0.1-0.6,0.3c0,0-0.2,0.3-0.3,0.2 c-0.1-0.2,0-0.5,0-0.6c-0.1-0.1-0.5-0.3-0.9,0.2c-0.4,0.5-0.8,0.6-1.1,0.4c-0.3-0.2-0.6-0.4-0.8-0.3c-0.1,0-0.1,0.1-0.3,0.1 c-0.1,0-0.3,0-0.3,0s-0.1-0.2,0.2-0.8c0,0-0.3-0.8-0.1-1.1C15,97.7,15.3,97.3,15.5,97L15.5,97z M16.2,97c0,0.2,0.1,0.4,0.2,0.5 c0.2,0.1,0.4,0.1,0.5-0.4c0,0,0-0.1,0-0.1H16.2L16.2,97z M21.8,97C21.8,97.1,21.8,97.1,21.8,97c0.2,0.1,0.3,0.1,0.5,0H21.8L21.8,97z M74.8,97h0.7c0.1,0.2,0,0.4,0,0.4s-0.1,0-0.2-0.2c-0.2-0.2-0.3-0.1-0.4,0.2c-0.1,0.3,0.1,0.3,0.5,0.4c0.3,0.1,0.6,0,0.9-0.1 c0.3-0.1,0.6-0.2,0.6-0.2c-0.1-0.2-0.2-0.3-0.2-0.5h0.3c0.1,0.2,0.2,0.4,0.2,0.4c1.1-0.1,2,0.3,2.2,0.4c0.2,0.2,0.3,0.1,0.3,0.1 c-0.1-0.4-0.1-0.7-0.1-0.9h0.5c0,0.2,0,0.4,0.1,0.6c0.1,0.4,0.6,0.5,0.7,0.5c0.2,0,0.3-0.1,0.3-0.2c0-0.1-0.2-0.1-0.3-0.1 c-0.2,0-0.2-0.1-0.1-0.2c0.1-0.1,0.2-0.2,0.3-0.3c0.1,0,0.2-0.1,0.1-0.2c0,0,0-0.1-0.1-0.1h0.4c0,0.1,0.1,0.2,0.1,0.3 c0.1,0.2,0.3,0.2,0.5,0.3c0.2,0,0.6,0,0.6,0.4c0,0.4-0.3,0.4-0.5,0.3c-0.2-0.1-0.2-0.4-0.3-0.4c-0.1,0-0.6,0.6-0.7,0.8 c-0.1,0.2,0,0.2,0.2,0.2c0.1-0.1,0.3-0.2,0.7-0.2c0.4-0.1,0.8,0.3,1,0.5c0.2,0.1,0.4,0.2,0.6,0.1c0.3-0.1,0.1-0.3,0.1-0.4 c-0.1-0.1-0.4,0.1-0.4,0.1c-0.1-0.5,0.5-0.5,0.5-0.5C83.7,98,84.4,98,84.4,98s-0.1,0.3,0,0.5c0.1,0.1,0.3,0,0.3-0.2 c0-0.2,0-0.3-0.3-0.7c-0.2-0.2-0.3-0.3-0.3-0.5h0.5c0.1,0.3,0.5,0.6,0.6,0.9c0.2,0.3-0.1,1.1-0.1,1.1c0.3,0.5,0.2,0.8,0.2,0.8 s-0.2,0-0.3,0c-0.2,0-0.2-0.1-0.3-0.1c-0.2-0.1-0.5,0.1-0.8,0.3c-0.3,0.2-0.7,0.1-1.1-0.4c-0.4-0.5-0.8-0.3-0.9-0.2 c-0.1,0.1,0,0.4-0.1,0.6c-0.1,0.2-0.3-0.2-0.3-0.2c-0.2-0.4-0.6-0.3-0.6-0.3c-0.1-0.3-0.2-0.6-0.4-0.7c-0.1,0-0.3,0.1-0.3,0.3 c0,0.2-0.1,0.5-0.5,0.8c-0.4,0.3-0.8,0-1-0.1c-0.2-0.1-0.4,0.2-0.4,0.2c-0.1-0.3,0.1-0.5,0.2-0.6c0.1-0.1,0.1-0.1,0.3-0.3 c0.2-0.2,0.5,0,0.5,0c-0.4,0.3-0.2,0.5,0.1,0.5c0.3,0.1,0.2-0.5,0.1-0.8c-0.1-0.3-0.2-0.7-0.7-0.9c-0.5-0.1-0.8,0.1-1.1,0.3 c-0.3,0.2-0.4,0.3-0.3,0.5c0.1,0.1,0.2-0.1,0.3-0.1c0.1,0,0.2,0.3-0.1,0.4c-0.3,0.2-0.4-0.1-0.4-0.1s-0.1,0.2-0.4,0.3 c-0.3,0.1-0.3-0.3-0.3-0.3c0.5,0.2,0.4-0.1,0.4-0.1c-0.1-0.6,0.4-0.9,0.4-0.9c-0.1,0-0.6,0.1-0.8,0.3c-0.2,0.1-0.3,0.2-0.7,0.5 c-0.1,0.1-0.3,0.3-0.6,0.6c-0.6,0.4-1,0.5-1.3,0.5c-0.4,0-0.7-0.1-1.1-0.3c-0.7-0.3-0.8-0.3-1.1-0.5c-0.3-0.1-0.6-0.2-0.9,0 c-0.2,0.3,0.2,0.4,0.4,0.4c0.2,0,0.3,0.3-0.1,0.4c-0.4,0.1-0.7-0.3-0.7-0.7c0-0.3,0.2-0.7,0.7-0.8c0.5-0.1,1.3,0.4,1.3,0.4 s-0.2-0.5-0.1-0.7c0.1-0.2,0.5-0.5,0.7-0.3c0.3,0.2,0.2,0.5,0,0.6c-0.2,0-0.3-0.1-0.3-0.1c0,0.1-0.1,0.8,0.9,1 c0.9,0.2,1.7-0.7,1.9-0.8c0.1-0.1,0.1-0.2,0.1-0.2c-0.4,0-0.9-0.2-1-0.3c-0.1,0-0.3,0.3-0.3,0.3c-0.3-0.6,0.3-0.8,0.3-0.8 S74.7,97.2,74.8,97L74.8,97z M77.8,97c0.1,0.1,0.3,0.1,0.4,0c0,0,0,0,0,0H77.8L77.8,97z M83,97C83,97.1,83.1,97.1,83,97 c0.1,0.5,0.3,0.5,0.6,0.5c0.1-0.1,0.2-0.3,0.2-0.5H83L83,97z M31.9,99.4v-0.6h36.1l0,0.6H31.9z" fill_="0"></path> </svg>