<!--?xml version="1.0" encoding="utf-8"?--> <!-- Generator: Adobe Illustrator 19.2.0, SVG Export Plug-In . SVG Version: 6.00 Build 0) --> <svg version="1.2" baseProfile="tiny" id="图层_1" xmlns="http://www.w3.org/2000/svg" xmlns:xlink="http://www.w3.org/1999/xlink" x="0px" y="0px" viewBox="0 0 100 100" xml:space="preserve" preserveAspectRatio="none"> <path fill-rule="evenodd" fill="#64b3fd" d="M92.4,55.5h-9.7c-3,0-5.5-2.5-5.5-5.5c0-3,2.4-5.5,5.5-5.5h9.7c3,0,5.5,2.5,5.5,5.5 C97.9,53,95.5,55.5,92.4,55.5L92.4,55.5z M77.3,29.5c-2,2.2-5.5,2.4-7.7,0.3c-2.2-2.1-2.4-5.5-0.3-7.7l6.6-7.1 c2-2.2,5.5-2.4,7.7-0.3c2.2,2,2.4,5.5,0.3,7.7L77.3,29.5L77.3,29.5z M48.6,68.7c-10.3,0-18.7-8.4-18.7-18.8 c0-10.4,8.4-18.8,18.7-18.8c10.3,0,18.7,8.4,18.7,18.8C67.4,60.3,59,68.7,48.6,68.7L48.6,68.7z M48,20.7c-3,0-5.5-2.5-5.5-5.5V5.5 C42.5,2.5,45,0,48,0c3,0,5.5,2.5,5.5,5.5v9.7C53.5,18.2,51,20.7,48,20.7L48,20.7z M21.1,83.5c-2,2.2-5.5,2.4-7.7,0.3 c-2.2-2-2.4-5.5-0.3-7.7l6.6-7.1c2-2.2,5.5-2.4,7.7-0.3c2.2,2,2.4,5.5,0.3,7.7L21.1,83.5L21.1,83.5z M19.6,29.5L13,22.4 c-2-2.2-1.9-5.7,0.3-7.7c2.2-2.1,5.7-1.9,7.7,0.3l6.6,7.1c2,2.2,1.9,5.7-0.3,7.7C25.1,31.9,21.6,31.7,19.6,29.5L19.6,29.5z M22.7,50 c0,3-2.4,5.5-5.5,5.5H7.6c-3,0-5.5-2.5-5.5-5.5c0-3,2.4-5.5,5.5-5.5h9.7C20.3,44.5,22.7,47,22.7,50L22.7,50z M48,79.3 c3,0,5.5,2.5,5.5,5.5v9.7c0,3-2.4,5.5-5.5,5.5c-3,0-5.5-2.5-5.5-5.5v-9.7C42.5,81.8,45,79.3,48,79.3L48,79.3z M77.3,68.9l6.6,7.1 c2,2.2,1.9,5.7-0.3,7.7c-2.2,2.1-5.7,1.9-7.7-0.3l-6.6-7.1c-2-2.2-1.9-5.7,0.3-7.7C71.8,66.5,75.3,66.7,77.3,68.9L77.3,68.9z" fill_="0"></path> </svg>