<!--?xml version="1.0" encoding="utf-8"?--> <!-- Generator: Adobe Illustrator 19.2.1, SVG Export Plug-In . SVG Version: 6.00 Build 0) --> <svg version="1.2" baseProfile="tiny" id="图层_1" xmlns="http://www.w3.org/2000/svg" xmlns:xlink="http://www.w3.org/1999/xlink" x="0px" y="0px" viewBox="0 0 100 100" xml:space="preserve" preserveAspectRatio="none"> <path fill-rule="evenodd" fill="#64b3fd" d="M15,78h-4.5c0,0-0.6,0-0.6,0c0-1-0.1-2.1-0.4-3c-1-3.2-4.6-4.8-7.7-4.8 c-0.3,0-0.7,0-1.1,0.1L0,70.3V37.1l0.6,0c4.1-0.2,7.3-2.8,7.6-6.2l0-0.6H15c0.2-3.9,4-7,8.6-7h12.3c2-4.9,7.8-8.2,14.1-8.2 c6.4,0,12.1,3.4,14.1,8.2h12.3c4.6,0,8.3,3.1,8.5,7h5.9l0.1,0.6c0.3,3.5,3.8,6.3,8,6.3c0.3,0,1.1,0,1.1,0l0,32.4v0.7l-0.7,0 c-0.1,0-0.1,0-0.2,0c-0.1,0-0.1,0-0.2,0c-4.4,0-8,3-8,6.7c0,0.1,0,0.2,0,0.4l0,0.1L91,78h-6c-0.2,3.9-4,7-8.5,7H23.6 C19,85.1,15.2,81.9,15,78z M83.7,77.7v-1h5.9c0.1-4.3,4.1-7.8,9.1-7.9c0,0,0-29.5-0.1-30.3c-4.7-0.2-8.3-3.2-8.9-6.9h-6v-1 c0-3.3-3.2-6-7.2-6H63.2l-0.2-0.4c-1.7-4.6-7-7.8-13.1-7.8c-6,0-11.4,3.2-13.1,7.8l-0.2,0.4H23.6c-4,0-7.2,2.7-7.2,6v1H9.5 c-0.6,3.6-4,6.4-8.2,6.8v30.5c0.2,0,0.3,0,0.5,0c5.1,0,9.2,3.5,9.4,7.9h5.1v1c0,3.3,3.2,6,7.2,6h52.9C80.4,83.7,83.7,81,83.7,77.7z M19.1,81.1c-1.1-0.9-1.7-2.1-1.7-3.4v-2.1h-5.2l0-0.2c-0.1-0.8-0.4-1.5-0.7-2.2c-0.5-1.1-1.3-2.1-2.3-2.9c-1.8-1.5-4.1-2.4-6.5-2.6 l-0.2,0V39.3l0.2,0c3.8-0.7,6.8-3.2,7.8-6.5l0-0.1h7v-2.1c0-1.3,0.6-2.5,1.7-3.4c1.2-1,2.8-1.6,4.4-1.6h14c0.1-0.3,0.4-1.2,0.4-1.2 c0.7-2,2.2-3.7,4.3-5c2.2-1.4,4.9-2.1,7.7-2.1c2.8,0,5.5,0.7,7.7,2.1c2.1,1.3,3.6,3,4.3,5l0.4,1.2h14c1.7,0,3.3,0.6,4.4,1.6 c1.1,0.9,1.7,2.1,1.7,3.4v2.1h6.3l0,0.1c0.5,1.7,1.6,3.2,3,4.4c1.5,1.2,3.3,1.9,5.2,2.2l0.6,0l-0.1,28.4l-0.2,0 c-2.2,0.3-4.2,1.1-5.7,2.5c-1,0.8-1.8,1.8-2.3,2.9c-0.4,0.7-0.6,1.5-0.7,2.2l0,0.2h-6v2.1c0,1.3-0.6,2.5-1.7,3.4 c-1.2,1-2.8,1.6-4.4,1.6H23.6C21.9,82.6,20.3,82.1,19.1,81.1z M80.6,80.8c1-0.9,1.6-2,1.6-3.1v-2.5h6.1c0.1-0.7,0.4-1.5,0.7-2.2 c0.6-1.1,1.4-2.2,2.4-3c1.6-1.4,3.6-2.2,5.8-2.5l0.1-27.7c-2.2-0.3-4.1-1.2-5.6-2.4c-1.5-1.2-2.6-2.7-3.1-4.4h-6.4v-2.5 c0-1.1-0.6-2.2-1.6-3.1C79.5,26.5,78,26,76.4,26H62.2l0-0.1l-0.5-1.3c-0.7-1.9-2.2-3.6-4.2-4.8c-2.2-1.3-4.8-2-7.5-2 c-2.8,0-5.4,0.7-7.5,2c-2,1.2-3.5,2.9-4.2,4.8l-0.5,1.3l0,0.1H23.6c-1.6,0-3.1,0.5-4.2,1.5c-1,0.9-1.6,2-1.6,3.1V33h-7.1 c-1.1,3.3-4.1,5.8-7.9,6.6v27.7c2.5,0.2,4.8,1.1,6.6,2.6c1,0.9,1.8,1.9,2.4,3c0.3,0.7,0.6,1.4,0.7,2.2h5.3v2.5 c0,1.1,0.6,2.3,1.6,3.1c1.1,0.9,2.6,1.5,4.2,1.5h52.9C78,82.3,79.5,81.7,80.6,80.8z" fill_="0"></path> </svg>