<?xml version="1.0" encoding="UTF-8" standalone="no"?>
<svg width="70px" height="70px" viewBox="0 0 70 70" version="1.1" xmlns="http://www.w3.org/2000/svg" xmlns:xlink="http://www.w3.org/1999/xlink" xmlns:sketch="http://www.bohemiancoding.com/sketch/ns">
    <!-- Generator: Sketch 3.4.3 (16044) - http://www.bohemiancoding.com/sketch -->
    <title>shape17</title>
    <desc>Created with Sketch.</desc>
    <defs></defs>
    <g id="Page-1" stroke="none" stroke-width="1" fill="none" fill-rule="evenodd" sketch:type="MSPage">
        <g id="shape17" sketch:type="MSLayerGroup">
            <path class="color1-fill" d="M35,68.25 L35,68.25 C53.3634679,68.25 68.25,53.3634679 68.25,35 C68.25,16.6365321 53.3634679,1.75 35,1.75 C16.6365321,1.75 1.75,16.6365321 1.75,35 C1.75,53.3634679 16.6365321,68.25 35,68.25 L35,68.25 Z M35,70 L35,70 C15.6700338,70 0,54.3299662 0,35 C0,15.6700338 15.6700338,0 35,0 C54.3299662,0 70,15.6700338 70,35 C70,54.3299662 54.3299662,70 35,70 L35,70 Z" id="oval" fill="#FFAFA0" sketch:type="MSShapeGroup"></path>
            <circle class="color2-fill" id="Oval-157" fill="#EF593D" sketch:type="MSShapeGroup" cx="35" cy="35" r="30.625"></circle>
        </g>
    </g>
</svg>