<?xml version="1.0" encoding="UTF-8" standalone="no"?>
<svg width="52px" height="63px" viewBox="0 0 367 448" version="1.1" xmlns="http://www.w3.org/2000/svg" xmlns:xlink="http://www.w3.org/1999/xlink" xmlns:sketch="http://www.bohemiancoding.com/sketch/ns">
    <!-- Generator: Sketch 3.3.3 (12072) - http://www.bohemiancoding.com/sketch -->
    <title>maka_hua2</title>
    <desc>Created with Sketch.</desc>
    <defs></defs>
    <g id="Page-1" stroke="none" stroke-width="1" fill="none" fill-rule="evenodd" sketch:type="MSPage">
        <g id="maka_hua2" sketch:type="MSLayerGroup" transform="translate(-7.000000, 0.000000)" fill="#000000">
            <g id="Page-1" sketch:type="MSShapeGroup">
                <g id="花-01">
                    <path d="M114.24,416.64 C103.786667,416.64 93.3333333,415.146667 82.88,411.413333 C65.7066667,406.186667 50.7733333,397.226667 38.08,384.533333 C24.64,372.586667 15.68,357.653333 11.2,341.226667 C6.72,324.8 5.97333333,308.373333 9.70666667,292.693333 L11.2,285.973333 L17.92,284.48 C35.0933333,280.746667 51.52,281.493333 68.6933333,285.973333 C85.8666667,290.453333 100.8,298.666667 114.24,311.36 C120.96,318.08 126.186667,324.8 130.666667,332.266667 C135.146667,339.733333 138.133333,347.946667 141.12,356.16 C143.36,364.373333 144.853333,373.333333 144.853333,381.546667 C144.853333,389.76 144.106667,397.973333 142.613333,406.186667 L141.12,412.906667 L134.4,414.4 C127.68,415.893333 120.96,416.64 114.24,416.64 L114.24,416.64 L114.24,416.64 Z M30.6133333,305.386667 C29.12,315.093333 29.8666667,325.546667 32.8533333,336 C36.5866667,348.693333 43.3066667,359.146667 53.76,368.853333 C64.2133333,379.306667 76.16,386.026667 90.3466667,390.506667 C101.546667,394.24 112,394.986667 122.453333,394.24 C123.2,390.506667 123.2,386.026667 123.2,382.293333 C123.2,375.573333 122.453333,368.853333 120.213333,362.88 C118.72,356.16 115.733333,350.186667 112,344.213333 C108.266667,338.24 104.533333,333.013333 99.3066667,327.786667 C88.8533333,318.08 76.9066667,311.36 63.4666667,308.373333 C53.0133333,304.64 41.8133333,303.893333 30.6133333,305.386667 L30.6133333,305.386667 L30.6133333,305.386667 Z" id="Shape"></path>
                    <path d="M266.56,416.64 C259.84,416.64 253.12,415.893333 246.4,414.4 L239.68,412.906667 L238.186667,406.186667 C236.693333,398.72 235.946667,389.76 235.946667,381.546667 C235.946667,373.333333 237.44,364.373333 239.68,356.16 C241.92,347.946667 245.653333,339.733333 250.133333,332.266667 C254.613333,324.8 260.586667,317.333333 266.56,311.36 C280,298.666667 294.933333,290.453333 312.106667,285.973333 C328.533333,281.493333 345.706667,281.493333 362.88,284.48 L369.6,285.973333 L371.093333,292.693333 C374.826667,308.373333 374.08,324.8 369.6,341.226667 C365.12,357.653333 356.16,372.586667 342.72,384.533333 C330.026667,396.48 315.093333,405.44 297.92,411.413333 C287.466667,415.146667 277.013333,416.64 266.56,416.64 L266.56,416.64 L266.56,416.64 Z M258.346667,394.24 C268.8,395.733333 280,394.24 290.453333,390.506667 C303.893333,386.026667 315.84,378.56 326.293333,368.853333 C336.746667,359.146667 343.466667,347.946667 347.2,335.253333 C350.186667,324.8 350.933333,315.093333 349.44,304.64 C338.24,303.146667 327.04,303.893333 316.586667,306.88 C303.146667,310.613333 291.2,317.333333 280.746667,327.04 C276.266667,331.52 272.533333,337.493333 268.8,343.466667 C265.066667,349.44 262.826667,356.16 260.586667,362.133333 C259.093333,368.853333 257.6,375.573333 257.6,381.546667 C257.6,386.026667 258.346667,389.76 258.346667,394.24 L258.346667,394.24 L258.346667,394.24 Z" id="Shape"></path>
                    <path d="M191.146667,28.3733333 C198.613333,35.0933333 205.333333,43.3066667 211.306667,51.52 C219.52,64.96 224.746667,78.4 226.24,94.08 L232.213333,141.12 L265.066667,106.773333 L268.053333,103.786667 C274.773333,96.32 279.253333,91.84 291.2,85.12 L300.16,80.64 C303.146667,110.506667 305.386667,156.053333 305.386667,170.986667 C305.386667,181.44 303.893333,191.146667 300.906667,200.853333 C297.92,210.56 293.44,219.52 288.213333,227.733333 C282.24,235.946667 275.52,244.16 268.053333,250.88 C260.586667,257.6 251.626667,263.573333 242.666667,268.053333 L242.666667,268.053333 C236.693333,271.04 229.973333,274.026667 222.506667,275.52 C217.28,277.013333 212.053333,277.76 206.826667,278.506667 L191.893333,280 L176.213333,278.506667 C162.773333,277.013333 150.08,273.28 138.88,268.053333 C129.92,263.573333 120.96,257.6 113.493333,250.88 C106.026667,244.16 99.3066667,235.946667 93.3333333,227.733333 C88.1066667,219.52 83.6266667,209.813333 80.64,200.106667 C77.6533333,190.4 76.16,179.946667 76.16,169.493333 C76.16,151.573333 78.4,106.026667 81.3866667,79.1466667 C84.3733333,80.64 88.1066667,82.1333333 91.0933333,84.3733333 C100.8,89.6 109.76,97.0666667 117.226667,104.533333 L149.333333,138.133333 L156.053333,91.84 C158.293333,76.16 163.52,62.72 171.733333,50.0266667 C176.96,42.56 183.68,35.0933333 191.146667,28.3733333 L191.146667,28.3733333 L191.146667,28.3733333 Z M190.4,0 C174.72,10.4533333 162.026667,23.1466667 152.32,38.8266667 C141.866667,54.5066667 135.893333,71.68 132.906667,90.3466667 C123.946667,80.64 113.493333,72.4266667 101.546667,65.7066667 C90.3466667,58.9866667 77.6533333,53.76 63.4666667,50.7733333 C56,67.2 53.0133333,153.813333 53.0133333,170.986667 C53.0133333,183.68 54.5066667,196.373333 58.24,208.32 C61.9733333,220.266667 67.2,230.72 73.92,241.173333 C80.64,251.626667 88.1066667,260.586667 97.8133333,268.8 C106.773333,277.013333 117.226667,283.733333 128.426667,289.706667 C142.613333,296.426667 157.546667,300.906667 173.226667,302.4 L173.226667,448 L209.066667,448 L209.066667,301.653333 C215.786667,300.906667 221.76,299.413333 228.48,297.92 C236.693333,295.68 244.906667,292.693333 253.12,288.213333 C264.32,282.986667 274.026667,276.266667 283.733333,267.306667 C292.693333,259.093333 300.906667,250.133333 307.626667,239.68 C314.346667,229.226667 319.573333,218.773333 323.306667,206.826667 C327.04,194.88 328.533333,182.933333 328.533333,170.24 C328.533333,153.066667 325.546667,72.4266667 318.826667,50.0266667 C318.826667,50.0266667 296.426667,55.2533333 280.746667,64.96 C265.066667,74.6666667 259.093333,81.3866667 250.133333,91.0933333 C247.893333,72.4266667 241.92,54.5066667 231.466667,38.8266667 C219.52,23.8933333 206.826667,10.4533333 190.4,0 L190.4,0 L190.4,0 Z" id="Shape"></path>
                </g>
            </g>
        </g>
    </g>
</svg>