<?xml version="1.0" encoding="UTF-8" standalone="no"?>
<svg width="52px" height="63px" viewBox="0 0 367 448" version="1.1" xmlns="http://www.w3.org/2000/svg" xmlns:xlink="http://www.w3.org/1999/xlink" xmlns:sketch="http://www.bohemiancoding.com/sketch/ns">
    <!-- Generator: Sketch 3.3.3 (12072) - http://www.bohemiancoding.com/sketch -->
    <title>maka_hua</title>
    <desc>Created with Sketch.</desc>
    <defs></defs>
    <g id="Page-1" stroke="none" stroke-width="1" fill="none" fill-rule="evenodd" sketch:type="MSPage">
        <g id="花-02" sketch:type="MSLayerGroup" transform="translate(-7.000000, 0.000000)" transform-origin="right bottom" fill="#000000">
            <path d="M9.69628949,295.35961 C24.9536179,292.173913 40.1635636,292.553162 55.3103324,296.482189 C70.4571011,300.411215 84.0086412,307.890017 95.949159,318.948937 C101.698297,324.470811 106.562953,330.675336 110.55892,337.577678 C114.523299,344.480022 117.555812,351.655425 119.656458,359.073547 C121.772899,366.52201 122.862708,374.061492 122.973269,381.707165 C123.099623,389.337667 122.373084,396.67994 120.825239,403.703644 C105.789031,406.88934 90.6422623,406.024651 75.3849339,401.139916 C60.1276047,396.240011 46.6392416,388.184749 34.9040503,376.92862 C22.9635317,365.88487 14.9558035,353.096573 10.8650707,338.533388 C6.75854293,323.985372 6.37947893,309.604226 9.69628949,295.35961 L9.69628949,295.35961 Z M371.10229,295.35961 C374.4191,309.604226 374.040036,323.985372 369.949303,338.533388 C365.85857,353.096573 357.835047,365.88487 345.894529,376.92862 C334.175132,388.184749 320.686769,396.240011 305.42944,401.139916 C290.172111,406.024651 275.009548,406.88934 259.989135,403.703644 C258.425495,396.67994 257.71475,389.337667 257.82531,381.707165 C257.935871,374.061492 259.041474,366.52201 261.142121,359.073547 C263.242768,351.655425 266.291075,344.480022 270.255453,337.577678 C274.25142,330.675336 279.116076,324.470811 284.865214,318.948937 C296.805732,307.890017 310.357273,300.411215 325.488247,296.482189 C340.635015,292.553162 355.844961,292.173913 371.10229,295.35961 L371.10229,295.35961 Z M317.875377,50.5767315 C317.875377,50.5767315 295.831626,55.8794305 279.447659,65.5950146 C263.063692,75.310598 257.651573,82.0999596 248.522446,91.7025596 C246.232268,72.7855886 240.025094,55.3856158 229.900925,39.4874711 C219.776755,23.5893265 206.714839,10.4217799 190.73097,0 C175.315699,10.4217799 162.53808,23.3769469 152.413911,38.8655015 C142.273947,54.3388869 135.924624,71.4051199 133.350147,90.0642012 C124.221021,80.4616012 113.875731,72.3001492 102.314277,65.5950124 C90.768617,58.8747122 78.1331481,53.8686169 64.4394583,50.5767315 C57.3004186,66.7631044 53.7308987,153.459569 53.7308987,170.723013 C53.7308987,183.602329 55.5946302,195.935528 59.2905047,207.737776 C63.0021743,219.509684 68.1511279,230.492753 74.7057771,240.626304 C81.2762212,250.775024 89.1891833,259.937695 98.4762531,268.174997 C107.747529,276.397129 117.95067,283.238792 129.069882,288.730326 C142.93731,295.66301 157.894545,299.940945 173.910003,301.685494 L173.910003,448 L209.131372,448 L209.131372,301.655154 C215.670228,300.896655 222.035345,299.683055 228.179342,297.984018 C236.597723,295.66301 244.810777,292.583502 252.786917,288.305567 C263.937719,282.844372 274.061888,275.987539 283.191014,267.765407 C292.320141,259.543275 300.248897,250.350264 306.96149,240.201544 C313.658289,230.067994 318.791448,219.100095 322.360969,207.313016 C325.930488,195.525938 327.715248,183.32927 327.715248,170.723013 C327.715248,153.459569 324.430026,72.8614387 317.875377,50.5767315 L317.875377,50.5767315 Z" id="Fill-89"></path>
        </g>
    </g>
</svg>