<?xml version="1.0" encoding="utf-8"?>
<!-- Generated by IcoMoon.io -->
<!DOCTYPE svg PUBLIC "-//W3C//DTD SVG 1.1//EN" "http://www.w3.org/Graphics/SVG/1.1/DTD/svg11.dtd">
<svg version="1.1" xmlns="http://www.w3.org/2000/svg" xmlns:xlink="http://www.w3.org/1999/xlink" width="448" height="448" viewBox="0 0 448 448"><g id="icomoon-ignore">
</g>
<path fill='red' d="M416 149q0-20.25-5.375-35.75t-13.75-24.625-20.375-14.875-23.5-7.75-24.5-2-28 6.375-27.625 16-21.625 18-15 15.375q-4.5 5.5-12.25 5.5t-12.25-5.5q-6-7-15-15.375t-21.625-18-27.625-16-28-6.375-24.5 2-23.5 7.75-20.375 14.875-13.75 24.625-5.375 35.75q0 42 46.75 88.75l145.25 140 145-139.75q47-47 47-89zM448 149q0 55.25-57.25 112.5l-155.75 150q-4.5 4.5-11 4.5t-11-4.5l-156-150.5q-2.5-2-6.875-6.5t-13.875-16.375-17-24.375-13.375-30.25-5.875-34.5q0-55 31.75-86t87.75-31q15.5 0 31.625 5.375t30 14.5 23.875 17.125 19 17q9-9 19-17t23.875-17.125 30-14.5 31.625-5.375q56 0 87.75 31t31.75 86z"></path>
</svg>
