<?xml version="1.0" encoding="utf-8"?>
<!DOCTYPE svg PUBLIC "-//W3C//DTD SVG 1.1//EN" "http://www.w3.org/Graphics/SVG/1.1/DTD/svg11.dtd">
<svg version="1.1" id="图形" xmlns="http://www.w3.org/2000/svg" xmlns:xlink="http://www.w3.org/1999/xlink" x="0px" y="0px" width="80px" height="80px" viewBox="0 0 1069 1024" enable-background="new 0 0 1069 1024" xml:space="preserve">
  <path fill="#272636" d="M1068.264558 313.786404c0.403002-4.921104 0.03433-9.976541-1.300055-15.020038l-96.184663-424.53287c-1.346326-5.08529-3.574778-9.701903-6.395793-13.806554-10.301928-20.571019-25.968262-38.762833-46.796008-52.003691-21.933763-13.946858-46.439276-20.451611-70.641792-20.412803l0 0.270161-617.802233 0.255235c-2.164271-0.326879-4.35093-0.535844-6.600279-0.535844-2.256812 0-4.449442 0.216427-6.624161 0.547784l-164.332319 0.064182c-2.30756-0.36718-4.658406-0.611966-7.077911-0.611966-24.580143 0-44.509344 19.92323-44.509344 44.503374l0.403002 534.362886c0 24.581636 19.933678 44.504866 44.521285 44.504866 1.835898 0 3.637467-0.140304 5.416647-0.36718l147.713706 0.349268 0 0.834364c135.9147 9.730262 243.608805 121.15139 247.456728 258.615409-0.349268 3.859865-0.594055 7.755552-0.594055 11.707958 0 71.510485 57.9726 129.489055 129.495026 129.489055 61.459314 0 112.801783-42.85405 126.060552-100.278866l0.653759 0.088063c7.294338-32.784968 11.264655-66.811779 11.264655-101.787885 0-53.92019-9.206359-105.671631-26.050355-153.837846l248.441845-0.268668c2.291142 0 4.518101-0.232846 6.722672-0.564203 42.416718-1.668727 83.270684-23.508456 107.338865-62.299648C1064.159906 368.382741 1070.258672 340.665152 1068.264558 313.786404M89.060481-122.385764l89.020181-0.0403 0.331357 444.712827-88.938088-0.198516L89.060481-122.385764 89.060481-122.385764 89.060481-122.385764 89.060481-122.385764zM973.711307 346.54152c-8.5526 13.800583-23.660702 21.042681-38.813581 20.226228l0 0.134334-0.110452 0L620.747134 367.233439c-24.575666 0-44.503374 19.935171-44.503374 44.516807 0 7.071941 1.697087 13.748342 4.640495 19.688892l-0.471662 0.391061c17.776871 33.099907 30.714731 69.189492 38.043399 107.256772l0.559725-0.023882c0 0 5.918161 24.039822 5.842038 70.141771-0.058211 36.516469-6.716702 69.853699-6.716702 69.853699L617.802233 679.05856c0.029852 0.647789 0.104482 1.283636 0.104482 1.941873 0 22.984554-18.639594 41.618177-41.630118 41.618177-22.983061 0-41.624147-18.633623-41.624147-41.618177 0-0.961235 0.088063-1.912021 0.146275-2.856837l-0.577636-0.00597c0 0 0.706-34.74923-6.233099-70.792545-2.949378-15.282736-7.083882-29.54304-10.855683-40.837547-0.076123 0.041793-0.140304 0.070152-0.216427 0.105975C479.451609 452.078816 385.253598 363.292974 267.51877 333.382754l-0.425391-455.838671 580.061832-0.238816c1.959784 0 3.877776-0.162693 5.765915-0.425391 5.789797 0.776152 11.503471 2.774744 16.761903 6.116676 7.457032 4.734528 12.867708 11.463171 16.039484 19.042596l0.116423-0.064182 92.605407 408.733695-0.355239 0.111945C981.787768 322.380797 980.620554 335.423139 973.711307 346.54152" transform="translate(0, 812) scale(1, -1)"/>
</svg>
