<?xml version="1.0" encoding="utf-8"?>
<!DOCTYPE svg PUBLIC "-//W3C//DTD SVG 1.1//EN" "http://www.w3.org/Graphics/SVG/1.1/DTD/svg11.dtd">
<svg version="1.1" id="图形" xmlns="http://www.w3.org/2000/svg" xmlns:xlink="http://www.w3.org/1999/xlink" x="0px" y="0px" width="80px" height="80px" viewBox="0 0 1024 1024" enable-background="new 0 0 1024 1024" xml:space="preserve">
  <path fill="#272636" d="M213.248-196.608c-0.352-0.032-0.48-0.032-0.32 0.032-0.32 0.064-0.448 0.096 0.32 0.096 0.8 0 0.64-0.032 0.352-0.096C213.792-196.64 213.632-196.64 213.248-196.608zM1023.648 313.248c1.888 26.048-3.936 52.992-18.592 76.928-23.104 37.632-56.672 52.832-97.28 54.496-2.112 0.32-4.224 0.48-6.432 0.48l-239.264 0.832c16.128 46.72 20.576 102.4 20.576 154.72 0 33.952-3.808 66.976-10.816 98.784l-0.608-0.064c-12.704 55.744-61.92 97.312-120.8 97.312-68.544 0-114.24-57.632-114.24-127.008 0-3.904-0.32-7.648 0-11.392-3.584-129.728-109.184-234.016-234.816-248.32l0-65.696-0.96-265.92 0-274.912 12.832 0 598.368-0.288 10.432 0.32c23.2-0.064 36.192 5.76 57.216 19.264 19.936 12.896 35.008 30.528 44.832 50.464 2.72 4 4.8 8.48 6.112 13.408l92.16 412C1023.648 303.552 1024.032 308.48 1023.648 313.248zM160 359.744c0 26.496-21.472 48-48 48l-64 0c-26.528 0-48-21.504-48-48l0-508.512c0-26.496 21.472-48 48-48l64 0c26.528 0 48 21.504 48 48L160 359.744z" transform="translate(0, 812) scale(1, -1)"/>
</svg>
