<?xml version="1.0" encoding="UTF-8" standalone="no"?>
<svg width="224px" height="448px" viewBox="0 0 224 448" version="1.1" xmlns="http://www.w3.org/2000/svg" xmlns:xlink="http://www.w3.org/1999/xlink" xmlns:sketch="http://www.bohemiancoding.com/sketch/ns">
    <!-- Generator: Sketch 3.3.3 (12072) - http://www.bohemiancoding.com/sketch -->
    <title>maka_lazhu2</title>
    <desc>Created with Sketch.</desc>
    <defs></defs>
    <g id="Page-1" stroke="none" stroke-width="1" fill="none" fill-rule="evenodd" sketch:type="MSPage">
        <g id="maka_lazhu2" sketch:type="MSLayerGroup" fill="#000000">
            <g id="Page-1" sketch:type="MSShapeGroup">
                <g id="蜡烛-01">
                    <path d="M102.646154,144.792009 C96.6400002,141.410877 89.8461536,134.996671 90.2892306,123.411321 C91.1261537,98.8483907 120.763077,104.417314 118.350769,85.9205324 C116.381538,70.8048836 148.48,125.599112 131.2,143.200888 C149.513846,137.830854 158.473846,123.063263 157.095384,99.9422866 C154.781538,60.7112098 120.32,0 110.916923,0 C109.932308,0 108.504616,0.74583796 107.913846,1.54139844 C106.781539,3.13251943 106.830769,5.46947835 108.209231,9.7953385 C114.067692,28.1926748 106.190769,37.0432853 95.2615384,49.2253052 C85.4646153,60.1642619 73.2553845,73.8379581 67.9876923,98.3511654 C65.0830768,111.925416 66.8553847,122.864373 73.2553845,130.919423 C80.4923075,140.068369 92.5046155,143.548946 102.646154,144.792009 L102.646154,144.792009 L102.646154,144.792009 Z" id="Shape"></path>
                    <path d="M154.732308,194.912319 C159.064615,194.912319 162.609231,198.492342 162.609231,202.867925 L162.609231,413.293674 C162.609231,413.691454 162.510769,414.337847 162.313846,415.133407 L160.984616,419.160932 L62.5230766,419.160932 L61.5384615,415.282575 C61.3415385,414.437292 61.1938461,413.741176 61.1938461,413.343396 L61.1938461,202.867925 C61.1938461,198.492342 64.7384615,194.912319 69.070769,194.912319 L154.732308,194.912319 L154.732308,194.912319 Z M154.732308,179.00111 L69.070769,179.00111 C56.0246154,179.00111 45.44,189.691454 45.44,202.867925 L45.44,413.293674 C45.44,415.332297 45.7846154,417.271476 46.2769231,419.160932 L12.5538462,419.160932 C5.76,419.160932 0.196923077,424.729856 0.196923077,431.641287 L0.196923077,435.22131 C0.196923077,442.083019 5.76,447.701665 12.5538462,447.701665 L211.347692,447.701665 C218.141538,447.701665 223.704616,442.132741 223.704616,435.22131 L223.704616,431.641287 C223.704616,424.729856 218.141538,419.160932 211.347692,419.160932 L177.575385,419.160932 C178.067692,417.271476 178.412308,415.332297 178.412308,413.293674 L178.412308,202.867925 C178.412308,189.741176 167.778462,179.00111 154.732308,179.00111 L154.732308,179.00111 L154.732308,179.00111 Z" id="Shape"></path>
                    <path d="M87.5323076,323.097003 C87.5323076,328.268147 83.3969229,332.444839 78.2769232,332.444839 C73.1569228,332.444839 69.0215388,328.268147 69.0215388,323.097003 L69.0215388,211.768257 C69.0215388,206.597115 73.1569228,202.420422 78.2769232,202.420422 C83.3969229,202.420422 87.5323076,206.597115 87.5323076,211.768257 L87.5323076,323.097003 L87.5323076,323.097003 Z" id="Shape"></path>
                </g>
            </g>
        </g>
    </g>
</svg>