<?xml version="1.0" encoding="UTF-8" standalone="no"?>
<svg width="218px" height="448px" viewBox="0 0 218 448" version="1.1" xmlns="http://www.w3.org/2000/svg" xmlns:xlink="http://www.w3.org/1999/xlink" xmlns:sketch="http://www.bohemiancoding.com/sketch/ns">
    <!-- Generator: Sketch 3.3.3 (12072) - http://www.bohemiancoding.com/sketch -->
    <title>maka_lazhu</title>
    <desc>Created with Sketch.</desc>
    <defs></defs>
    <g id="Page-1" stroke="none" stroke-width="1" fill="none" fill-rule="evenodd" sketch:type="MSPage">
        <g id="maka_lazhu" sketch:type="MSLayerGroup" fill="#000000">
            <g id="Page-1" sketch:type="MSShapeGroup">
                <path d="M99.9446954,144.887591 C94.1092011,141.500043 87.4788296,135.091775 87.8760227,123.5143 C88.6723748,98.9541964 117.585869,104.527933 115.231222,85.9899107 C113.299822,70.8796849 144.628427,125.709149 127.782622,143.290874 C145.660735,137.918892 154.358674,123.128621 153.028471,99.9991449 C150.77558,60.7501579 117.152791,0 108.006044,0 C107.032233,0 105.651888,0.728559637 105.076253,1.53150374 C103.949562,3.14656257 104.025756,5.45961218 105.363825,9.78205984 C111.080849,28.18456 103.390149,37.0286629 92.7195172,49.2562378 C83.1652537,60.2152017 71.2666655,73.8596465 66.1179026,98.41975 C63.2805285,112.007642 65.0000597,122.970682 71.2332387,131.002161 C78.3483038,140.139726 90.0694326,143.632227 99.9446954,144.887591 L99.9446954,144.887591 L99.9446954,144.887591 Z M205.893495,419.445556 L172.982508,419.445556 C173.465235,417.549263 173.795082,415.601003 173.795082,413.554922 L173.795082,203.013405 C173.795082,189.839213 163.446433,179.120725 150.733796,179.120725 L67.2111667,179.120725 C54.5073784,179.120725 44.149389,189.838194 44.149389,203.013405 L44.149389,413.555431 C44.149389,415.601512 44.4797278,417.549772 44.9457411,419.446066 L12.0514676,419.446066 C5.41175585,419.446066 0,425.037633 0,431.936533 L0,435.517684 C0,442.407413 5.41175585,448 12.0514676,448 L205.893987,448 C212.53419,448 217.945946,442.407413 217.945946,435.517684 L217.945946,431.936533 C217.945454,425.036615 212.533699,419.445556 205.893495,419.445556 L205.893495,419.445556 L205.893495,419.445556 Z M85.2082415,323.294021 C85.2082415,328.464248 81.1601165,332.660853 76.1799638,332.660853 C71.1747414,332.660853 67.1349728,328.465267 67.1349728,323.294021 L67.1349728,211.878907 C67.1349728,206.700019 71.175233,202.513094 76.1799638,202.513094 C81.1601165,202.513094 85.2082415,206.700019 85.2082415,211.878907 L85.2082415,323.294021 L85.2082415,323.294021 Z" id="Shape"></path>
            </g>
        </g>
    </g>
</svg>