<?xml version="1.0" encoding="UTF-8" standalone="no"?>
<svg width="80px" height="80px" viewBox="0 0 80 80" version="1.1" xmlns="http://www.w3.org/2000/svg" xmlns:xlink="http://www.w3.org/1999/xlink" xmlns:sketch="http://www.bohemiancoding.com/sketch/ns">
    <!-- Generator: Sketch 3.2.2 (9983) - http://www.bohemiancoding.com/sketch -->
    <title>button_6</title>
    <desc>Created with Sketch.</desc>
    <defs></defs>
    <g id="Page-1" stroke="none" stroke-width="1" fill="none" fill-rule="evenodd" sketch:type="MSPage">
        <path d="M40.1809644,48.6527312 C35.6649966,48.731545 31.9449004,44.9658223 31.8695337,40.2448766 C31.7941671,35.5239308 35.3921695,31.6321061 39.9081373,31.5532923 C44.4225977,31.4744785 48.1442014,35.2386249 48.219568,39.9611469 C48.2949346,44.6805164 44.6954249,48.5739174 40.1809644,48.6527312 L40.1809644,48.6527312 Z M39.81619,25.8093436 C32.2674695,25.9401745 26.2501986,32.4454644 26.3768146,40.3410294 C26.5019232,48.2350181 32.7241912,54.5290871 40.2729117,54.3966799 C47.8201249,54.265849 53.8389031,47.7574066 53.7122871,39.8634179 C53.5856712,31.9678528 47.3649105,25.6769365 39.81619,25.8093436 L39.81619,25.8093436 Z M68.9092121,43.5834285 C65.2961364,48.1877299 56.9937497,59.6976951 39.9789819,59.9956112 C25.8733656,60.2415102 16.7675707,50.098176 10.9341944,43.7016492 C9.66351322,42.3066452 9.63788857,38.8088894 11.1738603,37.0702573 C16.1043444,31.4650209 24.9674588,20.254548 39.339873,20.0039202 C54.0951496,19.7438347 65.0218019,32.4974815 68.9815641,36.748697 C70.1407027,37.9923786 70.5522044,41.4948632 68.9092121,43.5834285 L68.9092121,43.5834285 Z" id="Fill-45" fill="#000000" sketch:type="MSShapeGroup"></path>
    </g>
</svg>