<?xml version="1.0" encoding="UTF-8" standalone="no"?>
<svg width="80px" height="80px" viewBox="0 0 80 80" version="1.1" xmlns="http://www.w3.org/2000/svg" xmlns:xlink="http://www.w3.org/1999/xlink" xmlns:sketch="http://www.bohemiancoding.com/sketch/ns">
    <!-- Generator: Sketch 3.2.2 (9983) - http://www.bohemiancoding.com/sketch -->
    <title>button_8</title>
    <desc>Created with Sketch.</desc>
    <defs></defs>
    <g id="Page-1" stroke="none" stroke-width="1" fill="none" fill-rule="evenodd" sketch:type="MSPage">
        <path d="M48.7801971,37.8875521 C44.3434872,37.8875521 40.7613187,34.261531 40.7613187,29.7839708 C40.7613187,25.3168803 44.3434872,21.6856243 48.7801971,21.6856243 C53.2048226,21.6856243 56.7887175,25.3168803 56.7887175,29.7839708 C56.7887175,34.2650209 53.2048226,37.8875521 48.7801971,37.8875521 L48.7801971,37.8875521 Z M48.7801971,59.146366 C44.3434872,59.146366 40.7613187,55.5151101 40.7613187,51.0392948 C40.7613187,46.5669694 44.3434872,42.9357134 48.7801971,42.9357134 C53.2048226,42.9357134 56.7887175,46.5669694 56.7887175,51.0392948 C56.7887175,55.5151101 53.2048226,59.146366 48.7801971,59.146366 L48.7801971,59.146366 Z M27.7446678,37.8875521 C23.3200423,37.8875521 19.7344211,34.261531 19.7344211,29.7839708 C19.7344211,25.3168803 23.3200423,21.6856243 27.7446678,21.6856243 C32.1710197,21.6908592 35.7652726,25.3203702 35.7652726,29.7874607 C35.7652726,34.2650209 32.1744724,37.8875521 27.7446678,37.8875521 L27.7446678,37.8875521 Z M27.7446678,59.146366 C23.3200423,59.146366 19.7344211,55.5151101 19.7344211,51.0392948 C19.7344211,46.5669694 23.3200423,42.9357134 27.7446678,42.9357134 C32.1710197,42.9409483 35.7652726,46.5669694 35.7652726,51.0392948 C35.7652726,55.5151101 32.1744724,59.146366 27.7446678,59.146366 L27.7446678,59.146366 Z M48.3089046,12.6607055 C66.822242,13.9415041 71,25.6292276 71,25.6292276 L70.3146405,17.8763827 C63.7355349,8.57576064 50.8380019,9.30864267 42.1544801,11.1268881 C40.8838893,10.9523924 39.5908559,10.8372252 38.259843,10.8372252 C22.0960628,10.8372252 9,24.0744707 9,40.4142502 C9,56.7522847 22.0960628,70 38.259843,70 C54.4218968,70 67.535223,56.7522847 67.535223,40.4142502 C67.5265913,27.6638477 59.5094392,16.8102138 48.3089046,12.6607055 L48.3089046,12.6607055 Z" id="Fill-50" fill="#000000" sketch:type="MSShapeGroup"></path>
    </g>
</svg>