<?xml version="1.0" encoding="UTF-8" standalone="no"?>
<svg width="80px" height="80px" viewBox="0 0 80 80" version="1.1" xmlns="http://www.w3.org/2000/svg" xmlns:xlink="http://www.w3.org/1999/xlink" xmlns:sketch="http://www.bohemiancoding.com/sketch/ns">
    <!-- Generator: Sketch 3.2.2 (9983) - http://www.bohemiancoding.com/sketch -->
    <title>button_9</title>
    <desc>Created with Sketch.</desc>
    <defs>
        <path d="M27.5384616,10 C27.5384616,10 22,10 22,15.46295 L22,64.6294999 C22,70.0924499 27.5384616,70.0924499 27.5384616,70.0924499 L52.4615384,70.0924499 C52.4615384,70.0924499 58,70.0924499 58,64.6294999 L58,15.46295 C58,10 52.4615384,10 52.4615384,10 L27.5384616,10 L27.5384616,10 Z M24.7692308,16.8181818 L24.7692308,60.4545455 L55.2307692,60.4545455 L55.2307692,16.8181818 L24.7692308,16.8181818 L24.7692308,16.8181818 Z M40,67.8181735 C41.529404,67.8181735 42.7692308,66.597132 42.7692308,65.0909007 C42.7692308,63.5846695 41.529404,62.363628 40,62.363628 C38.470596,62.363628 37.2307692,63.5846695 37.2307692,65.0909007 C37.2307692,66.597132 38.470596,67.8181735 40,67.8181735 L40,67.8181735 Z M33.6897408,12.7272727 C33.3512909,12.7272727 33.0769231,12.9906007 33.0769231,13.3302806 L33.0769231,13.4900024 C33.0769231,13.8230345 33.3535052,14.0930102 33.6897408,14.0930102 L46.3102592,14.0930102 C46.6487091,14.0930102 46.9230769,13.8296823 46.9230769,13.4900024 L46.9230769,13.3302806 C46.9230769,12.9972486 46.6464948,12.7272727 46.3102592,12.7272727 L33.6897408,12.7272727 L33.6897408,12.7272727 Z" id="path-1"></path>
    </defs>
    <g id="Page-1" stroke="none" stroke-width="1" fill="none" fill-rule="evenodd" sketch:type="MSPage">
        <g id="device_smart-phone_vertical_glyph">
            <use fill="#000000" fill-rule="evenodd" sketch:type="MSShapeGroup" xlink:href="#path-1"></use>
            <use fill="none" xlink:href="#path-1"></use>
        </g>
    </g>
</svg>